<?xml version="1.0" encoding="utf-8"?>
<svg version="1.1" xmlns:xlink="http://www.w3.org/1999/xlink" width="20px" height="20px" xmlns="http://www.w3.org/2000/svg">
  <g transform="matrix(1 0 0 1 -450 -34 )">
    <path d="M 19.7 2  C 19.9 2.4  20 2.8  20 3.3  C 20 3.7  19.9 4.1  19.8 4.6  C 19.6 5  19.4 5.4  19.1 5.7  L 6.2 18.5  L 0 20  L 1.5 13.8  L 14.4 1  C 14.7 0.7  15.1 0.5  15.5 0.3  C 15.9 0.1  16.3 0  16.7 0  C 17.1 0  17.6 0.1  18 0.3  C 18.4 0.5  18.7 0.7  19 1  C 19.3 1.3  19.5 1.6  19.7 2  Z M 2.6 15.2  L 1.7 18.3  L 4.9 17.5  C 4.8 17.2  4.7 16.9  4.6 16.7  C 4.5 16.4  4.3 16.2  4.1 16  C 3.9 15.8  3.7 15.6  3.4 15.5  C 3.1 15.4  2.8 15.2  2.6 15.2  Z M 13.7 3.4  L 3.2 13.9  C 3.9 14.2  4.5 14.5  5 15  C 5.5 15.5  5.9 16.1  6.1 16.8  L 16.6 6.3  L 13.7 3.4  Z M 14.6 2.5  L 17.5 5.4  C 17.7 5.2  17.8 5  18 4.9  C 18.1 4.8  18.3 4.6  18.4 4.4  C 18.5 4.2  18.6 4.1  18.7 3.9  C 18.8 3.7  18.8 3.5  18.8 3.3  C 18.8 3  18.7 2.8  18.6 2.5  C 18.5 2.2  18.3 2  18.1 1.9  C 17.9 1.8  17.7 1.6  17.5 1.5  C 17.3 1.4  17 1.3  16.7 1.3  C 16.5 1.3  16.2 1.3  16.1 1.4  C 16 1.5  15.7 1.6  15.6 1.7  C 15.5 1.8  15.2 1.9  15.1 2  C 15 2.2  14.8 2.3  14.6 2.5  Z " fill-rule="nonzero" fill="#168d4b" stroke="none" transform="matrix(1 0 0 1 450 34 )" />
  </g>
</svg>