<?xml version="1.0" encoding="utf-8"?>
<svg version="1.1" xmlns:xlink="http://www.w3.org/1999/xlink" width="15px" height="20px" xmlns="http://www.w3.org/2000/svg">
  <g transform="matrix(1 0 0 1 -473 -1050 )">
    <path d="M 12.6 8.8  L 15 8.8  L 15 20  L 0 20  L 0 8.8  L 2.5 8.8  L 2.5 5.1  C 2.5 4.4  2.6 3.7  2.9 3.1  C 3.1 2.5  3.5 2  3.9 1.5  C 4.3 1  4.9 0.7  5.5 0.4  C 6.1 0.1  6.8 0  7.5 0  C 8.2 0  8.9 0.1  9.5 0.4  C 10.1 0.7  10.6 1  11.1 1.5  C 11.5 2  11.9 2.5  12.2 3.1  C 12.5 3.7  12.6 4.4  12.6 5.1  L 12.6 8.8  Z M 13.8 18.8  L 13.8 10  L 1.3 10  L 1.3 18.8  L 13.8 18.8  Z M 3.7 8.8  L 3.8 8.8  L 11.3 8.8  L 11.3 5.1  C 11.3 4.6  11.2 4.1  11 3.6  C 10.8 3.1  10.5 2.7  10.2 2.4  C 9.8 2  9.4 1.8  9 1.6  C 8.5 1.4  8 1.3  7.5 1.3  C 7 1.3  6.5 1.4  6 1.6  C 5.6 1.8  5.2 2  4.8 2.4  C 4.5 2.7  4.2 3.1  4 3.6  C 3.8 4.1  3.7 4.6  3.7 5.1  L 3.7 8.8  Z " fill-rule="nonzero" fill="#168d4b" stroke="none" transform="matrix(1 0 0 1 473 1050 )" />
  </g>
</svg>