<?xml version="1.0" encoding="utf-8"?>
<svg version="1.1" xmlns:xlink="http://www.w3.org/1999/xlink" width="30px" height="30px" xmlns="http://www.w3.org/2000/svg">
  <g transform="matrix(1 0 0 1 -1031 -111 )">
    <path d="M 17 29.9253731343284  C 24.4776119402985 28.7313432835821  30 22.6119402985075  30 15.1492537313433  C 30 6.7910447761194  23.2835820895522 0.0746268656716431  15.0746268656716 0.0746268656716431  C 6.86567164179105 0.0746268656716431  0 6.7910447761194  0 15.1492537313433  C 0 22.6119402985075  5.52238805970149 28.8805970149254  13 29.9253731343284  L 13 19.4776119402985  L 8.80597014925373 19.4776119402985  L 8.80597014925373 15.1492537313433  L 12.6865671641791 15.1492537313433  L 12.6865671641791 11.7164179104478  C 12.6865671641791 7.98507462686567  14.9253731343284 5.8955223880597  18.3582089552239 5.8955223880597  C 20 5.8955223880597  21.7910447761194 6.19402985074627  21.7910447761194 6.19402985074627  L 21.7910447761194 9.92537313432836  L 19.8507462686567 9.92537313432836  C 18.0597014925373 9.92537313432836  17.4626865671642 11.1194029850746  17.4626865671642 12.3134328358209  L 17.4626865671642 15.1492537313433  L 21.6417910447761 15.1492537313433  L 20.8955223880597 19.4776119402985  L 17 19.4776119402985  L 17 29.9253731343284  Z " fill-rule="nonzero" fill="#ffffff" stroke="none" transform="matrix(1 0 0 1 1031 111 )" />
  </g>
</svg>