<?xml version="1.0" encoding="utf-8"?>
<svg version="1.1" xmlns:xlink="http://www.w3.org/1999/xlink" width="30px" height="30px" xmlns="http://www.w3.org/2000/svg">
  <g transform="matrix(1 0 0 1 -1081 -111 )">
    <path d="M 30 15  C 30 6.75  23.25 0  15 0  C 6.75 0  0 6.75  0 15  C 0 23.25  6.75 30  15 30  C 23.25 30  30 23.25  30 15  Z M 24.3 10.35  C 23.85 10.95  23.25 11.7  22.5 12.15  C 22.5 12.3  22.5 12.45  22.5 12.6  C 22.5 17.4  18.9 22.95  12.15 22.95  C 10.05 22.95  8.25 22.35  6.6 21.3  C 6.9 21.3  7.2 21.3  7.5 21.3  C 9.15 21.3  10.8 20.7  12 19.8  C 10.35 19.8  9.15 18.75  8.55 17.25  C 8.7 17.25  9 17.25  9.3 17.25  C 9.6 17.25  9.9 17.25  10.2 17.1  C 8.55 16.8  7.35 15.3  7.35 13.5  C 7.95 13.95  8.4 14.1  9 14.1  C 8.1 13.5  7.5 12.3  7.5 11.1  C 7.5 10.5  7.65 9.75  7.95 9.3  C 9.75 11.55  12.45 12.9  15.45 13.05  C 15.45 12.75  15.3 12.45  15.3 12.3  C 15.3 10.35  16.95 8.7  18.9 8.7  C 19.95 8.7  20.85 9.15  21.6 9.9  C 22.35 9.75  23.25 9.45  23.85 9  C 23.55 9.9  22.95 10.5  22.2 10.95  C 22.95 10.8  23.7 10.65  24.3 10.35  Z " fill-rule="nonzero" fill="#ffffff" stroke="none" transform="matrix(1 0 0 1 1081 111 )" />
  </g>
</svg>