<?xml version="1.0" encoding="utf-8"?>
<svg version="1.1" xmlns:xlink="http://www.w3.org/1999/xlink" width="30px" height="30px" xmlns="http://www.w3.org/2000/svg">
  <g transform="matrix(1 0 0 1 -1130 -111 )">
    <path d="M 30 2.1  C 30 0.9  28.95 0  27.75 0  L 2.25 0  C 1.05 0  0 0.9  0 2.1  L 0 27.75  C 0 29.1  1.05 30  2.25 30  L 27.75 30  C 28.95 30  30 29.1  30 27.9  L 30 2.1  Z M 5 25.5  L 5 11.25  L 9 11.25  L 9 25.5  L 5 25.5  Z M 4.05 6.75  C 4.05 5.25  5.25 4.2  6.6 4.2  C 7.95 4.2  9.15 5.4  9.15 6.75  C 9.15 8.1  7.95 9.3  6.6 9.3  C 5.1 9.3  4.05 8.1  4.05 6.75  Z M 12 11.25  L 11.7 11.25  L 15.9 11.25  L 15.9 13.2  C 16.5 12  18 10.95  20.1 10.95  C 24.6 10.95  25.5 13.95  25.5 17.7  L 25.5 25.5  L 21 25.5  L 21 18.6  C 21 16.95  21 14.85  18.75 14.85  C 16.5 14.85  16.05 16.65  16.05 18.6  L 16.05 25.5  L 12 25.5  L 12 11.25  Z " fill-rule="nonzero" fill="#ffffff" stroke="none" transform="matrix(1 0 0 1 1130 111 )" />
  </g>
</svg>