<?xml version="1.0" encoding="utf-8"?>
<svg version="1.1" xmlns:xlink="http://www.w3.org/1999/xlink" width="17px" height="7px" xmlns="http://www.w3.org/2000/svg">
  <g transform="matrix(1 0 0 1 -256 -71 )">
    <path d="M 6.04306459689533 5.08362543815724  C 5.64246369554331 5.68452679018528  5.3920881321983 6.33550325488233  5.3920881321983 6.98647971957937  L 0.484727090635957 6.98647971957937  C 0.484727090635957 5.08362543815723  1.23585378067101 3.53129694541813  2.6379569354031 2.37956935403105  C 4.09013520280421 1.22784176264397  5.99298948422634 0.626940410615926  8.4466700050075 0.626940410615926  C 10.9003505257887 0.626940410615926  12.8532799198798 1.22784176264397  14.2553830746119 2.37956935403105  C 15.707561342013 3.53129694541813  16.4086129193791 5.08362543815724  16.4086129193791 6.98647971957937  L 11.5012518778167 6.98647971957937  C 11.5012518778167 6.33550325488233  11.3009514271407 5.68452679018528  10.8002003004507 5.13370055082624  C 10.3495242864296 4.5828743114672  9.54832248372558 4.28242363545318  8.3965948923385 4.28242363545318  C 7.29494241362041 4.28242363545318  6.54381572358536 4.5327991987982  6.04306459689533 5.08362543815724  Z " fill-rule="nonzero" fill="#e5db24" stroke="none" transform="matrix(1 0 0 1 256 71 )" />
  </g>
</svg>