<?xml version="1.0" encoding="utf-8"?>
<svg version="1.1" xmlns:xlink="http://www.w3.org/1999/xlink" width="23px" height="25px" xmlns="http://www.w3.org/2000/svg">
  <g transform="matrix(1 0 0 1 -277 -79 )">
    <path d="M 19.2944416624937 2.59188783174762  C 21.1972959439159 3.99399098647972  22.1987981972959 5.84677015523285  22.399098647972 8.15022533800701  L 15.5388082123185 8.35052578868303  C 15.4887330996495 7.849774661993  15.2884326489735 7.44917376064096  14.9379068602905 7.04857285928893  C 14.6374561842764 6.6479719579369  14.1867801702554 6.34752128192289  13.6860290435654 6.14722083124687  C 13.1852779168753 5.94692038057086  12.5843765648473 5.79669504256385  11.9334001001502 5.79669504256385  C 11.0821231847772 5.79669504256385  10.3309964947421 5.94692038057086  9.73009514271408 6.29744616925388  C 9.12919379068605 6.6479719579369  8.82874311467201 7.09864797195794  8.82874311467201 7.69954932398598  C 8.82874311467201 8.150225338007  9.02904356534803 8.55082623935904  9.37956935403105 8.90135202804206  C 9.78017025538308 9.25187781672508  10.4311467200801 9.5022533800701  11.4326489734602 9.70255383074612  L 15.9894842263395 10.5538307461192  C 18.3430145217827 11.0045067601402  20.0956434651978 11.7556334501753  21.2473710565849 12.8072108162243  C 22.399098647972 13.8587881822734  23 15.2108162243365  23 16.9634451677516  C 23 18.5658487731597  22.49924887331 19.9679519278918  21.5478217325989 21.1697546319479  C 20.5963945918878 22.371557336004  19.2944416624937 23.2729093640461  17.6920380570856 23.9739609414121  C 16.0395593390085 24.6249374061092  14.1867801702554 24.9754631947922  12.0836254381572 24.9754631947922  C 8.72859288933401 24.9754631947922  6.07461191787682 24.2744116174261  4.12168252378568 22.922383575363  C 2.16875312969454 21.520280420631  1.06710065097647 19.6675012518778  0.816725087631454 17.3640460691037  L 8.22784176264398 17.1637456184276  C 8.37806710065099 18.0150225338007  8.82874311467201 18.6659989984977  9.47971957936906 19.1166750125188  C 10.1807711567351 19.5673510265398  11.0320480721082 19.7676514772158  12.0836254381572 19.7676514772158  C 13.0350525788683 19.7676514772158  13.8362543815724 19.5673510265398  14.4371557336004 19.2168252378568  C 15.0380570856284 18.8662994491738  15.3385077616425 18.3655483224837  15.3385077616425 17.8147220831247  C 15.3385077616425 17.2638958437657  15.0881321982975 16.8632949424136  14.6374561842764 16.5127691537306  C 14.1867801702554 16.2123184777166  13.4356534802203 15.9619429143716  12.4842263395093 15.7616424636955  L 8.37806710065098 14.9604406609915  C 6.02453680520782 14.5097646469705  4.2719078617927 13.7586379569354  3.12018027040561 12.5568352528793  C 1.96845267901853 11.4051076614922  1.41762643965949 9.90285428142214  1.41762643965949 8.10015022533801  C 1.41762643965949 6.5478217325989  1.81822734101152 5.1957936905358  2.66950425638458 4.04406609914872  C 3.52078117175763 2.94241362043065  4.72258387581371 2.09113670505759  6.27491236855282 1.49023535302954  C 7.82724086129193 0.889334001001501  9.68002003004507 0.588883324987478  11.7831747621432 0.588883324987478  C 14.9879819729594 0.588883324987478  17.4917376064096 1.23985978968453  19.2944416624937 2.59188783174762  Z " fill-rule="nonzero" fill="#168d4b" stroke="none" transform="matrix(1 0 0 1 277 79 )" />
  </g>
</svg>