<?xml version="1.0" encoding="utf-8"?>
<svg version="1.1" xmlns:xlink="http://www.w3.org/1999/xlink" width="20px" height="20px" xmlns="http://www.w3.org/2000/svg">
  <g>
    <path d="M 7.4 0.3  C 8.2 0.1  9.1 0  10 0  C 10.9 0  11.8 0.1  12.7 0.4  C 13.6 0.6  14.4 1  15.1 1.4  C 15.8 1.8  16.5 2.4  17.1 3  C 17.7 3.6  18.2 4.3  18.7 5  C 19.1 5.7  19.5 6.5  19.7 7.4  C 19.9 8.2  20 9.1  20 10  C 20 10.9  19.9 11.8  19.6 12.7  C 19.4 13.6  19 14.4  18.6 15.1  C 18.2 15.8  17.6 16.5  17 17.1  C 16.4 17.7  15.7 18.2  15 18.7  C 14.3 19.1  13.5 19.5  12.6 19.7  C 11.8 19.9  10.9 20  10 20  C 9.1 20  8.2 19.9  7.3 19.6  C 6.4 19.4  5.6 19  4.9 18.6  C 4.2 18.2  3.5 17.6  2.9 17  C 2.3 16.4  1.8 15.7  1.3 15  C 0.9 14.3  0.5 13.5  0.3 12.6  C 0.1 11.8  0 10.9  0 10  C 0 9.1  0.1 8.2  0.4 7.3  C 0.6 6.4  1 5.6  1.4 4.9  C 1.8 4.2  2.4 3.5  3 2.9  C 3.6 2.3  4.3 1.8  5 1.3  C 5.7 0.9  6.5 0.5  7.4 0.3  Z M 7.8 18.5  C 8.4 18.6  9.2 18.8  10 18.8  C 10.8 18.8  11.6 18.7  12.3 18.5  C 13 18.3  13.7 18  14.4 17.6  C 15 17.2  15.6 16.8  16.2 16.2  C 16.7 15.7  17.2 15.1  17.6 14.4  C 18 13.8  18.3 13.1  18.5 12.3  C 18.7 11.6  18.8 10.8  18.8 10  C 18.8 9.2  18.7 8.4  18.5 7.7  C 18.3 7  18 6.3  17.6 5.6  C 17.2 5  16.8 4.4  16.2 3.8  C 15.7 3.3  15.1 2.8  14.4 2.4  C 13.8 2  13.1 1.7  12.3 1.5  C 11.6 1.3  10.8 1.2  10 1.2  C 9.2 1.2  8.4 1.4  7.7 1.6  C 6.9 1.8  6.2 2.1  5.6 2.4  C 4.9 2.8  4.4 3.3  3.8 3.8  C 3.3 4.3  2.8 4.9  2.4 5.6  C 2.1 6.2  1.8 6.9  1.6 7.7  C 1.4 8.4  1.3 9.2  1.3 10  C 1.3 10.8  1.4 11.6  1.6 12.3  C 1.8 13  2.1 13.7  2.5 14.4  C 2.9 15  3.3 15.6  3.9 16.2  C 4.4 16.7  5 17.2  5.7 17.6  C 6.3 18  7 18.3  7.8 18.5  Z " fill-rule="nonzero" fill="#168d4b" stroke="none" />
  </g>
</svg>