<?xml version="1.0" encoding="utf-8"?>
<svg version="1.1" xmlns:xlink="http://www.w3.org/1999/xlink" width="21px" height="20px" xmlns="http://www.w3.org/2000/svg">
  <g>
    <path d="M 20.1 9.9  C 20 9.1  19.9 8.2  19.6 7.3  C 19.4 6.4  19 5.6  18.6 4.9  C 18.2 4.1  17.6 3.5  17 2.9  C 16.4 2.3  15.7 1.8  15 1.3  C 14.3 0.9  13.5 0.5  12.6 0.3  C 11.8 0.1  10.9 0  10 0  C 9.1 0  8.2 0.1  7.3 0.4  C 6.5 0.6  5.7 0.9  5 1.4  C 4.3 1.8  3.6 2.3  3 3  C 2.3 3.5  1.8 4.2  1.4 5  C 1 5.7  0.6 6.5  0.4 7.4  C 0.1 8.2  0 9.1  0 10  C 0 10.9  0.1 11.8  0.4 12.7  C 0.6 13.5  1 14.3  1.4 15.1  C 1.8 15.9  2.4 16.5  3 17.1  C 3.6 17.7  4.3 18.2  5 18.7  C 5.7 19.1  6.5 19.5  7.4 19.7  C 8.2 19.9  9.1 20  10 20  C 10.9 20  11.8 19.9  12.7 19.6  C 13.5 19.4  14.3 19  15.1 18.6  C 15.8 18.2  16.5 17.6  17.1 17  C 17.7 16.4  18.2 15.7  18.7 15  C 19.1 14.3  19.5 13.5  19.7 12.6  C 19.9 11.7  20.1 10.9  20.1 9.9  Z M 15.4 6.7  L 8.1 14  L 4.5 10.4  L 5.4 9.5  L 8.1 12.2  L 14.5 5.8  L 15.4 6.7  Z " fill-rule="nonzero" fill="#168d4b" stroke="none" />
  </g>
</svg>