<?xml version="1.0" encoding="utf-8"?>
<svg version="1.1" xmlns:xlink="http://www.w3.org/1999/xlink" width="19px" height="19px" xmlns="http://www.w3.org/2000/svg">
  <g transform="matrix(1 0 0 1 -420 -252 )">
    <path d="M 6.87234042553191 0.404255319148936  C 7.78191489361702 0.101063829787234  8.59042553191489 0  9.5 0  C 10.4095744680851 0  11.218085106383 0.101063829787234  12.0265957446809 0.303191489361702  C 12.8351063829787 0.50531914893617  13.5425531914894 0.808510638297872  14.25 1.21276595744681  C 14.9574468085106 1.61702127659574  15.563829787234 2.12234042553191  16.1702127659574 2.72872340425532  C 16.7765957446809 3.33510638297872  17.281914893617 3.94148936170213  17.686170212766 4.64893617021277  C 18.0904255319149 5.3563829787234  18.3936170212766 6.06382978723404  18.5957446808511 6.87234042553191  C 18.7978723404255 7.68085106382979  18.8989361702128 8.48936170212766  18.8989361702128 9.39893617021277  C 18.8989361702128 10.3085106382979  18.7978723404255 11.1170212765957  18.5957446808511 11.9255319148936  C 18.3936170212766 12.7340425531915  18.0904255319149 13.4414893617021  17.686170212766 14.1489361702128  C 17.281914893617 14.8563829787234  16.7765957446809 15.4627659574468  16.1702127659574 16.0691489361702  C 15.563829787234 16.6755319148936  14.9574468085106 17.1808510638298  14.25 17.5851063829787  C 13.5425531914894 17.9893617021277  12.8351063829787 18.2925531914894  12.0265957446809 18.4946808510638  C 11.218085106383 18.6968085106383  10.4095744680851 18.7978723404255  9.5 18.7978723404255  C 8.59042553191489 18.7978723404255  7.78191489361702 18.6968085106383  6.97340425531915 18.4946808510638  C 6.16489361702128 18.2925531914894  5.45744680851064 17.9893617021277  4.75 17.5851063829787  C 4.04255319148936 17.1808510638298  3.43617021276596 16.6755319148936  2.82978723404255 16.0691489361702  C 2.22340425531915 15.4627659574468  1.71808510638298 14.8563829787234  1.31382978723404 14.1489361702128  C 0.909574468085105 13.4414893617021  0.606382978723403 12.7340425531915  0.404255319148935 11.9255319148936  C 0.101063829787234 11.218085106383  0 10.3085106382979  0 9.5  C 0 8.59042553191489  0.101063829787234 7.78191489361702  0.303191489361702 6.97340425531915  C 0.50531914893617 6.16489361702128  0.808510638297872 5.45744680851064  1.21276595744681 4.75  C 1.61702127659574 4.04255319148936  2.12234042553191 3.43617021276596  2.72872340425532 2.82978723404255  C 3.33510638297872 2.22340425531915  3.94148936170213 1.71808510638298  4.64893617021277 1.31382978723404  C 5.3563829787234 0.909574468085107  6.06382978723404 0.606382978723405  6.87234042553191 0.404255319148936  Z M 7.27659574468085 17.3829787234043  C 7.98404255319149 17.5851063829787  8.69148936170213 17.686170212766  9.5 17.686170212766  C 10.2074468085106 17.686170212766  11.0159574468085 17.5851063829787  11.7234042553192 17.3829787234043  C 12.4308510638298 17.1808510638298  13.0372340425532 16.8776595744681  13.6436170212766 16.5744680851064  C 14.25 16.1702127659574  14.8563829787234 15.7659574468085  15.2606382978723 15.2606382978723  C 15.7659574468085 14.7553191489362  16.1702127659574 14.25  16.5744680851064 13.6436170212766  C 16.9787234042553 13.0372340425532  17.1808510638298 12.4308510638298  17.3829787234043 11.7234042553191  C 17.5851063829787 11.0159574468085  17.686170212766 10.3085106382979  17.686170212766 9.5  C 17.686170212766 8.79255319148936  17.5851063829787 7.98404255319149  17.3829787234043 7.27659574468085  C 17.1808510638298 6.56914893617021  16.8776595744681 5.96276595744681  16.5744680851064 5.3563829787234  C 16.1702127659575 4.75  15.7659574468085 4.14361702127659  15.2606382978723 3.73936170212766  C 14.7553191489362 3.23404255319149  14.25 2.82978723404255  13.6436170212766 2.42553191489362  C 13.0372340425532 2.02127659574468  12.3297872340426 1.81914893617021  11.7234042553192 1.61702127659574  C 11.1170212765957 1.41489361702128  10.3085106382979 1.31382978723404  9.5 1.31382978723404  C 8.79255319148936 1.31382978723404  7.98404255319149 1.41489361702128  7.27659574468085 1.61702127659574  C 6.56914893617021 1.71808510638298  5.96276595744681 2.02127659574468  5.3563829787234 2.42553191489362  C 4.75 2.72872340425532  4.1436170212766 3.13297872340426  3.63829787234043 3.63829787234043  C 3.13297872340426 4.1436170212766  2.72872340425532 4.64893617021277  2.32446808510638 5.25531914893617  C 2.02127659574468 5.96276595744681  1.71808510638298 6.56914893617021  1.51595744680851 7.27659574468085  C 1.31382978723404 7.98404255319149  1.31382978723404 8.69148936170213  1.31382978723404 9.5  C 1.31382978723404 10.3085106382979  1.41489361702128 11.0159574468085  1.61702127659574 11.7234042553192  C 1.81914893617021 12.4308510638298  2.12234042553191 13.0372340425532  2.42553191489362 13.6436170212766  C 2.82978723404255 14.25  3.23404255319149 14.8563829787234  3.73936170212766 15.2606382978723  C 4.24468085106383 15.7659574468085  4.75 16.1702127659574  5.35638297872341 16.5744680851064  C 5.96276595744681 16.9787234042553  6.56914893617021 17.1808510638298  7.27659574468085 17.3829787234043  Z M 8.8936170212766 11.4202127659574  L 8.8936170212766 5.0531914893617  L 10.1063829787234 5.0531914893617  L 10.1063829787234 11.4202127659574  L 8.8936170212766 11.4202127659574  Z M 8.8936170212766 13.9468085106383  L 8.8936170212766 12.6329787234043  L 10.1063829787234 12.6329787234043  L 10.1063829787234 13.9468085106383  L 8.8936170212766 13.9468085106383  Z " fill-rule="nonzero" fill="#ef474b" stroke="none" transform="matrix(1 0 0 1 420 252 )" />
  </g>
</svg>