<?xml version="1.0" encoding="utf-8"?>
<svg version="1.1" xmlns:xlink="http://www.w3.org/1999/xlink" width="13px" height="15px" xmlns="http://www.w3.org/2000/svg">
  <g transform="matrix(1 0 0 1 -220 -25 )">
    <path d="M 6.59382552089003 14.7148723084627  C 6.11266900350526 14.8650976464697  5.54660251246435 14.9251877816725  4.92392937231935 14.9251877816725  C 4.07482963575799 14.9251877816725  3.31063987285276 14.7749624436655  2.65966340815571 14.4745117676515  C 2.00868694345867 14.1740610916375  1.49922710152185 13.7233850776164  1.10298055779321 13.092438657987  C 0.735037338616621 12.4915373059589  0.536914066752302 11.7103655483225  0.536914066752302 10.778968452679  C 0.536914066752302 9.99779669504256  0.67843068951253 9.33680520781172  0.933160610480939 8.79599399098648  C 1.18789053144935 8.25518277416124  1.55583375062594 7.80450676014021  2.00868694345867 7.47401101652479  C 2.46154013629139 7.14351527290936  2.99930330278026 6.87310966449675  3.59367311837321 6.69283925888833  C 4.18804293396617 6.51256885327992  4.81071607411117 6.39238858287431  5.48999586336026 6.33229844767151  C 6.25418562626549 6.2722083124687  6.84855544185844 6.1820731096645  7.32971195924321 6.09193790686029  C 7.78256515207594 6.00180270405608  8.12220504670049 5.88162243365047  8.34863164311685 5.73139709564347  C 8.54675491498117 5.58117175763645  8.65996821318935 5.34081121682524  8.65996821318935 5.07040560841262  L 8.65996821318935 5.01031547320981  C 8.65996821318935 4.52959439158737  8.51845159042912 4.16905358037055  8.20711502035662 3.92869303955933  C 7.89577845028412 3.65828743114672  7.49953190655549 3.53810716074111  6.96176874006662 3.53810716074111  C 6.39570224902571 3.53810716074111  5.94284905619299 3.65828743114671  5.60320916156844 3.92869303955933  C 5.26356926694389 4.19909864797195  5.03714267052753 4.52959439158737  4.95223269687139 4.98027040560841  L 1.04637390868912 4.89013520280421  C 1.1595872068973 4.01882824236355  1.4709237769698 3.2677015523285  1.95208029435458 2.57666499749625  C 2.43323681173935 1.885628442664  3.08421327643639 1.37486229344016  3.93331301299776 0.984276414621935  C 4.78241274955912 0.593690535803706  5.80133243343276 0.413420130195294  6.99007206461867 0.413420130195294  C 7.83917180118003 0.413420130195294  8.6316648886373 0.533600400600903  9.33924800243844 0.743915873810718  C 10.0468311162396 0.954231347020531  10.6695042563846 1.25468202303455  11.2072674228734 1.67531296945418  C 11.7450305893623 2.06589884827241  12.1412771330909 2.57666499749625  12.4526137031634 3.14752128192289  C 12.7356469486839 3.71837756634953  12.8771635714441 4.37936905358037  12.8771635714441 5.13049574361542  L 12.8771635714441 14.7148723084627  L 8.91469813415776 14.7148723084627  L 8.91469813415776 12.7619429143716  L 8.80148483594958 12.7619429143716  C 8.57505823953321 13.242663995994  8.26372166946071 13.6332498748122  7.89577845028412 13.9637456184276  C 7.52783523110753 14.2942413620431  7.10328536282685 14.5346019028543  6.59382552089003 14.7148723084627  Z M 5.06544599507958 11.5300951427141  C 5.34847924060003 11.8605908863295  5.74472578432867 11.9807711567351  6.25418562626549 11.9807711567351  C 6.70703881909821 11.9807711567351  7.1315886873789 11.8906359539309  7.49953190655549 11.6803204807211  C 7.86747512573208 11.4700050075113  8.15050837125253 11.1995993990986  8.3769349676689 10.8691036554832  C 8.60336156408526 10.5085628442664  8.71657486229344 10.1179769654482  8.71657486229344 9.66730095142714  L 8.71657486229344 8.31527290936405  C 8.60336156408526 8.37536304456685  8.46184494132503 8.43545317976966  8.29202499401276 8.49554331497246  C 8.12220504670049 8.55563345017527  7.92408177483617 8.61572358537807  7.72595850297185 8.64576865297947  C 7.52783523110753 8.70585878818228  7.32971195924321 8.73590385578368  7.10328536282685 8.76594892338508  C 6.87685876641049 8.79599399098648  6.67873549454617 8.82603905858789  6.48061222268185 8.85608412618928  C 6.08436567895321 8.91617426139209  5.74472578432867 9.0363545317977  5.46169253880821 9.1565348022033  C 5.17865929328776 9.30676014021031  4.98053602142344 9.48703054581873  4.81071607411117 9.69734601902854  C 4.66919945135094 9.90766149223836  4.5842894776948 10.178067100651  4.5842894776948 10.478517776665  C 4.5842894776948 10.929193790686  4.75410942500708 11.2897346019029  5.06544599507958 11.5300951427141  Z " fill-rule="nonzero" fill="#168d4b" stroke="none" transform="matrix(1 0 0 1 220 25 )" />
  </g>
</svg>