<?xml version="1.0" encoding="utf-8"?>
<svg version="1.1" xmlns:xlink="http://www.w3.org/1999/xlink" width="5px" height="20px" xmlns="http://www.w3.org/2000/svg">
  <g transform="matrix(1 0 0 1 -235 -20 )">
    <path d="M 4.27985728592889 3.63751509617367  C 3.84170005007511 4.04989837697723  3.27835503254882 4.25609001737901  2.62111917876815 4.25609001737901  C 1.96388332498748 4.25609001737901  1.40053830746119 4.04989837697723  0.931084126189283 3.63751509617367  C 0.461629944917377 3.22513181537011  0.211254381572359 2.72438068868008  0.211254381572359 2.13526171610357  C 0.211254381572359 1.54614274352706  0.461629944917377 1.07484756546585  0.931084126189283 0.662464284662288  C 1.36924136204307 0.25008100385873  1.93258637956935 0.0438893634569502  2.58982223335003 0.0438893634569502  C 3.2470580871307 0.0438893634569502  3.81040310465699 0.25008100385873  4.27985728592889 0.662464284662288  C 4.7493114672008 1.07484756546585  4.96839008512769 1.57559869215588  4.96839008512769 2.16471766473239  C 4.96839008512769 2.7538366373089  4.7493114672008 3.22513181537011  4.27985728592889 3.63751509617367  Z M 5 19.6910070988836  L 0.242551326990488 19.6910070988836  L 0.242551326990488 5.84671124333559  L 5 5.84671124333559  L 5 19.6910070988836  Z " fill-rule="nonzero" fill="#168d4b" stroke="none" transform="matrix(1 0 0 1 235 20 )" />
  </g>
</svg>