<?xml version="1.0" encoding="utf-8"?>
<svg version="1.1" xmlns:xlink="http://www.w3.org/1999/xlink" width="9px" height="15px" xmlns="http://www.w3.org/2000/svg">
  <g transform="matrix(1 0 0 1 -242 -25 )">
    <path d="M 4.67801702553831 14.6848272408613  L 0.481096644967451 14.6848272408613  L 0.481096644967451 0.563645468202304  L 4.56534802203305 0.563645468202304  L 4.56534802203305 3.14752128192289  L 4.70618427641462 3.14752128192289  C 4.95968953430145 2.21612418627942  5.35403104656985 1.52508763144717  5.88920881321983 1.07441161742614  C 6.42438657986981 0.62373560340511  7.07223335002504 0.383375062593893  7.80458187280921 0.383375062593893  C 8.00175262894341 0.383375062593893  8.19892338507762 0.383375062593893  8.39609414121181 0.413420130195294  C 8.59326489734602 0.443465197796698  8.79043565348022 0.473510265398099  8.95943915873811 0.533600400600905  L 8.95943915873811 4.43945918878318  C 8.7622684026039 4.37936905358037  8.50876314471707 4.31927891837757  8.1707561342013 4.25918878317477  C 7.83274912368553 4.22914371557336  7.55107661492238 4.19909864797196  7.29757135703555 4.19909864797196  C 6.79056084126189 4.19909864797196  6.33988482724086 4.31927891837757  5.94554331497246 4.55963945918879  C 5.55120180270405 4.8  5.2413620430646 5.13049574361542  5.01602403605408 5.55112669003505  C 4.79068602904357 5.97175763645469  4.67801702553831 6.45247871807712  4.67801702553831 7.02333500250376  L 4.67801702553831 14.6848272408613  Z " fill-rule="nonzero" fill="#168d4b" stroke="none" transform="matrix(1 0 0 1 242 25 )" />
  </g>
</svg>