<?xml version="1.0" encoding="utf-8"?>
<svg version="1.1" xmlns:xlink="http://www.w3.org/1999/xlink" width="14px" height="15px" xmlns="http://www.w3.org/2000/svg">
  <g transform="matrix(1 0 0 1 -251 -25 )">
    <path d="M 4.83608746453013 8.73590385578368  L 13.978968452679 8.73590385578368  L 13.978968452679 7.6242363545318  C 13.978968452679 6.45247871807712  13.8037055583375 5.43094641962944  13.4823902520447 4.52959439158738  C 13.161074945752 3.62824236354531  12.6937072275079 2.87711567351026  12.1094975797029 2.27621432148222  C 11.5252879318979 1.67531296945418  10.8242363545318 1.19459188783174  10.0063428476048 0.894141211817724  C 9.18844934067769 0.593690535803704  8.31213486897013 0.41342013019529  7.31897846770156 0.41342013019529  C 5.94608579535972 0.41342013019529  4.74845601735939 0.71387080620931  3.72608913370056 1.31477215823735  C 2.70372225004174 1.9156735102654  1.91503922550494 2.78698047070606  1.36004006009015 3.86860290435653  C 0.805040894675358 4.95022533800701  0.512936070772838 6.2421632448673  0.512936070772838 7.6843264897346  C 0.512936070772838 9.18657986980471  0.805040894675358 10.478517776665  1.36004006009015 11.5601402103155  C 1.91503922550494 12.6417626439659  2.70372225004174 13.4830245368052  3.75529961609082 14.0538808212318  C 4.80687698213989 14.6247371056585  6.03371724253048 14.9251877816725  7.46503087965283 14.9251877816725  C 8.66266065765316 14.9251877816725  9.71423802370223 14.7449173760641  10.6197629778 14.3543314972459  C 11.5252879318979 13.9637456184276  12.2555499916542 13.4529794692038  12.8397596394592 12.7619429143716  C 13.4239692872642 12.0709063595393  13.7744950759473 11.2897346019029  13.9205474878985 10.3583375062594  L 9.91871140043399 10.2682023034552  C 9.80186947087298 10.5686529794692  9.62660657653147 10.8390585878818  9.42213319979971 11.0493740610916  C 9.18844934067769 11.2596895343015  8.92555499916543 11.4399599399099  8.60423969287265 11.5300951427141  C 8.28292438657988 11.6502754131197  7.93239859789685 11.7103655483225  7.55266232682357 11.7103655483225  C 6.99766316140879 11.7103655483225  6.5010849607745 11.5901852779169  6.09213820731097 11.3498247371057  C 5.68319145384744 11.1094641962944  5.36187614755467 10.778968452679  5.15740277082291 10.3583375062594  C 4.92371891170089 9.93770655983977  4.83608746453013 9.42694041061593  4.83608746453013 8.85608412618929  L 4.83608746453013 8.73590385578368  Z M 5.18661325321316 4.92018027040561  C 5.42029711233517 4.49954932398598  5.71240193623769 4.19909864797196  6.12134868970122 3.98878317476214  C 6.5010849607745 3.77846770155233  6.93924219662827 3.65828743114672  7.43582039726257 3.65828743114672  C 7.93239859789685 3.65828743114672  8.34134535136038 3.77846770155233  8.72108162243366 3.98878317476214  C 9.10081789350694 4.19909864797196  9.39292271740946 4.49954932398598  9.59739609414122 4.86009013520281  C 9.80186947087298 5.22063094641963  9.91871140043399 5.67130696044067  9.91871140043399 6.15202804206309  L 4.83608746453013 6.15202804206309  C 4.86529794692038 5.70135202804206  4.98213987648139 5.28072108162243  5.18661325321316 4.92018027040561  Z " fill-rule="nonzero" fill="#168d4b" stroke="none" transform="matrix(1 0 0 1 251 25 )" />
  </g>
</svg>