<?xml version="1.0" encoding="utf-8"?>
<svg version="1.1" xmlns:xlink="http://www.w3.org/1999/xlink" width="9px" height="5px" xmlns="http://www.w3.org/2000/svg">
  <g transform="matrix(1 0 0 1 -254 -21 )">
    <path d="M 3.199269492474 3.63116102725517  C 2.98718666234646 4.06037627870377  2.85463489351674 4.52535946777309  2.85463489351674 4.99034265684241  L 0.25662022445433 4.99034265684241  C 0.25662022445433 3.63116102725517  0.654275530943475 2.52235496101295  1.39656543638988 1.69969239573646  C 2.16536569560223 0.877029830459978  3.17275913870806 0.447814579011376  4.47176647323927 0.447814579011376  C 5.77077380777048 0.447814579011376  6.80467760464226 0.877029830459978  7.54696751008866 1.69969239573646  C 8.31576776930101 2.52235496101295  8.68691272202421 3.63116102725517  8.68691272202421 4.99034265684241  L 6.08889805296179 4.99034265684241  C 6.08889805296179 4.52535946777309  5.98285663789802 4.06037627870377  5.71775310023859 3.66692896487589  C 5.4791599163451 3.273481651048  5.05499425609002 3.0588740253237  4.44525611947332 3.0588740253237  C 3.86202833662257 3.0588740253237  3.46437303013343 3.23771371342728  3.199269492474 3.63116102725517  Z " fill-rule="nonzero" fill="#e5db24" stroke="none" transform="matrix(1 0 0 1 254 21 )" />
  </g>
</svg>