<?xml version="1.0" encoding="utf-8"?>
<svg version="1.1" xmlns:xlink="http://www.w3.org/1999/xlink" width="13px" height="15px" xmlns="http://www.w3.org/2000/svg">
  <g transform="matrix(1 0 0 1 -266 -25 )">
    <path d="M 10.9055539831486 1.55513269904857  C 11.9810803161264 2.39639459188783  12.5471468071673 3.50806209313971  12.6603601053755 4.89013520280421  L 8.78280464174523 5.01031547320982  C 8.75450131719319 4.7098647971958  8.64128801898501 4.46950425638458  8.44316474712069 4.22914371557336  C 8.27334479980842 3.98878317476214  8.01861487884001 3.80851276915373  7.73558163331956 3.68833249874812  C 7.4525483877991 3.56815222834252  7.11290849317456 3.47801702553831  6.74496527399796 3.47801702553831  C 6.26380875661319 3.47801702553831  5.83925888833251 3.56815222834252  5.49961899370796 3.77846770155233  C 5.15997909908342 3.98878317476214  4.99015915177114 4.25918878317476  4.99015915177114 4.61972959439159  C 4.99015915177114 4.8901352028042  5.10337244997932 5.13049574361542  5.30149572184364 5.34081121682524  C 5.52792231826 5.55112669003505  5.89586553743659 5.70135202804206  6.4619320284775 5.82153229844767  L 9.03753456271364 6.33229844767151  C 10.3677908166598 6.60270405608413  11.3584071759814 7.05338007010516  12.0093836406784 7.6843264897346  C 12.6603601053755 8.31527290936405  13 9.1264897346019  13 10.178067100651  C 13 11.1395092638958  12.7169667544795 11.9807711567351  12.1792035879907 12.7018527791688  C 11.6414404215018 13.4229344016024  10.9055539831486 13.9637456184276  9.99984759748318 14.3843765648473  C 9.06583788726568 14.7749624436655  8.01861487884 14.9852779168753  6.82987524765409 14.9852779168753  C 4.93355250266705 14.9852779168753  3.43347630140864 14.5646469704557  2.32964664387886 13.7534301452178  C 1.22581698634909 12.9121682523786  0.603143846204092 11.8005007511267  0.461627223443865 10.4184276414622  L 4.6505192571466 10.2982473710566  C 4.73542923080274 10.8090135202804  4.99015915177114 11.1995993990986  5.35810237094773 11.4700050075113  C 5.75434891467637 11.7404106159239  6.23550543206114 11.8605908863295  6.82987524765409 11.8605908863295  C 7.36763841414296 11.8605908863295  7.82049160697568 11.7404106159239  8.16013150160023 11.5300951427141  C 8.49977139622477 11.3197796695043  8.66959134353705 11.0193289934902  8.66959134353705 10.6888332498748  C 8.66959134353705 10.3583375062594  8.52807472077683 10.1179769654482  8.27334479980841 9.90766149223836  C 8.01861487884 9.72739108662995  7.59406501055932 9.57716574862293  7.05630184407045 9.45698547821733  L 4.73542923080273 8.97626439659489  C 3.40517297685659 8.70585878818227  2.414556617535 8.25518277416124  1.76358015283795 7.5341011517276  C 1.11260368814091 6.84306459689534  0.801267118068405 5.94171256885328  0.801267118068405 4.86009013520281  C 0.801267118068405 3.92869303955934  1.02769371448477 3.11747621432148  1.50885023186955 2.42643965948923  C 1.99000674925431 1.76544817225839  2.6692865385034 1.25468202303455  3.54668959961681 0.894141211817726  C 4.42409266073022 0.533600400600901  5.47131566915591 0.353329994992487  6.66005530034181 0.353329994992487  C 8.47146807167272 0.353329994992487  9.886634299275 0.743915873810716  10.9055539831486 1.55513269904857  Z " fill-rule="nonzero" fill="#168d4b" stroke="none" transform="matrix(1 0 0 1 266 25 )" />
  </g>
</svg>