<?xml version="1.0" encoding="utf-8"?>
<svg version="1.1" xmlns:xlink="http://www.w3.org/1999/xlink" width="23px" height="25px" xmlns="http://www.w3.org/2000/svg">
  <g transform="matrix(1 0 0 1 -199 -79 )">
    <path d="M 11.6659989984977 24.5247871807712  C 10.8147220831247 24.7751627441162  9.81321982974462 24.8753129694542  8.71156735102654 24.8753129694542  C 7.20931397095644 24.8753129694542  5.85728592889334 24.6249374061092  4.70555833750626 24.1241862794191  C 3.55383074611918 23.6234351527291  2.65247871807712 22.872308462694  1.95142714071107 21.820731096645  C 1.30045067601402 20.8192288432649  0.949924887330997 19.5172759138708  0.949924887330997 17.9649474211317  C 0.949924887330997 16.6629944917376  1.20030045067601 15.5613420130195  1.65097646469705 14.6599899849775  C 2.10165247871808 13.7586379569354  2.75262894341512 13.0075112669004  3.55383074611918 12.4566850275413  C 4.35503254882323 11.9058587881823  5.3064596895343 11.4551827741612  6.35803705558337 11.1547320981472  C 7.40961442163245 10.8542814221332  8.51126690035053 10.6539809714572  9.71306960440661 10.5538307461192  C 11.0650976464697 10.4536805207812  12.1166750125188 10.3034551827742  12.9679519278918 10.1532298447672  C 13.7691537305959 10.0030045067601  14.3700550826239 9.80270405608412  14.770655983976 9.55232849273911  C 15.121181772659 9.30195292939409  15.321482223335 8.90135202804206  15.321482223335 8.45067601402103  L 15.321482223335 8.35052578868302  C 15.321482223335 7.54932398597896  15.07110665999 6.94842263395092  14.5202804206309 6.54782173259889  C 13.9694541812719 6.09714571857786  13.2684026039059 5.89684526790185  12.3169754631948 5.89684526790185  C 11.3154732098147 5.89684526790185  10.5142714071107 6.09714571857786  9.91337005508263 6.54782173259889  C 9.31246870305458 6.99849774661992  8.91186780170256 7.54932398597896  8.76164246369554 8.30045067601401  L 1.85127691537306 8.15022533800701  C 2.05157736604907 6.69804707060591  2.60240360540811 5.44616925388083  3.45368052078117 4.29444166249374  C 4.30495743615423 3.14271407110666  5.45668502754131 2.2914371557336  6.95893840761142 1.64046069103656  C 8.46119178768152 0.98948422633951  10.2638958437656 0.68903355032549  12.3670505758638 0.68903355032549  C 13.8693039559339 0.68903355032549  15.271407110666 0.889334001001505  16.5232849273911 1.23985978968453  C 17.7751627441162 1.59038557836755  18.8768152228343 2.09113670505759  19.8282423635453 2.79218828242364  C 20.7796695042564 3.44316474712068  21.4807210816224 4.29444166249375  22.0315473209815 5.24586880320481  C 22.5322984476715 6.19729594391588  22.7826740110165 7.29894842263396  22.7826740110165 8.55082623935904  L 22.7826740110165 24.5247871807712  L 15.772158237356 24.5247871807712  L 15.772158237356 21.2699048572859  L 15.57185778668 21.2699048572859  C 15.171256885328 22.07110665999  14.620430645969 22.722083124687  13.9694541812719 23.2729093640461  C 13.3184777165749 23.8237356034051  12.5673510265398 24.2243365047571  11.6659989984977 24.5247871807712  Z M 8.96194291437156 19.2168252378568  C 9.46269404106159 19.7676514772158  10.1637456184276 19.9679519278918  11.0650976464697 19.9679519278918  C 11.8662994491738 19.9679519278918  12.6174261392088 19.8177265898848  13.2684026039059 19.4672008012018  C 13.9193790686029 19.1166750125188  14.4201301952929 18.6659989984977  14.820731096645 18.1151727591387  C 15.221331997997 17.5142714071107  15.421632448673 16.8632949424136  15.421632448673 16.1121682523786  L 15.421632448673 13.8587881822734  C 15.221331997997 13.9589384076114  14.970956434652 14.0590886329494  14.670505758638 14.1592388582874  C 14.3700550826239 14.2593890836254  14.0195292939409 14.3595393089634  13.6690035052579 14.4096144216325  C 13.3184777165749 14.5097646469705  12.9679519278918 14.5598397596395  12.5673510265398 14.6099148723085  C 12.1667501251878 14.6599899849775  11.8162243365048 14.7100650976465  11.4656985478217 14.7601402103155  C 10.7646469704557 14.8602904356535  10.1637456184276 15.0605908863295  9.66299449173761 15.2608913370055  C 9.16224336504757 15.5112669003505  8.81171757636455 15.8117175763645  8.51126690035053 16.1622433650476  C 8.26089133700551 16.5127691537306  8.1106659989985 16.9634451677516  8.1106659989985 17.4641962944417  C 8.1106659989985 18.2153229844767  8.41111667501252 18.8162243365048  8.96194291437156 19.2168252378568  Z " fill-rule="nonzero" fill="#168d4b" stroke="none" transform="matrix(1 0 0 1 199 79 )" />
  </g>
</svg>