<?xml version="1.0" encoding="utf-8"?>
<svg version="1.1" xmlns:xlink="http://www.w3.org/1999/xlink" width="8px" height="34px" xmlns="http://www.w3.org/2000/svg">
  <g transform="matrix(1 0 0 1 -225 -70 )">
    <path d="M 6.84777165748623 6.18377566349524  C 6.14672008012018 6.88482724086129  5.24536805207812 7.23535302954432  4.19379068602904 7.23535302954432  C 3.14221331997997 7.23535302954432  2.24086129193791 6.88482724086129  1.48973460190285 6.18377566349524  C 0.738607911867803 5.4827240861292  0.338007010515774 4.63144717075614  0.338007010515774 3.62994491737607  C 0.338007010515774 2.62844266399599  0.738607911867803 1.82724086129194  1.48973460190285 1.12618928392589  C 2.1907861792689 0.425137706559841  3.09213820731097 0.0746119178768154  4.14371557336004 0.0746119178768154  C 5.19529293940912 0.0746119178768154  6.09664496745118 0.425137706559841  6.84777165748623 1.12618928392589  C 7.59889834752128 1.82724086129194  7.94942413620431 2.678517776665  7.94942413620431 3.68002003004507  C 7.94942413620431 4.68152228342514  7.59889834752128 5.4827240861292  6.84777165748623 6.18377566349524  Z M 7.89934902353531 33.4747120681022  L 0.38808212318478 33.4747120681022  L 0.38808212318478 9.93940911367051  L 7.89934902353531 9.93940911367051  L 7.89934902353531 33.4747120681022  Z " fill-rule="nonzero" fill="#168d4b" stroke="none" transform="matrix(1 0 0 1 225 70 )" />
  </g>
</svg>