<?xml version="1.0" encoding="utf-8"?>
<svg version="1.1" xmlns:xlink="http://www.w3.org/1999/xlink" width="16px" height="25px" xmlns="http://www.w3.org/2000/svg">
  <g transform="matrix(1 0 0 1 -236 -79 )">
    <path d="M 8 24.4747120681022  L 1 24.4747120681022  L 1 0.939409113670507  L 8.11617426139209 0.939409113670507  L 8.11617426139209 5.24586880320481  L 8.36654982473711 5.24586880320481  C 8.81722583875814 3.6935403104657  9.51827741612419 2.54181271907862  10.4697045568353 1.79068602904357  C 11.4211316975463 1.03955933900852  12.5728592889334 0.638958437656488  13.8748122183275 0.638958437656488  C 14.2253380070105 0.638958437656488  14.5758637956935 0.638958437656488  14.9263895843766 0.68903355032549  C 15.2769153730596 0.739108662994497  15.6274411617426 0.789183775663499  15.9278918377566 0.889334001001508  L 15.9278918377566 7.39909864797197  C 15.5773660490736 7.29894842263396  15.1266900350526 7.19879819729595  14.5257886830245 7.09864797195794  C 13.9248873309965 7.04857285928894  13.4241362043065 6.99849774661993  12.9734601902854 6.99849774661993  C 12.0721081622434 6.99849774661993  11.2709063595393 7.19879819729595  10.5698547821733 7.59939909864798  C 9.86880320480721 8  9.31797696544817 8.55082623935904  8.91737606409615 9.25187781672509  C 8.51677516274412 9.95292939409114  8.31647471206811 10.7541311967952  8 11.7055583375063  L 8 24.4747120681022  Z " fill-rule="nonzero" fill="#168d4b" stroke="none" transform="matrix(1 0 0 1 236 79 )" />
  </g>
</svg>