<?xml version="1.0" encoding="utf-8"?>
<svg version="1.1" xmlns:xlink="http://www.w3.org/1999/xlink" width="24px" height="25px" xmlns="http://www.w3.org/2000/svg">
  <g transform="matrix(1 0 0 1 -252 -79 )">
    <path d="M 8.29043565348023 14.5598397596395  L 23.9639459188783 14.5598397596395  L 23.9639459188783 12.7070605908863  C 23.9639459188783 10.7541311967952  23.6634952428643 9.05157736604907  23.1126690035053 7.54932398597897  C 22.5618427641462 6.04707060590886  21.7606409614422 4.79519278918377  20.7591387080621 3.7936905358037  C 19.757636454682 2.79218828242363  18.555833750626 1.99098647971957  17.1537305958939 1.49023535302954  C 15.7516274411617 0.989484226339506  14.2493740610916 0.689033550325483  12.5468202303455 0.689033550325483  C 10.1932899349024 0.689033550325483  8.14021031547323 1.18978467701552  6.38758137205811 2.19128693039559  C 4.63495242864298 3.19278918377566  3.28292438657989 4.64496745117676  2.33149724586882 6.44767150726089  C 1.38007010515776 8.25037556334502  0.879318978467722 10.4036054081122  0.879318978467722 12.8072108162243  C 0.879318978467722 15.3109664496745  1.38007010515776 17.4641962944417  2.33149724586882 19.2669003505258  C 3.2829243865799 21.0696044066099  4.63495242864298 22.471707561342  6.43765648472711 23.4231347020531  C 8.24036054081124 24.3745618427641  10.3435152729094 24.8753129694542  12.7971957936906 24.8753129694542  C 14.8502754131197 24.8753129694542  16.6529794692038 24.5748622934402  18.2053079619429 23.9238858287431  C 19.7576364546821 23.2729093640461  21.0095142714071 22.421632448673  22.0110165247872 21.2699048572859  C 23.0125187781673 20.1181772658989  23.6134201301953 18.8162243365048  23.8637956935403 17.2638958437657  L 17.0035052578868 17.1136705057586  C 16.8032048072108 17.6144216324487  16.5027541311968 18.0650976464697  16.1522283425138 18.4156234351527  C 15.7516274411617 18.7661492238358  15.3009514271407 19.0665998998498  14.7501251877817 19.2168252378568  C 14.1992989484227 19.4171256885328  13.5983975963946 19.5172759138708  12.9474211316976 19.5172759138708  C 11.9959939909865 19.5172759138708  11.1447170756134 19.3169754631948  10.4436654982474 18.9163745618428  C 9.74261392088133 18.5157736604907  9.19178768152229 17.9649474211317  8.84126189283927 17.2638958437657  C 8.44066099148724 16.5628442663996  8.29043565348023 15.7115673510265  8.29043565348023 14.7601402103155  L 8.29043565348023 14.5598397596395  Z M 8.89133700550827 8.20030045067601  C 9.2919379068603 7.49924887330997  9.79268903355033 6.99849774661993  10.4937406109164 6.6479719579369  C 11.1447170756134 6.29744616925388  11.8958437656485 6.09714571857786  12.7471206810215 6.09714571857786  C 13.5983975963946 6.09714571857786  14.2994491737606 6.29744616925388  14.9504256384577 6.6479719579369  C 15.6014021031548 6.99849774661993  16.1021532298448 7.49924887330997  16.4526790185278 8.10015022533801  C 16.8032048072108 8.70105157736605  17.0035052578868 9.45217826740111  17.0035052578868 10.2533800701052  L 8.29043565348022 10.2533800701052  C 8.34051076614923 9.5022533800701  8.54081121682524 8.80120180270406  8.89133700550827 8.20030045067601  Z " fill-rule="nonzero" fill="#168d4b" stroke="none" transform="matrix(1 0 0 1 252 79 )" />
  </g>
</svg>