<?xml version="1.0" encoding="utf-8"?>
<svg version="1.1" xmlns:xlink="http://www.w3.org/1999/xlink" width="20px" height="14px" xmlns="http://www.w3.org/2000/svg">
  <g transform="matrix(1 0 0 1 -18 -293 )">
    <path d="M 17.5 1.4  L 20 1.4  L 20 14  L 1.3 14  L 1.3 11.4  L 0 11.4  L 0 0  L 17.5 0  L 17.5 1.4  Z M 1.2 7.6  L 1.3 7.6  C 1.6 7.6  2 7.7  2.3 7.8  C 2.5 7.9  2.8 8.1  3 8.3  C 3.2 8.6  3.4 8.8  3.6 9.1  C 3.7 9.4  3.8 9.7  3.8 10  L 13.8 10  C 13.8 9.8  13.9 9.4  14 9.1  C 14.1 8.8  14.3 8.5  14.5 8.3  C 14.7 8.1  15 7.9  15.3 7.8  C 15.6 7.7  15.9 7.6  16.3 7.6  L 16.3 3.9  C 16 3.9  15.6 3.8  15.3 3.7  C 15 3.5  14.7 3.3  14.5 3.1  C 14.3 2.9  14.1 2.6  14 2.3  C 13.9 2  13.8 1.7  13.8 1.3  L 3.8 1.3  C 3.8 1.6  3.7 2  3.6 2.3  C 3.4 2.6  3.2 2.9  3 3.1  C 2.8 3.3  2.5 3.5  2.2 3.7  C 1.9 3.8  1.6 3.9  1.2 3.9  L 1.2 7.6  Z M 1.3 1.3  L 1.3 2.6  C 1.5 2.6  1.6 2.6  1.8 2.5  C 1.9 2.4  2 2.3  2.1 2.2  C 2.2 2.1  2.3 2  2.4 1.8  C 2.5 1.6  2.5 1.5  2.5 1.3  L 1.3 1.3  Z M 1.3 8.9  L 1.3 10.1  L 2.6 10.1  C 2.6 9.9  2.6 9.8  2.5 9.6  C 2.3 9.5  2.2 9.3  2.1 9.2  C 2 9.1  1.9 9  1.7 8.9  C 1.6 8.9  1.4 8.9  1.3 8.9  Z M 18.8 12.7  L 18.8 2.6  L 17.5 2.6  L 17.5 11.4  L 2.5 11.4  L 2.5 12.7  L 18.8 12.7  Z M 4.8 6.1  C 4.7 6.3  4.5 6.4  4.4 6.4  C 4.2 6.4  4.1 6.3  4 6.2  C 3.8 6  3.8 5.9  3.8 5.7  C 3.8 5.5  3.9 5.4  4 5.3  C 4.1 5.2  4.2 5.1  4.4 5.1  C 4.6 5.1  4.7 5.2  4.8 5.3  C 4.9 5.4  5 5.6  5 5.7  C 5 5.9  4.9 6  4.8 6.1  Z M 9.7 8.7  C 9.4 8.8  9.1 8.9  8.8 8.9  C 8.5 8.9  8.1 8.8  7.8 8.7  C 7.5 8.5  7.2 8.3  7 8.1  C 6.8 7.9  6.6 7.6  6.4 7.3  C 6.3 7  6.2 6.7  6.2 6.3  L 6.2 5.1  C 6.2 4.8  6.3 4.4  6.4 4.1  C 6.6 3.8  6.8 3.6  7 3.3  C 7.2 3.1  7.5 2.9  7.8 2.8  C 8.1 2.7  8.4 2.6  8.8 2.6  C 9.1 2.6  9.5 2.7  9.8 2.8  C 10 2.9  10.3 3.1  10.5 3.3  C 10.7 3.5  10.9 3.8  11 4.1  C 11.1 4.4  11.2 4.7  11.2 5.1  L 11.2 6.4  C 11.2 6.7  11.1 7.1  11 7.4  C 10.9 7.7  10.7 8  10.5 8.2  C 10.3 8.3  10 8.5  9.7 8.7  Z M 7.5 5.1  L 7.5 6.4  C 7.5 6.6  7.5 6.7  7.6 6.9  C 7.7 7  7.8 7.1  7.9 7.2  C 8 7.3  8.1 7.4  8.3 7.5  C 8.4 7.6  8.6 7.6  8.8 7.6  C 9 7.6  9.1 7.6  9.3 7.5  C 9.4 7.4  9.6 7.3  9.7 7.2  C 9.7 7.1  9.8 7  9.9 6.8  C 10 6.7  10 6.5  10 6.4  L 10 5.1  C 10 4.9  10 4.8  9.9 4.6  C 9.8 4.5  9.7 4.3  9.6 4.2  C 9.5 4.1  9.4 4  9.2 3.9  C 9.1 3.9  8.9 3.9  8.8 3.9  C 8.7 3.9  8.5 3.9  8.3 4  C 8.1 4  8 4.1  7.9 4.2  C 7.8 4.3  7.7 4.5  7.6 4.6  C 7.5 4.8  7.5 4.9  7.5 5.1  Z M 13.5 6.1  C 13.4 6.3  13.3 6.4  13.1 6.4  C 12.9 6.4  12.8 6.3  12.7 6.2  C 12.6 6.1  12.5 5.9  12.5 5.8  C 12.5 5.6  12.6 5.5  12.7 5.4  C 12.8 5.2  13 5.1  13.1 5.1  C 13.3 5.1  13.4 5.2  13.5 5.3  C 13.6 5.4  13.7 5.6  13.7 5.7  C 13.7 5.9  13.6 6  13.5 6.1  Z M 16.3 1.4  L 15 1.4  C 15 1.6  15 1.7  15.1 1.9  C 15.2 2  15.3 2.2  15.4 2.3  C 15.5 2.4  15.6 2.5  15.8 2.6  C 15.9 2.7  16.1 2.7  16.3 2.7  L 16.3 1.4  Z M 16.3 10.1  L 16.3 8.9  C 16.1 8.9  16 8.9  15.8 9  C 15.7 9.1  15.5 9.2  15.4 9.3  C 15.3 9.4  15.2 9.5  15.1 9.7  C 15 9.8  15 9.9  15 10.1  L 16.3 10.1  Z " fill-rule="nonzero" fill="#168d4b" stroke="none" transform="matrix(1 0 0 1 18 293 )" />
  </g>
</svg>