<?xml version="1.0" encoding="utf-8"?>
<svg version="1.1" xmlns:xlink="http://www.w3.org/1999/xlink" width="23px" height="20px" xmlns="http://www.w3.org/2000/svg">
  <g transform="matrix(1 0 0 1 -20 -130 )">
    <path d="M 22.15 13.2  C 23.25 10.1  22.85 5.9  20.45 0.4  L 20.25 0  L 19.85 0.2  C 14.25 2.2  10.95 4.8  9.65 7.9  C 9.55 8  9.55 8.1  9.45 8.2  C 8.95 7.4  8.15 6.6  7.15 6  C 5.85 5.1  4.25 4.3  2.15 3.7  L 1.75 3.6  L 1.55 4  C 0.0499999999999992 8.1  -0.150000000000001 11.2  0.849999999999999 13.5  C 1.85 15.8  4.05 17.3  7.35 18.2  L 7.65 17.3  C 4.75 16.5  2.75 15.2  1.85 13.2  C 0.949999999999999 11.2  1.15 8.5  2.45 4.9  C 4.25 5.5  5.65 6.1  6.75 6.9  C 7.95 7.7  8.75 8.6  9.25 9.6  C 8.65 12.4  9.25 15.5  10.85 18.9  L 11.75 18.5  C 9.85 14.4  9.25 11.1  10.55 8.2  C 11.75 5.4  14.65 3.1  19.85 1.2  C 21.95 6.3  22.35 10  21.25 12.9  C 20.15 15.8  17.45 17.7  13.45 19.1  L 13.75 20  C 18.05 18.6  20.95 16.4  22.15 13.2  Z " fill-rule="nonzero" fill="#168d4b" stroke="none" transform="matrix(1 0 0 1 20 130 )" />
  </g>
</svg>