<?xml version="1.0" encoding="utf-8"?>
<svg version="1.1" xmlns:xlink="http://www.w3.org/1999/xlink" width="11px" height="16px" xmlns="http://www.w3.org/2000/svg">
  <g transform="matrix(1 0 0 1 -30 -133 )">
    <path d="M 2.84999999999999 14.4  C 3.95 14.4  4.45 14.4  4.95 14.3  C 5.55 14.2  6.15 13.8  6.55 13.2  C 6.75 13  6.65 12.7  6.45 12.5  C 6.25 12.3  5.95 12.4  5.75 12.6  C 5.45 13  5.05 13.3  4.65 13.4  C 4.35 13.5  4.05 13.5  3.75 13.4  L 4.65 11.3  C 5.15 11.4  5.65 11.5  6.15 11.4  C 6.75 11.3  7.35 10.9  7.75 10.3  C 7.95 10.1  7.85 9.8  7.65 9.6  C 7.45 9.4  7.15 9.5  6.95 9.7  C 6.65 10.1  6.25 10.4  5.85 10.5  C 5.55 10.6  5.25 10.6  4.95 10.5  L 5.85 8.4  C 6.35 8.5  6.85 8.6  7.35 8.5  C 7.95 8.4  8.55 8  8.95 7.4  C 9.15 7.2  9.05 6.9  8.85 6.7  C 8.65 6.5  8.35 6.6  8.15 6.8  C 7.85 7.2  7.45 7.5  7.05 7.6  C 6.75 7.7  6.45 7.7  6.15 7.6  L 7.05 5.5  C 7.55 5.6  8.05 5.7  8.55 5.6  C 9.15 5.5  9.75 5.1  10.15 4.5  C 10.35 4.3  10.25 4  10.05 3.8  C 9.85 3.6  9.55 3.7  9.35 3.9  C 9.05 4.3  8.65 4.6  8.25 4.7  C 7.95 4.8  7.65 4.8  7.35 4.7  L 8.65 1.7  C 8.75 1.5  8.65 1.2  8.45 1.1  C 8.25 1  8.25 0.8  8.15 1  L 6.85 4  C 6.75 3.9  6.65 3.8  6.55 3.7  C 6.25 3.3  6.05 2.7  6.05 2  C 6.05 1.7  5.85 1.5  5.55 1.5  C 5.25 1.5  5.05 1.7  5.05 2  C 5.05 2.9  5.35 3.7  5.75 4.3  C 5.95 4.5  6.15 4.7  6.35 4.9  L 5.45 7  C 5.35 6.9  5.25 6.8  5.15 6.7  C 4.84999999999999 6.3  4.65 5.7  4.65 5  C 4.65 4.7  4.45 4.5  4.15 4.5  C 3.84999999999999 4.5  3.65 4.7  3.65 5  C 3.65 5.9  3.95 6.7  4.34999999999999 7.3  C 4.54999999999999 7.5  4.75 7.7  4.95 7.9  L 4.04999999999999 10  C 3.95 9.9  3.84999999999999 9.8  3.74999999999999 9.7  C 3.44999999999999 9.3  3.24999999999999 8.7  3.24999999999999 8  C 3.24999999999999 7.7  3.04999999999999 7.5  2.74999999999999 7.5  C 2.44999999999999 7.5  2.24999999999999 7.7  2.24999999999999 8  C 2.24999999999999 8.9  2.54999999999999 9.7  2.94999999999999 10.3  C 3.14999999999999 10.5  3.34999999999999 10.7  3.54999999999999 10.9  L 2.64999999999999 13  C 2.54999999999999 12.9  2.44999999999999 12.8  2.34999999999999 12.7  C 2.04999999999999 12.3  1.84999999999999 11.7  1.84999999999999 11  C 1.84999999999999 10.7  1.64999999999999 10.5  1.34999999999999 10.5  C 1.04999999999999 10.5  0.849999999999991 10.7  0.849999999999991 11  C 0.849999999999991 11.9  1.14999999999999 12.7  1.54999999999999 13.3  C 1.74999999999999 13.5  1.94999999999999 13.7  2.14999999999999 13.9  L 1.84999999999999 14.5  C 1.74999999999999 14.7  1.84999999999999 15  2.04999999999999 15.1  C 2.24999999999999 15.2  2.54999999999999 15.1  2.64999999999999 14.9  L 2.84999999999999 14.4  Z " fill-rule="nonzero" fill="#168d4b" stroke="none" transform="matrix(1 0 0 1 30 133 )" />
  </g>
</svg>