<?xml version="1.0" encoding="utf-8"?>
<svg version="1.1" xmlns:xlink="http://www.w3.org/1999/xlink" width="19px" height="17px" xmlns="http://www.w3.org/2000/svg">
  <g transform="matrix(1 0 0 1 -21 -94 )">
    <path d="M 19 1.57990867579908  L 18.3972602739726 1.57990867579908  C 15.6849315068493 1.57990867579908  12.972602739726 1.98173515981735  10.4611872146119 2.88584474885845  C 10.2602739726027 2.38356164383561  9.95890410958904 1.88127853881278  9.55707762557078 1.57990867579908  C 9.15525114155251 1.17808219178082  8.65296803652968 0.876712328767121  8.15068493150685 0.675799086757988  C 7.64840182648402 0.273972602739723  7.04566210045662 0.173515981735157  6.44292237442923 0.173515981735157  C 5.84018264840183 0.173515981735157  5.23744292237443 0.273972602739723  4.7351598173516 0.474885844748855  C 4.23287671232877 0.675799086757988  3.73059360730594 0.977168949771687  3.32876712328767 1.37899543378995  C 2.92694063926941 1.88127853881278  2.62557077625571 2.28310502283105  2.32420091324201 2.88584474885845  C 2.12328767123288 3.38812785388128  2.02283105022831 3.99086757990868  2.02283105022831 4.59360730593607  C 2.02283105022831 5.19634703196347  2.12328767123288 5.79908675799087  2.32420091324201 6.3013698630137  C 2.42465753424658 6.50228310502283  2.52511415525114 6.70319634703196  2.62557077625571 6.9041095890411  C 1.92237442922374 7.40639269406392  1.21917808219178 8.00913242009132  0.616438356164384 8.71232876712329  L 0.415525114155251 8.91324200913242  L 0.415525114155251 17  L 19 17  L 19 1.57990867579908  Z M 3.73059360730594 6.10045662100457  C 3.63013698630137 6  3.63013698630137 5.89954337899543  3.5296803652968 5.79908675799087  C 3.32876712328767 5.3972602739726  3.22831050228311 4.99543378995434  3.22831050228311 4.59360730593607  C 3.22831050228311 4.19178082191781  3.32876712328767 3.78995433789954  3.5296803652968 3.38812785388128  C 3.73059360730594 2.98630136986301  3.93150684931507 2.68493150684931  4.23287671232877 2.38356164383562  C 4.53424657534247 2.08219178082192  4.83561643835616 1.88127853881278  5.23744292237443 1.68036529680365  C 5.63926940639269 1.47945205479452  6.04109589041096 1.37899543378995  6.44292237442922 1.37899543378995  C 6.84474885844749 1.37899543378995  7.24657534246575 1.47945205479452  7.64840182648402 1.68036529680365  C 8.05022831050228 1.88127853881278  8.35159817351598 2.08219178082192  8.65296803652968 2.38356164383562  C 8.85388127853881 2.58447488584475  9.05479452054795 2.88584474885845  9.25570776255708 3.18721461187214  C 7.34703196347032 3.89041095890411  5.43835616438356 4.89497716894977  3.73059360730594 6.10045662100457  Z M 1.62100456621005 15.7442922374429  L 1.62100456621005 15.6438356164384  L 1.62100456621005 9.41552511415525  C 2.22374429223744 8.91324200913242  2.82648401826484 8.41095890410959  3.42922374429224 7.90867579908676  C 3.73059360730594 7.60730593607306  4.1324200913242 7.40639269406392  4.4337899543379 7.10502283105023  C 6.04109589041096 6  7.64840182648402 5.0958904109589  9.45662100456621 4.49315068493151  C 9.85844748858447 4.29223744292237  10.2602739726027 4.1917808219178  10.662100456621 4.09132420091324  C 12.2694063926941 3.58904109589041  13.8767123287671 3.18721461187214  15.4840182648402 3.08675799086758  C 10.662100456621 6  6.94520547945205 10.4200913242009  4.83561643835616 15.7442922374429  L 1.62100456621005 15.7442922374429  Z M 11.9680365296804 15.6438356164384  L 6.34246575342466 15.6438356164384  C 8.35159817351598 10.8219178082192  11.7671232876712 6.80365296803653  16.1872146118721 4.09132420091324  C 13.8767123287671 7.50684931506849  12.4703196347032 11.4246575342466  11.9680365296804 15.6438356164384  Z M 17.7945205479452 3.99086757990867  L 17.7945205479452 15.6438356164384  L 13.2739726027397 15.6438356164384  C 13.7762557077626 11.4246575342466  15.283105022831 7.40639269406392  17.7945205479452 3.99086757990867  Z " fill-rule="nonzero" fill="#168d4b" stroke="none" transform="matrix(1 0 0 1 21 94 )" />
  </g>
</svg>