<?xml version="1.0" encoding="utf-8"?>
<svg version="1.1" xmlns:xlink="http://www.w3.org/1999/xlink" width="13px" height="20px" xmlns="http://www.w3.org/2000/svg">
  <g transform="matrix(1 0 0 1 -21 -210 )">
    <path d="M 2.15 0.200000000000001  C 2.55 0  2.95 0  3.35 0  C 3.85 0  4.25 0.1  4.55 0.2  C 4.95 0.4  5.25 0.600000000000001  5.55 0.9  C 5.85 1.2  6.05 1.5  6.25 1.9  C 6.45 2.3  6.45 2.7  6.45 3.1  C 6.45 3.6  6.35 4.1  6.15 4.5  C 5.95 5  5.65 5.3  5.25 5.6  L 5.25 18.1  C 5.25 18.4  5.25 18.6  5.15 18.8  C 5.05 19  4.95 19.2  4.75 19.4  C 4.55 19.6  4.35 19.7  4.15 19.8  C 3.85 20  3.65 20  3.35 20  C 3.05 20  2.85 20  2.65 19.9  C 2.45 19.8  2.25 19.7  2.05 19.5  C 1.85 19.3  1.75 19.1  1.65 18.9  C 1.55 18.7  1.55 18.4  1.55 18.2  L 1.55 5.6  C 1.15 5.3  0.85 5  0.55 4.5  C 0.35 4.1  0.25 3.6  0.25 3.1  C 0.25 2.7  0.35 2.3  0.45 1.9  C 0.65 1.5  0.85 1.2  1.15 0.900000000000001  C 1.45 0.600000000000001  1.75 0.400000000000001  2.15 0.200000000000001  Z M 4 4.9  L 4.05 4.9  C 4.25 4.8  4.35 4.7  4.55 4.6  C 4.75 4.5  4.85 4.4  4.95 4.2  C 5.05 4.1  5.15 3.9  5.25 3.7  C 5.25 3.6  5.25 3.4  5.25 3.1  C 5.25 2.9  5.25 2.7  5.15 2.5  C 5.05 2.4  5.05 2.2  4.95 2.1  C 4.85 2  4.65 1.8  4.55 1.6  C 4.45 1.4  4.15 1.4  4.05 1.4  L 4.05 3.2  L 3.35 3.8  L 2.75 3.1  L 2.75 1.4  C 2.55 1.4  2.35 1.5  2.25 1.6  C 2.05 1.8  1.95 1.9  1.85 2.1  C 1.75 2.3  1.65 2.4  1.55 2.6  C 1.55 2.7  1.55 2.9  1.55 3.1  C 1.55 3.3  1.55 3.5  1.65 3.7  C 1.75 3.9  1.75 4  1.95 4.2  C 1.95 4.3  2.05 4.5  2.25 4.6  C 2.45 4.7  2.55 4.8  3 4.9  L 3 18.1  C 2.75 18.3  2.85 18.4  2.95 18.5  C 3.05 18.6  3.25 18.7  3.35 18.7  C 3.55 18.7  3.65 18.6  3.75 18.5  C 3.85 18.4  3.95 18.2  4 18.1  L 4 4.9  Z M 12.75 10  L 12.75 11.3  L 11.45 11.3  L 11.45 18.2  C 11.45 18.5  11.45 18.7  11.35 18.9  C 11.25 19.1  11.15 19.3  10.95 19.5  C 10.75 19.7  10.55 19.8  10.35 19.9  C 10.15 20  9.85 20  9.65 20  C 9.35 20  9.15 20  8.95 19.9  C 8.75 19.8  8.55 19.7  8.35 19.5  C 8.15 19.3  8.05 19.1  7.95 18.9  C 7.85 18.7  7.85 18.4  7.85 18.2  L 7.85 11.3  L 6.55 11.3  L 6.55 10  L 9.05 10  L 9.05 4.6  L 7.75 3.4  L 7.75 0  L 11.55 0  L 11.55 3.4  L 10.25 4.6  L 10.25 10  L 12.75 10  Z M 9.05 1.3  L 9.05 2.9  L 9.65 3.5  L 10.25 2.9  L 10.25 1.3  L 9.05 1.3  Z M 10.25 18.2  L 10.25 11.3  L 9.05 11.3  L 9.05 18.2  C 9.05 18.4  9.15 18.5  9.25 18.6  C 9.35 18.7  9.55 18.8  9.65 18.8  C 9.85 18.8  9.95 18.7  10.05 18.6  C 10.15 18.5  10.25 18.3  10.25 18.2  Z " fill-rule="nonzero" fill="#168d4b" stroke="none" transform="matrix(1 0 0 1 21 210 )" />
  </g>
</svg>