<?xml version="1.0" encoding="utf-8"?>
<svg version="1.1" xmlns:xlink="http://www.w3.org/1999/xlink" width="22px" height="10px" xmlns="http://www.w3.org/2000/svg">
  <g transform="matrix(1 0 0 1 -18 -175 )">
    <path d="M 21.5483870967742 8.74193548387097  L 20.5806451612903 8.74193548387097  C 20.4838709677419 8.45161290322581  20.4838709677419 8.25806451612903  20.3870967741935 8.06451612903226  C 20.1935483870968 7.58064516129032  19.9032258064516 7.19354838709677  19.6129032258065 6.90322580645161  C 19.2258064516129 6.61290322580645  18.8387096774194 6.32258064516129  18.4516129032258 6.12903225806452  C 17.9677419354839 5.93548387096774  17.4838709677419 5.83870967741935  17 5.83870967741935  C 16.9032258064516 5.16129032258065  16.7096774193548 4.48387096774194  16.4193548387097 3.90322580645161  C 16.1290322580645 3.32258064516129  15.741935483871 2.83870967741935  15.258064516129 2.35483870967742  C 14.7741935483871 1.96774193548387  14.1935483870968 1.58064516129032  13.6129032258065 1.29032258064516  C 13.0322580645161 1  12.3548387096774 0.903225806451613  11.6774193548387 0.903225806451613  C 11.1935483870968 0.903225806451613  10.7096774193548 1  10.3225806451613 1.09677419354839  C 9.83870967741935 1.29032258064516  9.35483870967742 1.48387096774194  8.96774193548387 1.67741935483871  C 8.58064516129032 1.87096774193548  8.19354838709677 2.16129032258065  7.90322580645161 2.45161290322581  C 7.61290322580645 2.74193548387097  7.32258064516129 3.12903225806452  7.03225806451613 3.51612903225806  C 6.74193548387097 3.41935483870968  6.45161290322581 3.41935483870968  6.16129032258065 3.41935483870968  C 5.48387096774194 3.41935483870968  4.90322580645161 3.51612903225806  4.32258064516129 3.80645161290323  C 3.74193548387097 4.09677419354839  3.16129032258065 4.38709677419355  2.7741935483871 4.87096774193548  C 2.29032258064516 5.35483870967742  2 5.83870967741935  1.70967741935484 6.41935483870968  C 1.41935483870968 7  1.32258064516129 7.58064516129032  1.32258064516129 8.25806451612903  C 1.32258064516129 8.45161290322581  1.32258064516129 8.54838709677419  1.32258064516129 8.74193548387097  L 0.451612903225807 8.74193548387097  L 0.451612903225807 10  L 1.61290322580645 10  L 2.96774193548387 10  L 19.4193548387097 10  L 20.6774193548387 10  L 21.5483870967742 10  L 21.5483870967742 8.74193548387097  Z M 2.58064516129032 8.54838709677419  L 2.58064516129032 8.74193548387097  C 2.58064516129032 8.54838709677419  2.58064516129032 8.45161290322581  2.58064516129032 8.25806451612903  C 2.58064516129032 7.7741935483871  2.67741935483871 7.29032258064516  2.87096774193548 6.80645161290323  C 3.06451612903226 6.32258064516129  3.35483870967742 5.93548387096774  3.64516129032258 5.64516129032258  C 3.93548387096774 5.35483870967742  4.32258064516129 5.06451612903226  4.70967741935484 4.87096774193548  C 5.09677419354839 4.67741935483871  5.58064516129032 4.58064516129032  6.16129032258065 4.58064516129032  C 6.64516129032258 4.58064516129032  7.2258064516129 4.67741935483871  7.61290322580645 4.87096774193548  C 7.80645161290323 4.48387096774194  8 4.09677419354839  8.19354838709677 3.70967741935484  C 8.58064516129032 3.51612903225806  8.87096774193548 3.2258064516129  9.16129032258064 2.93548387096774  C 9.54838709677419 2.74193548387097  9.93548387096774 2.54838709677419  10.3225806451613 2.35483870967742  C 10.7096774193548 2.25806451612903  11.1935483870968 2.16129032258065  11.5806451612903 2.16129032258065  C 12.1612903225806 2.16129032258065  12.741935483871 2.25806451612903  13.2258064516129 2.45161290322581  C 13.7096774193548 2.64516129032258  14.1935483870968 2.93548387096774  14.5806451612903 3.32258064516129  C 14.9677419354839 3.70967741935484  15.258064516129 4.19354838709677  15.4516129032258 4.67741935483871  C 15.6451612903226 5.16129032258065  15.741935483871 5.74193548387097  15.741935483871 6.32258064516129  L 15.741935483871 6.90322580645161  L 17 6.90322580645161  C 17.2903225806452 6.90322580645161  17.6774193548387 7  17.9677419354839 7.09677419354839  C 18.258064516129 7.19354838709677  18.5483870967742 7.38709677419355  18.741935483871 7.58064516129032  C 18.9354838709677 7.7741935483871  19.1290322580645 8.06451612903226  19.2258064516129 8.35483870967742  C 19.2258064516129 8.4516129032258  19.3225806451613 8.4516129032258  19.3225806451613 8.54838709677419  L 2.58064516129032 8.54838709677419  Z " fill-rule="nonzero" fill="#168d4b" stroke="none" transform="matrix(1 0 0 1 18 175 )" />
  </g>
</svg>