<?xml version="1.0" encoding="utf-8"?>
<svg version="1.1" xmlns:xlink="http://www.w3.org/1999/xlink" width="20px" height="27px" xmlns="http://www.w3.org/2000/svg">
  <g transform="matrix(1 0 0 1 -190 -17 )">
    <path d="M 20 23  L 20 20.7  L 17.8 16.2  L 17.8 10.3  C 17.8 6.6  15.2 3.4  11.6 2.6  L 11.6 1.6  C 11.7 0.7  10.9 0  10 0  C 9.1 0  8.3 0.7  8.3 1.7  L 8.3 2.7  C 4.7 3.5  2.1 6.7  2.1 10.4  L 2.1 16.3  L 0 20.7  L 0 23  L 5.4 23  C 5.7 25.3  7.6 27  10 27  C 12.4 27  14.3 25.2  14.6 23  L 20 23  Z M 13.3 22.9  C 13 24.5  11.7 25.7  10 25.7  C 8.3 25.7  7 24.5  6.7 22.9  L 13.3 22.9  Z M 18.8 20.9  L 18.8 21.7  L 1.3 21.7  L 1.3 21  L 3.5 16.5  L 3.5 10.4  C 3.5 7.1  5.9 4.3  9.1 3.9  L 9.6 3.8  L 9.6 1.7  C 9.6 1.5  9.8 1.3  10 1.3  C 10.2 1.3  10.4 1.5  10.4 1.7  L 10.4 3.8  L 11 3.8  C 14.2 4.3  16.6 7.1  16.6 10.3  L 16.6 16.4  L 18.8 20.9  Z " fill-rule="nonzero" fill="#ffffff" stroke="none" fill-opacity="0.996078431372549" transform="matrix(1 0 0 1 190 17 )" />
  </g>
</svg>