<svg xmlns="http://www.w3.org/2000/svg" viewBox="0 0 199.67 67.62"><defs><style>.cls-1{fill:#fff;}.cls-2{fill:#e5db24;}</style></defs><title>Asset 2</title><g id="Layer_2" data-name="Layer 2"><g id="Layer_1-2" data-name="Layer 1"><path class="cls-1" d="M15.44,67.53a19.72,19.72,0,0,1-8-1.52A12.25,12.25,0,0,1,2,61.43,13.94,13.94,0,0,1,0,53.7a14.32,14.32,0,0,1,1.38-6.6,11.74,11.74,0,0,1,3.79-4.38,18.06,18.06,0,0,1,5.56-2.55A37.76,37.76,0,0,1,17.46,39q4-.36,6.46-.78A9,9,0,0,0,27.48,37a2.55,2.55,0,0,0,1.11-2.22v-.15A4.38,4.38,0,0,0,27,31a6.81,6.81,0,0,0-4.37-1.28A8,8,0,0,0,17.83,31a5.65,5.65,0,0,0-2.29,3.55l-13.8-.49a16.34,16.34,0,0,1,3.17-7.66,17.11,17.11,0,0,1,7-5.32,26.93,26.93,0,0,1,10.78-1.95A31,31,0,0,1,31,20.2a20.85,20.85,0,0,1,6.61,3.06A14.07,14.07,0,0,1,42,28.17a13.89,13.89,0,0,1,1.55,6.63V66.73H29.45V60.19h-.37a13.37,13.37,0,0,1-3.19,4,13.08,13.08,0,0,1-4.56,2.48A19.49,19.49,0,0,1,15.44,67.53Zm4.62-9.79a9.58,9.58,0,0,0,4.36-1,7.92,7.92,0,0,0,3.1-2.71,7,7,0,0,0,1.17-4V45.57a9.28,9.28,0,0,1-1.55.61c-.6.18-1.26.36-2,.52s-1.45.31-2.2.43l-2.17.33a13.87,13.87,0,0,0-3.6,1,5.64,5.64,0,0,0-2.26,1.82A4.53,4.53,0,0,0,14.16,53a4.14,4.14,0,0,0,1.67,3.55A7,7,0,0,0,20.06,57.74Z"/><path class="cls-1" d="M58.27,14.28a7.73,7.73,0,0,1-5.44-2.09,6.66,6.66,0,0,1-2.27-5.06,6.64,6.64,0,0,1,2.27-5,8.07,8.07,0,0,1,10.84,0,6.68,6.68,0,0,1,2.24,5.07,6.64,6.64,0,0,1-2.24,5A7.67,7.67,0,0,1,58.27,14.28ZM50.75,66.73v-47h15v47Z"/><path class="cls-1" d="M73.59,66.73v-47H88.11v8.56h.49a12.87,12.87,0,0,1,4.19-6.93,10.64,10.64,0,0,1,6.76-2.28,17.59,17.59,0,0,1,2.14.14,13.27,13.27,0,0,1,2,.41v13a14.43,14.43,0,0,0-2.8-.58,25.66,25.66,0,0,0-3.07-.21A9.79,9.79,0,0,0,93.08,33a8.6,8.6,0,0,0-3.33,3.28,9.59,9.59,0,0,0-1.21,4.91v25.5Z"/><path class="cls-1" d="M151.71,46.85V43.12A29.12,29.12,0,0,0,150,32.86a21.3,21.3,0,0,0-4.71-7.54,19.76,19.76,0,0,0-7.19-4.62A25.93,25.93,0,0,0,129,19.14a24.05,24.05,0,0,0-12.32,3.05,20.89,20.89,0,0,0-8.11,8.5,27,27,0,0,0-2.87,12.74,27.34,27.34,0,0,0,2.86,12.92,19.89,19.89,0,0,0,8.2,8.35,26.13,26.13,0,0,0,12.7,2.92,29,29,0,0,0,10.83-1.88,19.1,19.1,0,0,0,7.57-5.29,17,17,0,0,0,3.74-8L137.82,52a6.63,6.63,0,0,1-1.74,2.63,7.69,7.69,0,0,1-2.78,1.62,11.12,11.12,0,0,1-3.61.55,9.87,9.87,0,0,1-5-1.19,8.23,8.23,0,0,1-3.21-3.35,10.72,10.72,0,0,1-1.13-5v-.4ZM124.76,31.06a9,9,0,0,1,4.5-1.12A8.89,8.89,0,0,1,133.65,31a7.75,7.75,0,0,1,3,2.92,8.45,8.45,0,0,1,1.13,4.25H120.4a8.69,8.69,0,0,1,1.21-4.09A8.53,8.53,0,0,1,124.76,31.06Z"/><path class="cls-2" d="M122.62,15.84h-9.84a11.38,11.38,0,0,1,4.32-9.23q4.31-3.49,11.64-3.49t11.64,3.49a11.21,11.21,0,0,1,4.26,9.23h-9.75a5.39,5.39,0,0,0-1.38-3.67q-1.41-1.65-4.77-1.65t-4.68,1.62A5.6,5.6,0,0,0,122.62,15.84Z"/><path class="cls-1" d="M198.51,34.1l-13.73.37a5.25,5.25,0,0,0-1.17-2.62,6.5,6.5,0,0,0-2.46-1.8,8.67,8.67,0,0,0-3.5-.66,8.81,8.81,0,0,0-4.42,1,3.08,3.08,0,0,0-1.79,2.81,3,3,0,0,0,1.12,2.39,9.28,9.28,0,0,0,4.11,1.62L185.72,39q7,1.35,10.48,4.47a10.7,10.7,0,0,1,3.47,8.25,13.25,13.25,0,0,1-2.86,8.41,18.3,18.3,0,0,1-7.72,5.56,29.82,29.82,0,0,1-11.19,2q-10.07,0-15.86-4.15a15.31,15.31,0,0,1-6.62-11.11L170.19,52a5.78,5.78,0,0,0,2.54,3.92A9.4,9.4,0,0,0,178,57.25a9.16,9.16,0,0,0,4.68-1.07,3.28,3.28,0,0,0,1.83-2.84,3.06,3.06,0,0,0-1.41-2.56,11.41,11.41,0,0,0-4.31-1.51l-8.19-1.56Q163.5,46.42,160,43a11.88,11.88,0,0,1-3.43-8.85A12.83,12.83,0,0,1,159.12,26a15.79,15.79,0,0,1,7.22-5.12,31.17,31.17,0,0,1,11-1.78q9.54,0,15,4A14.39,14.39,0,0,1,198.51,34.1Z"/></g></g></svg>