<?xml version="1.0" standalone="no"?>
<!DOCTYPE svg PUBLIC "-//W3C//DTD SVG 20010904//EN"
 "http://www.w3.org/TR/2001/REC-SVG-20010904/DTD/svg10.dtd">
<svg version="1.0" xmlns="http://www.w3.org/2000/svg"
 width="420.000000pt" height="306.000000pt" viewBox="0 0 420.000000 306.000000"
 preserveAspectRatio="xMidYMid meet">
<metadata>
Created by potrace 1.10, written by Peter Selinger 2001-2011
</metadata>
<g transform="translate(0.000000,306.000000) scale(0.100000,-0.100000)"
fill="#000000" stroke="none">
<path d="M1715 2719 c-74 -9 -144 -29 -212 -63 -29 -14 -69 -26 -89 -26 -19 0
-44 -4 -54 -10 -10 -5 -52 -14 -92 -20 -40 -5 -113 -16 -163 -25 -49 -8 -137
-22 -195 -30 -58 -9 -148 -22 -200 -31 -178 -28 -205 -32 -222 -33 -13 -1 -18
-9 -18 -29 0 -16 -6 -51 -14 -78 -8 -27 -17 -67 -21 -89 -4 -22 -10 -44 -15
-50 -4 -5 -11 -27 -14 -49 -4 -21 -11 -46 -16 -55 -8 -17 -25 -91 -39 -176 -5
-27 -16 -74 -25 -104 -9 -30 -16 -68 -16 -83 0 -16 -4 -37 -9 -47 -5 -9 -12
-39 -15 -65 -3 -27 -10 -54 -15 -60 -4 -6 -11 -38 -15 -70 -4 -33 -11 -65 -16
-71 -5 -6 -12 -34 -16 -63 -8 -63 6 -73 62 -43 21 12 44 21 50 21 10 0 56 19
94 39 9 5 31 12 50 16 19 4 40 11 45 15 6 4 42 18 80 30 67 22 87 30 167 64
20 9 40 16 46 16 5 0 23 7 38 15 16 8 36 15 45 15 8 0 19 4 25 8 5 5 56 26
114 47 58 21 109 42 114 47 6 4 19 8 31 8 11 0 37 9 58 20 20 11 46 20 56 20
11 0 22 4 26 9 3 5 19 12 36 16 17 4 42 13 57 21 15 8 34 14 43 14 8 0 19 4
25 8 5 4 34 18 65 30 l55 22 90 -41 c86 -40 146 -66 209 -93 17 -7 46 -20 65
-29 33 -15 113 -49 155 -66 38 -15 120 -52 137 -62 25 -13 212 -10 283 5 33 7
65 11 70 9 39 -14 58 -125 30 -173 -8 -14 -14 -36 -15 -50 0 -14 -6 -35 -14
-46 -40 -56 -31 -146 18 -194 l34 -33 -6 -84 c-4 -67 -2 -87 11 -101 14 -15
15 -42 11 -189 -4 -147 -2 -172 11 -177 21 -8 53 47 60 104 3 25 11 61 17 80
6 19 12 71 13 115 2 60 8 95 27 139 21 48 24 65 16 88 -16 46 7 243 32 273 6
7 14 67 18 132 l7 118 113 3 112 3 0 -24 c0 -16 16 -40 45 -68 44 -43 45 -45
45 -107 0 -49 -5 -70 -20 -89 -26 -33 -26 -90 0 -118 24 -26 27 -56 9 -117
-10 -38 -11 -59 -1 -110 12 -61 4 -273 -14 -380 -6 -34 -4 -38 21 -44 17 -4
30 -2 35 5 4 7 10 90 14 184 3 95 9 182 12 194 8 30 32 30 36 1 2 -13 8 -23
13 -23 6 0 11 40 11 96 1 58 7 106 15 120 9 16 14 75 16 178 2 84 7 170 12
190 4 20 4 45 0 56 -16 42 -11 55 24 55 53 0 57 -10 57 -160 0 -90 4 -140 12
-148 6 -6 11 -27 10 -46 -1 -19 3 -38 8 -41 6 -4 7 -17 4 -31 -5 -18 -2 -24
11 -24 13 0 16 6 12 21 -3 12 1 32 9 44 8 13 19 70 25 136 5 63 14 130 19 149
6 19 10 58 10 87 l0 52 42 -2 42 -2 21 68 c27 90 49 114 111 122 27 3 78 12
114 20 36 8 85 18 110 21 49 8 106 29 114 43 3 4 -1 29 -10 54 -11 32 -29 56
-61 81 -26 20 -52 36 -58 36 -19 0 -35 24 -26 38 4 7 37 16 72 20 60 7 64 9
67 34 6 48 -51 115 -123 147 -12 5 -30 25 -40 45 -27 50 -107 102 -169 110
-42 5 -55 13 -100 60 -52 54 -53 54 -128 61 -121 11 -224 -7 -347 -63 -43 -19
-59 -22 -73 -13 -10 6 -57 11 -105 11 -78 0 -95 3 -143 29 -35 18 -79 31 -120
36 -36 4 -85 14 -110 22 -35 12 -80 14 -222 10 -98 -3 -180 -1 -183 4 -3 4
-24 13 -45 19 -22 6 -40 15 -40 20 0 6 -10 10 -22 10 -13 0 -36 7 -51 15 -15
8 -45 17 -65 21 -20 4 -41 10 -47 14 -15 11 -182 17 -250 9z m220 -74 c22 -8
49 -15 61 -15 11 0 29 -7 40 -15 10 -8 31 -15 46 -15 15 0 45 -9 67 -21 l39
-20 -5 -53 -6 -53 58 -57 c32 -31 72 -63 89 -70 17 -8 39 -20 49 -28 17 -12
17 -16 3 -43 -9 -17 -13 -38 -10 -48 3 -10 -1 -19 -9 -23 -9 -3 -41 21 -84 65
-39 39 -75 71 -80 71 -23 0 -34 -27 -22 -54 7 -14 16 -26 21 -26 4 0 59 -47
122 -105 124 -114 199 -205 190 -229 -7 -18 26 -37 52 -30 11 3 40 0 64 -6 25
-6 83 -13 130 -16 113 -7 240 -46 275 -84 33 -36 55 -92 44 -111 -9 -17 -25
-19 -172 -21 -249 -2 -285 -4 -382 -16 -148 -19 -198 -16 -272 18 -35 16 -75
33 -89 36 -13 3 -27 10 -30 15 -3 5 -14 9 -24 9 -11 0 -46 13 -77 29 -51 26
-109 52 -178 80 -39 16 -121 53 -168 77 -56 28 -84 30 -124 10 -15 -8 -46 -22
-68 -31 -22 -9 -48 -20 -57 -25 -10 -6 -26 -10 -36 -10 -9 0 -34 -9 -55 -20
-20 -11 -44 -20 -52 -20 -8 0 -38 -11 -67 -24 -29 -13 -82 -34 -118 -46 -72
-25 -126 -46 -152 -60 -10 -6 -24 -10 -33 -10 -12 0 -67 -22 -125 -50 -9 -4
-30 -11 -48 -14 -17 -4 -34 -12 -37 -17 -4 -5 -14 -9 -23 -9 -9 0 -29 -6 -44
-14 -15 -8 -40 -17 -57 -21 -17 -4 -33 -11 -36 -16 -4 -5 -14 -9 -23 -9 -9 -1
-35 -9 -57 -20 -22 -11 -48 -19 -57 -20 -9 0 -19 -4 -23 -10 -3 -5 -22 -14
-42 -19 -41 -12 -58 0 -43 30 5 9 21 70 35 135 14 65 30 135 35 154 4 19 13
60 19 90 6 30 18 84 27 120 8 36 18 83 23 105 4 22 12 56 18 75 15 47 32 114
44 175 14 65 35 104 62 114 12 5 56 12 97 16 41 4 100 13 130 21 30 8 75 14
100 14 26 0 50 3 54 8 4 4 47 12 94 19 101 14 246 37 317 52 28 5 70 10 95 10
29 1 66 12 105 31 33 16 67 30 75 30 8 0 24 7 34 15 27 20 215 20 271 0z m488
-98 c32 -1 47 -6 47 -15 0 -7 4 -22 10 -32 10 -18 12 -18 53 5 32 19 52 23 79
19 32 -6 38 -11 45 -41 10 -41 27 -48 31 -13 6 46 11 54 27 40 8 -7 15 -21 15
-31 0 -25 17 -24 30 1 15 28 40 25 66 -7 20 -24 25 -26 43 -16 13 8 22 9 26 3
3 -6 17 -10 29 -10 13 0 29 -7 37 -16 12 -14 14 -14 24 0 16 21 94 17 109 -6
8 -13 6 -22 -8 -37 -23 -25 -66 -31 -46 -6 6 8 8 20 4 26 -5 9 -11 7 -20 -6
-9 -12 -20 -16 -38 -11 -22 5 -26 3 -26 -14 0 -15 -7 -20 -24 -20 -14 0 -28
-4 -31 -10 -3 -5 -20 -9 -37 -7 -26 2 -33 -2 -38 -23 -7 -29 -43 -35 -48 -7
-2 12 3 17 17 17 24 0 28 22 7 39 -10 9 -16 8 -26 -4 -7 -9 -21 -13 -30 -10
-9 3 -23 -1 -30 -10 -7 -8 -19 -15 -26 -15 -8 0 -14 -6 -14 -13 0 -9 -21 -17
-57 -23 -49 -8 -58 -12 -61 -31 -3 -21 0 -23 47 -23 39 0 56 5 77 25 31 28 52
32 59 10 17 -53 15 -52 35 -27 11 13 24 21 29 18 5 -3 14 0 20 8 7 8 44 16 96
21 76 6 87 5 111 -14 19 -15 31 -18 44 -11 13 7 21 5 30 -5 9 -11 7 -16 -9
-25 -29 -15 -27 -46 4 -54 15 -4 25 -14 25 -25 0 -10 9 -28 20 -41 11 -13 20
-31 20 -40 0 -9 14 -29 30 -45 29 -28 31 -29 80 -16 52 13 70 9 70 -14 0 -23
72 -64 102 -58 46 9 61 -8 63 -71 2 -31 -1 -56 -6 -56 -5 0 -9 -7 -9 -15 0
-25 28 -17 52 15 19 26 23 28 38 15 9 -8 25 -12 36 -9 11 3 26 -1 32 -9 9 -11
7 -16 -12 -25 -22 -10 -36 -45 -40 -97 -1 -15 -8 -20 -31 -21 -16 0 -39 -4
-49 -9 -13 -6 -22 -3 -30 7 -10 13 -14 14 -30 3 -23 -17 -13 -35 20 -35 27 0
31 -20 13 -67 l-11 -28 -14 26 c-16 32 -76 69 -110 69 -51 0 -97 -55 -63 -76
6 -3 9 -18 6 -33 -3 -15 -2 -33 3 -41 6 -10 4 -21 -7 -32 -11 -12 -13 -27 -9
-51 5 -25 2 -38 -9 -47 -22 -19 -28 -8 -28 55 0 30 -4 55 -8 55 -5 0 -9 7 -9
16 0 9 -16 32 -36 50 -36 34 -42 68 -14 70 8 1 21 2 28 3 13 1 17 37 4 45 -17
10 -52 -7 -52 -25 0 -21 -15 -25 -25 -8 -4 5 0 18 9 28 22 24 21 34 -16 88
-58 84 -138 143 -194 143 -41 0 -71 18 -79 47 -7 28 -7 28 -18 6 -8 -18 -18
-23 -46 -23 -48 0 -67 12 -46 30 23 19 18 32 -12 28 -20 -2 -29 -9 -31 -25 -4
-28 -32 -30 -55 -5 -12 13 -14 21 -6 29 20 20 -1 36 -22 17 -16 -15 -19 -15
-24 -1 -4 8 -16 18 -28 22 -22 6 -22 6 -1 15 51 21 73 108 25 102 -45 -5 -76
-26 -86 -60 -11 -38 -42 -41 -38 -4 2 16 -4 25 -22 32 -36 14 -31 30 9 30 19
0 37 4 40 9 7 11 -17 21 -50 21 -28 0 -30 7 -9 30 14 15 14 19 1 29 -14 11
-13 16 0 36 28 42 15 67 -51 99 -56 28 -110 77 -110 100 0 6 10 12 23 14 12 2
22 8 22 13 0 12 -42 1 -51 -14 -12 -17 -39 1 -39 27 0 15 12 34 32 51 26 22
37 26 67 20 20 -4 57 -8 84 -8z m1121 -31 c57 -12 89 -36 72 -53 -16 -17 -325
-31 -383 -18 -33 7 -44 23 -20 29 6 2 35 11 62 20 28 9 70 16 95 17 25 0 54 4
65 9 27 11 39 11 109 -4z m226 -121 c36 -8 90 -42 90 -57 0 -4 -30 -8 -66 -8
-36 0 -74 -5 -85 -11 -11 -5 -52 -13 -92 -16 -40 -3 -96 -12 -125 -20 -63 -17
-176 -21 -194 -6 -27 23 -115 49 -149 45 -23 -2 -39 1 -47 11 -11 12 -7 19 18
37 30 21 39 22 143 17 72 -4 144 -1 202 7 92 14 242 14 305 1z m163 -144 c61
-32 77 -46 77 -68 0 -23 -27 -33 -102 -37 -21 -1 -42 -6 -46 -12 -4 -5 -74
-10 -162 -10 -113 0 -172 -5 -216 -17 -34 -9 -98 -17 -144 -18 -70 -1 -85 2
-102 19 -53 52 18 102 143 102 39 0 80 5 91 11 11 6 57 13 102 16 44 3 90 10
100 15 25 13 152 27 194 20 18 -2 47 -12 65 -21z m-730 -43 c-22 -21 -64 -28
-70 -11 -3 7 7 24 22 39 25 25 27 25 46 8 19 -17 19 -18 2 -36z m607 -146 c30
-4 64 -13 75 -19 11 -6 34 -17 51 -23 40 -15 107 -75 102 -92 -3 -7 -38 -21
-79 -30 -41 -9 -102 -24 -137 -32 l-63 -16 -33 35 c-27 28 -41 35 -71 35 -31
0 -44 7 -74 40 -34 37 -40 39 -100 42 -36 2 -66 8 -68 13 -8 27 17 37 103 42
49 3 94 8 101 12 15 8 122 4 193 -7z m-1267 -38 c8 -8 -3 -34 -14 -34 -5 0 -9
9 -9 20 0 19 11 26 23 14z m192 -473 c18 -10 34 -30 40 -49 5 -18 15 -32 22
-32 16 0 13 -105 -4 -135 -6 -11 -14 -60 -18 -110 -4 -49 -10 -94 -14 -100 -3
-5 -6 -18 -6 -27 0 -10 -4 -17 -10 -16 -17 3 -36 71 -31 108 3 19 1 42 -4 50
-7 11 -11 9 -19 -13 -12 -30 -23 -34 -41 -12 -10 12 -6 23 19 60 17 25 31 57
31 70 0 13 5 27 10 30 7 4 7 12 0 24 -6 12 -5 29 2 49 10 26 9 37 -5 67 -28
59 -23 66 28 36z m554 -313 c0 -35 -4 -72 -9 -83 -8 -20 -8 -20 -15 0 -3 11
-11 27 -16 35 -20 32 -22 43 -10 59 6 9 14 24 17 34 4 9 13 17 20 17 11 0 14
-16 13 -62z m-515 -204 c4 -9 0 -24 -9 -34 -8 -9 -15 -31 -15 -48 0 -22 -5
-32 -15 -32 -21 0 -20 50 2 95 18 39 28 43 37 19z"/>
<path d="M2310 2525 c0 -11 7 -15 23 -13 12 2 22 8 22 13 0 6 -10 11 -22 13
-16 2 -23 -2 -23 -13z"/>
<path d="M2355 2471 c-7 -12 12 -24 25 -16 11 7 4 25 -10 25 -5 0 -11 -4 -15
-9z"/>
<path d="M2600 2445 c0 -14 5 -25 10 -25 6 0 10 11 10 25 0 14 -4 25 -10 25
-5 0 -10 -11 -10 -25z"/>
<path d="M2682 2211 c-20 -12 -10 -46 13 -46 14 0 21 8 23 28 3 28 -10 35 -36
18z"/>
<path d="M2840 2130 c-8 -5 -25 -10 -37 -10 -13 0 -23 -6 -23 -14 0 -15 27
-26 78 -30 18 -2 42 -13 53 -24 16 -18 31 -22 79 -22 59 0 78 10 63 33 -4 6
-8 21 -8 32 0 11 -7 20 -15 20 -10 0 -14 -8 -12 -23 3 -19 -1 -22 -25 -21 -15
1 -36 -2 -45 -6 -12 -4 -18 -3 -18 5 0 21 -41 70 -58 70 -9 0 -24 -5 -32 -10z"/>
<path d="M2937 2114 c-13 -13 -7 -24 14 -24 11 0 19 5 17 12 -5 14 -22 21 -31
12z"/>
<path d="M2700 2077 c0 -8 9 -22 19 -31 19 -17 20 -17 31 3 6 12 8 26 5 31 -9
15 -55 12 -55 -3z"/>
<path d="M3086 2001 c-3 -5 -33 -7 -66 -4 -51 5 -60 3 -60 -11 0 -11 9 -16 30
-16 17 0 30 -3 30 -7 0 -5 4 -15 10 -23 7 -12 12 -12 29 4 19 17 25 18 61 6
41 -13 57 -10 45 9 -3 6 -17 8 -31 5 -20 -5 -24 -2 -24 14 0 23 -15 37 -24 23z"/>
<path d="M3379 1857 c-15 -12 -29 -31 -31 -42 -2 -13 -11 -20 -26 -19 -12 0
-22 -3 -22 -7 0 -5 -9 -17 -21 -28 -12 -11 -19 -28 -17 -40 4 -29 22 -28 28 1
7 29 32 34 65 12 24 -16 25 -19 11 -29 -25 -19 -19 -35 13 -35 22 0 30 6 35
25 7 27 -8 65 -24 65 -19 0 -10 25 13 36 16 7 28 7 40 0 21 -13 33 -1 18 18
-7 8 -11 25 -9 38 4 32 -38 35 -73 5z"/>
<path d="M3205 1767 c-4 -10 -5 -21 -1 -24 10 -10 18 4 13 24 -4 17 -4 17 -12
0z"/>
<path d="M1210 1308 c0 -2 -2 -86 -3 -188 -2 -102 -7 -193 -11 -202 -12 -27
18 -33 143 -30 l110 3 47 43 c35 31 51 55 61 91 14 52 15 55 9 95 -8 60 -20
89 -51 123 -19 21 -38 37 -43 37 -5 0 -15 7 -22 15 -10 12 -37 15 -126 15 -63
0 -114 -1 -114 -2z m231 -105 c10 -8 21 -42 27 -81 10 -71 0 -115 -33 -142
-18 -15 -102 -30 -122 -23 -10 4 -13 39 -13 134 0 107 3 129 16 137 20 11 103
-5 125 -25z"/>
<path d="M3463 1064 c-3 -8 -1 -20 5 -26 16 -16 42 -2 42 22 0 24 -38 28 -47
4z"/>
<path d="M2670 464 c-6 -14 -10 -53 -10 -87 -1 -35 -7 -73 -15 -87 -23 -41
-19 -79 10 -90 15 -6 34 -6 49 -1 20 8 25 20 35 87 8 53 8 81 1 88 -5 5 -10
28 -10 51 0 63 -41 90 -60 39z"/>
</g>
</svg>
