<?xml version="1.0" standalone="no"?>
<!DOCTYPE svg PUBLIC "-//W3C//DTD SVG 20010904//EN"
 "http://www.w3.org/TR/2001/REC-SVG-20010904/DTD/svg10.dtd">
<svg version="1.0" xmlns="http://www.w3.org/2000/svg"
 width="708.000000pt" height="654.000000pt" viewBox="0 0 708.000000 654.000000"
 preserveAspectRatio="xMidYMid meet">
<metadata>
Created by potrace 1.10, written by Peter Selinger 2001-2011
</metadata>
<g transform="translate(0.000000,654.000000) scale(0.100000,-0.100000)"
fill="#000000" stroke="none">
<path d="M5687 6317 c-93 -87 -97 -94 -97 -133 0 -38 -5 -45 -67 -100 -36 -32
-102 -93 -147 -134 -45 -41 -112 -102 -150 -135 -37 -33 -87 -78 -110 -100
-46 -44 -110 -104 -266 -245 -260 -236 -568 -524 -802 -749 -81 -78 -146 -167
-163 -223 -4 -12 -11 -27 -15 -33 -4 -5 -15 -49 -25 -96 -26 -133 -13 -256 40
-375 l26 -59 -57 -50 c-32 -27 -87 -78 -123 -112 -57 -55 -71 -63 -104 -63
-35 0 -52 -11 -155 -101 -65 -55 -121 -110 -125 -122 -17 -44 -27 -120 -18
-131 27 -33 1 -96 -39 -96 -10 0 -23 -7 -30 -15 -7 -8 -18 -15 -25 -15 -8 0
-22 -10 -32 -23 -10 -12 -40 -40 -67 -62 -65 -53 -107 -96 -137 -139 -13 -20
-31 -36 -41 -36 -9 0 -32 -24 -51 -52 -31 -47 -45 -66 -87 -115 -5 -7 -10 -16
-10 -20 0 -5 -16 -32 -35 -62 -19 -29 -35 -59 -35 -67 0 -8 -4 -14 -8 -14 -8
0 -52 -91 -52 -107 0 -3 -6 -14 -14 -22 -7 -9 -16 -42 -19 -74 -5 -47 -3 -59
10 -64 22 -9 44 25 41 63 -1 18 5 47 14 66 9 18 26 53 38 78 23 48 27 56 80
140 19 30 38 63 42 73 4 9 12 17 18 17 5 0 10 5 10 10 0 41 372 410 412 410 4
0 8 7 8 15 0 18 41 20 58 3 23 -23 12 -47 -35 -80 -54 -36 -155 -136 -223
-217 -25 -30 -53 -62 -62 -70 -20 -17 -24 -46 -7 -57 10 -6 69 42 69 56 0 4
25 33 55 65 30 33 57 67 61 77 3 10 10 18 15 18 5 0 40 32 79 70 39 39 76 70
83 70 18 0 57 -38 57 -55 0 -8 -5 -15 -11 -15 -13 0 -95 -89 -129 -141 -8 -12
-23 -29 -32 -38 -10 -8 -18 -23 -18 -32 0 -9 -11 -28 -25 -43 -14 -15 -35 -48
-46 -74 -12 -26 -33 -61 -46 -79 l-24 -32 21 -11 c24 -13 40 -6 40 19 0 10 8
27 18 39 10 11 27 38 38 59 10 21 22 40 27 41 4 2 7 8 7 12 0 13 57 97 105
155 23 28 51 67 64 88 26 43 48 47 80 13 17 -18 38 -26 81 -31 71 -8 80 -4
185 87 134 117 145 128 145 159 0 20 11 38 37 61 21 18 78 72 128 120 49 48
98 88 108 88 10 0 32 -7 49 -16 59 -31 185 -54 290 -54 114 0 182 15 298 68
25 11 50 21 57 23 10 4 164 141 222 200 14 14 33 30 43 35 9 5 34 25 55 44 21
19 74 67 118 106 44 38 91 81 105 94 14 14 93 88 175 166 147 138 224 209 381
350 169 151 210 188 225 203 9 9 40 36 69 61 29 25 60 52 69 60 9 8 52 44 96
80 44 35 83 70 88 77 4 7 24 15 45 18 20 3 48 8 61 11 29 6 230 200 237 229 6
25 -12 142 -33 210 -15 50 -26 77 -60 150 -24 52 -103 186 -120 203 -7 8 -26
30 -40 50 -130 175 -381 366 -558 424 -71 23 -203 48 -254 48 l-56 0 -98 -93z
m303 13 c8 -4 32 -11 54 -14 40 -8 47 -10 106 -41 92 -47 128 -68 165 -98 22
-18 56 -43 75 -55 148 -99 366 -399 406 -557 4 -16 13 -40 20 -54 8 -14 14
-38 14 -53 0 -15 5 -30 10 -33 6 -3 10 -25 10 -47 0 -38 -6 -47 -91 -133 -56
-57 -101 -95 -117 -98 -73 -14 -107 -28 -136 -55 -17 -16 -44 -39 -61 -51 -31
-23 -135 -115 -234 -207 -31 -28 -72 -64 -91 -80 -19 -16 -51 -46 -71 -66 -42
-43 -56 -47 -61 -16 -2 15 -13 24 -35 30 -18 5 -33 13 -33 17 0 5 -15 13 -32
16 -18 4 -42 14 -53 21 -11 8 -36 14 -56 14 -20 0 -50 7 -65 15 -17 8 -55 15
-90 15 -36 0 -74 6 -90 15 -25 13 -83 15 -397 14 -286 -2 -373 -5 -393 -16
-15 -7 -47 -13 -73 -13 -26 0 -56 -7 -67 -15 -11 -8 -42 -14 -74 -15 -31 0
-64 -6 -75 -14 -11 -7 -42 -16 -68 -18 -26 -3 -56 -13 -66 -22 -12 -11 -27
-15 -43 -11 -16 4 -31 0 -47 -14 -13 -12 -31 -21 -40 -21 -67 0 -160 -88 -210
-197 -5 -11 -15 -24 -20 -28 -6 -3 -11 -19 -11 -34 0 -16 -7 -34 -15 -41 -12
-10 -15 -36 -15 -115 0 -106 5 -139 21 -129 5 3 9 58 9 124 0 95 3 119 15 124
8 3 15 14 15 25 0 11 7 26 15 35 8 8 15 19 15 25 0 15 80 132 94 137 7 3 26
-2 42 -11 16 -8 40 -15 54 -15 15 0 31 -5 36 -10 6 -6 41 -13 79 -17 38 -3 80
-12 95 -20 14 -7 34 -13 46 -13 11 0 35 -7 52 -16 27 -13 85 -15 430 -12 275
2 403 6 413 14 8 6 59 14 113 17 54 3 102 10 105 15 3 5 36 11 73 14 37 3 76
13 89 22 13 9 35 16 50 16 15 0 32 7 39 15 14 17 50 20 50 4 0 -6 -16 -25 -36
-42 -73 -63 -144 -135 -144 -146 0 -6 -4 -11 -9 -11 -6 0 -23 -12 -38 -26 -15
-15 -50 -44 -78 -66 -65 -51 -145 -128 -145 -139 0 -5 -7 -9 -15 -9 -8 0 -15
-4 -15 -8 0 -4 -24 -25 -52 -47 -74 -54 -64 -45 -219 -197 -77 -76 -144 -138
-149 -138 -6 0 -10 -5 -10 -10 0 -6 -10 -15 -22 -20 -24 -10 -59 -31 -68 -40
-19 -19 -70 -48 -95 -54 l-30 -8 35 -18 35 -18 -28 -7 c-19 -5 -33 -3 -46 9
-15 13 -45 16 -188 16 -143 0 -172 2 -177 15 -3 9 -18 15 -36 15 -18 0 -33 6
-36 15 -4 8 -16 15 -27 15 -12 0 -34 12 -50 28 -23 21 -31 24 -35 13 -8 -23
-216 -221 -232 -221 -4 0 -13 -13 -20 -30 -16 -39 -41 -38 -64 3 -10 17 -50
63 -87 100 -38 37 -69 71 -69 74 0 10 267 270 285 277 14 5 16 13 11 38 -3 18
-13 36 -21 41 -9 5 -15 23 -15 48 0 52 -24 48 -28 -4 -2 -27 1 -39 12 -43 18
-7 21 -41 7 -63 -8 -12 -11 -8 -16 15 -3 16 -11 38 -17 49 -41 74 -62 309 -34
367 9 17 16 40 16 50 0 18 13 49 41 98 5 8 13 25 19 38 12 27 108 124 335 337
93 88 188 178 211 201 23 22 54 50 69 62 15 12 82 73 149 135 66 62 155 144
196 181 41 38 116 106 165 151 50 45 149 136 220 201 255 231 315 289 315 308
0 16 2 17 16 5 14 -11 18 -10 30 6 20 27 114 28 164 3 19 -10 42 -18 51 -18
17 0 130 -57 139 -70 3 -4 15 -11 28 -14 18 -6 21 -12 16 -28 -5 -18 -3 -20
16 -15 17 4 33 -4 67 -36 86 -80 164 -165 192 -208 15 -24 38 -53 49 -63 32
-28 28 -47 -8 -40 -18 4 -36 1 -45 -6 -10 -9 -51 -13 -120 -14 -96 -1 -106 1
-127 22 -20 20 -23 33 -23 98 0 45 5 78 11 82 19 12 32 74 21 100 -15 34 -34
26 -41 -17 -3 -22 -12 -52 -20 -68 -29 -59 -36 -79 -34 -113 0 -19 7 -44 14
-55 8 -11 14 -26 14 -35 0 -16 4 -19 92 -62 56 -28 114 -30 145 -6 7 6 40 12
74 15 49 5 63 10 66 25 3 10 10 18 17 18 13 0 94 -109 128 -172 13 -24 26 -44
31 -46 4 -2 7 -11 7 -20 0 -9 6 -28 13 -42 8 -15 17 -43 20 -64 6 -35 3 -41
-41 -82 -34 -33 -43 -47 -35 -55 9 -9 16 -8 28 5 9 9 22 16 30 16 38 0 74 128
49 175 -8 15 -14 35 -15 44 -1 35 -117 213 -193 296 -25 28 -48 58 -52 68 -3
9 -10 17 -15 17 -5 0 -9 6 -9 13 0 8 -9 22 -20 32 -11 10 -20 21 -20 26 0 10
-64 73 -119 117 -25 20 -55 46 -66 57 -11 11 -36 31 -55 44 -19 14 -41 33 -48
43 -7 10 -21 18 -31 18 -10 0 -39 11 -65 25 -26 14 -53 25 -60 25 -8 0 -27 7
-42 15 -51 26 -183 13 -209 -21 -14 -18 -14 -18 -15 2 0 23 16 41 84 99 27 22
58 48 69 58 19 16 33 17 102 12 44 -4 87 -10 95 -15z m-468 -1562 c3 -7 37
-13 89 -16 46 -2 89 -9 96 -14 6 -5 37 -12 67 -15 31 -3 56 -9 56 -14 0 -4 19
-9 43 -11 37 -3 42 -6 42 -28 0 -21 -5 -25 -35 -28 -19 -2 -39 -8 -45 -15 -5
-7 -32 -13 -58 -14 -27 -1 -54 -6 -60 -11 -7 -6 -52 -12 -101 -16 -49 -3 -94
-10 -100 -15 -6 -4 -50 -11 -97 -13 -47 -3 -95 -11 -107 -17 -27 -14 -792 -16
-792 -1 0 5 -17 12 -37 15 -21 4 -55 13 -76 21 -20 8 -63 14 -95 14 -32 0 -62
4 -68 9 -5 5 -24 11 -43 13 -44 4 -55 28 -12 28 16 0 32 4 35 9 4 5 29 12 58
16 29 4 59 11 68 16 8 4 36 11 62 14 26 3 50 10 53 16 4 5 30 9 58 9 29 0 65
7 81 15 15 8 47 15 70 16 22 0 61 6 86 13 61 18 756 22 762 4z m430 -177 c-22
-20 -53 -46 -69 -58 -15 -13 -55 -47 -88 -78 -56 -51 -75 -64 -75 -49 0 12
133 139 194 185 71 54 97 54 38 0z m-332 -292 c0 -12 -2 -14 -90 -94 -36 -32
-99 -90 -140 -129 -124 -116 -310 -276 -322 -276 -5 0 -8 7 -8 15 0 8 4 15 10
15 5 0 31 21 58 48 99 95 173 162 180 162 4 0 15 8 23 18 25 27 177 164 202
181 12 9 33 28 47 43 27 29 40 34 40 17z m-590 -538 c0 -12 -20 -25 -27 -18
-7 7 6 27 18 27 5 0 9 -4 9 -9z m-53 -55 c-48 -51 -127 -93 -127 -66 0 6 7 10
15 10 8 0 15 7 15 15 0 8 4 15 10 15 5 0 29 13 52 29 49 33 67 32 35 -3z
m-747 -46 c0 -5 16 -10 35 -10 22 0 38 -6 41 -15 4 -9 19 -15 36 -15 16 0 36
-7 44 -15 13 -12 46 -15 175 -15 144 0 187 -7 143 -24 -9 -3 -82 -6 -163 -6
-114 0 -152 3 -167 15 -10 8 -27 15 -37 15 -10 0 -35 9 -57 20 -22 11 -47 20
-55 20 -16 0 -79 -47 -141 -105 -17 -16 -52 -49 -77 -72 -25 -24 -50 -43 -56
-43 -36 0 14 56 175 195 25 22 51 45 58 52 13 15 46 17 46 3z m-517 -64 c112
-118 187 -210 187 -231 0 -8 -8 -19 -17 -24 -10 -6 -13 -11 -8 -11 6 0 17 -4
25 -10 12 -7 9 -13 -15 -32 -17 -12 -53 -44 -81 -70 -28 -27 -54 -48 -57 -48
-4 0 -7 23 -7 50 0 48 -14 84 -47 118 -7 7 -13 18 -13 23 0 12 -89 101 -122
122 -15 9 -37 17 -48 17 -28 0 -21 -24 9 -28 22 -3 100 -78 101 -97 0 -5 14
-23 30 -39 17 -16 30 -35 30 -42 0 -6 7 -14 15 -18 11 -4 15 -22 15 -73 0 -79
-13 -108 -34 -80 -7 9 -26 17 -42 17 -22 0 -41 12 -73 45 -42 44 -61 49 -61
19 0 -20 -24 -12 -28 9 -2 10 3 17 12 17 24 0 19 37 -6 51 -17 9 -24 9 -33 -5
-7 -9 -17 -16 -24 -16 -21 0 -11 23 22 51 l32 27 -29 13 c-25 12 -30 11 -42
-6 -26 -35 -16 10 11 49 26 38 25 67 -1 45 -23 -19 -30 -1 -12 29 11 18 27 28
47 30 25 3 31 8 31 28 0 13 5 24 10 24 6 0 10 -4 10 -10 0 -21 19 -8 78 50 33
33 65 60 71 60 7 0 35 -25 64 -54z"/>
<path d="M5630 6065 c0 -14 4 -33 9 -43 24 -43 41 -86 41 -102 0 -9 14 -36 30
-58 17 -23 30 -46 30 -50 0 -5 8 -18 18 -30 9 -11 24 -30 32 -42 49 -71 98
-132 158 -195 37 -39 76 -81 87 -95 71 -87 341 -280 392 -280 10 0 24 -5 30
-11 14 -14 65 -8 71 9 2 6 -3 12 -11 12 -8 0 -20 7 -27 15 -7 8 -28 18 -49 21
-35 7 -73 26 -99 51 -7 7 -20 13 -28 13 -8 0 -14 3 -14 8 0 4 -17 16 -37 27
-39 20 -383 355 -383 372 0 9 -9 22 -49 69 -6 7 -18 27 -29 45 -40 73 -57 99
-64 99 -5 0 -8 9 -8 19 0 11 -6 26 -13 33 -8 7 -17 28 -20 46 -7 36 -42 92
-58 92 -5 0 -9 -11 -9 -25z"/>
<path d="M3470 3430 c0 -6 11 -15 25 -20 31 -12 32 -28 3 -32 -12 -2 -23 -9
-26 -15 -6 -19 37 -16 44 2 4 8 12 15 18 15 13 0 56 -53 56 -70 0 -5 3 -10 8
-10 8 0 46 -70 56 -103 3 -10 10 -15 16 -12 19 12 10 57 -20 95 -16 21 -30 43
-30 48 0 22 -101 112 -125 112 -14 0 -25 -5 -25 -10z"/>
<path d="M3822 3296 c-14 -15 -19 -27 -12 -31 5 -3 13 1 16 9 3 9 12 16 20 16
8 0 14 7 14 15 0 21 -11 18 -38 -9z"/>
<path d="M2634 3475 c-4 -9 6 -25 25 -41 17 -14 31 -32 31 -40 0 -20 27 -29
44 -15 12 10 12 18 -1 50 -20 52 -86 82 -99 46z"/>
<path d="M2504 3434 c-9 -37 8 -109 26 -109 10 0 16 13 18 41 5 72 -30 126
-44 68z"/>
<path d="M3498 3008 c-48 -60 -50 -65 -38 -88 16 -29 29 -25 46 15 8 19 19 35
25 35 6 0 8 9 4 20 -4 13 -1 22 9 26 9 3 16 12 16 20 0 27 -28 14 -62 -28z"/>
<path d="M3566 2892 c-3 -6 -1 -14 5 -17 15 -10 25 3 12 16 -7 7 -13 7 -17 1z"/>
<path d="M3392 2818 c-18 -23 -37 -59 -42 -79 -6 -20 -17 -42 -25 -49 -8 -7
-15 -20 -15 -30 0 -10 -7 -23 -16 -30 -19 -17 -14 -64 7 -68 19 -3 63 72 55
93 -2 7 4 21 15 31 10 9 19 25 19 36 0 10 4 18 9 18 5 0 20 20 32 45 20 40 21
47 8 60 -13 13 -19 10 -47 -27z"/>
<path d="M3096 2775 c-14 -13 -26 -31 -26 -40 0 -8 -4 -15 -10 -15 -5 0 -10
-9 -10 -19 0 -11 -4 -22 -9 -26 -11 -6 -61 -108 -61 -124 0 -5 -4 -11 -8 -13
-15 -6 -52 -75 -52 -96 0 -11 -4 -23 -9 -26 -5 -4 -12 -24 -16 -46 -4 -22 -11
-42 -15 -45 -5 -3 -12 -27 -15 -53 -4 -26 -11 -57 -17 -69 -6 -12 -8 -29 -4
-38 5 -15 8 -14 30 2 26 19 38 57 29 91 -3 12 2 33 11 47 9 14 18 38 20 54 2
16 11 37 20 46 9 9 16 25 16 36 0 20 13 48 43 88 9 13 17 32 17 43 0 10 11 36
25 58 14 22 25 45 25 52 1 7 14 29 30 48 17 19 30 40 30 47 0 23 -18 22 -44
-2z"/>
<path d="M2984 2737 c-33 -40 -64 -86 -64 -96 0 -5 -7 -12 -16 -15 -11 -4 -13
-13 -8 -28 3 -13 8 -25 10 -27 14 -16 131 160 119 179 -9 15 -20 12 -41 -13z"/>
<path d="M3095 2548 c-27 -54 -27 -98 0 -98 8 0 18 12 21 28 4 15 14 37 22 49
15 24 10 73 -8 73 -5 0 -21 -23 -35 -52z"/>
<path d="M2847 2513 c-49 -81 -78 -149 -75 -176 4 -41 28 -42 40 -2 5 17 23
58 41 93 28 57 29 64 15 78 -9 9 -18 12 -21 7z"/>
<path d="M3230 2461 c-5 -11 -10 -33 -10 -48 0 -16 -4 -33 -9 -38 -5 -6 -14
-37 -21 -70 -6 -33 -16 -86 -23 -118 -12 -62 -3 -85 29 -73 13 5 15 15 11 46
-3 26 -1 43 9 51 7 6 16 37 20 70 4 33 10 62 15 65 5 2 11 27 15 54 4 28 10
50 15 50 5 0 9 7 9 15 0 22 -47 19 -60 -4z"/>
<path d="M3017 2333 c-4 -3 -7 -18 -7 -33 0 -15 -7 -41 -16 -58 -8 -18 -13
-40 -9 -51 5 -17 -16 -119 -30 -141 -3 -5 -27 -12 -53 -15 -26 -4 -59 -11 -74
-17 -32 -12 -73 10 -82 45 -4 17 -8 19 -18 9 -6 -6 -23 -12 -36 -12 -13 0 -36
-6 -50 -14 -54 -27 -103 -46 -123 -46 -11 0 -49 -20 -83 -45 -35 -25 -70 -45
-79 -45 -8 0 -28 -7 -43 -15 -16 -8 -37 -15 -46 -15 -9 0 -20 -5 -23 -10 -4
-6 -22 -17 -42 -25 -33 -14 -37 -13 -66 9 -45 33 -90 45 -182 48 -82 2 -175
-13 -232 -38 -17 -8 -34 -14 -38 -14 -4 0 -35 -13 -69 -29 -61 -28 -123 -47
-206 -62 -25 -4 -76 -15 -115 -24 -38 -9 -95 -21 -125 -26 -30 -5 -62 -14 -70
-18 -9 -5 -40 -12 -70 -15 -30 -4 -64 -11 -75 -16 -11 -4 -47 -14 -80 -20 -80
-16 -171 -36 -220 -49 -22 -6 -56 -11 -76 -11 -21 0 -42 -7 -51 -17 -14 -16
-28 -95 -42 -228 -2 -22 -11 -98 -20 -170 -9 -71 -23 -184 -31 -250 -8 -66
-22 -174 -30 -240 -40 -310 -44 -380 -19 -389 14 -5 97 27 114 44 3 3 27 16
55 30 27 14 67 35 87 48 21 12 75 42 121 66 132 70 198 106 258 142 31 19 59
34 63 34 3 0 35 18 71 40 36 22 72 40 80 40 7 0 17 5 20 10 4 6 21 17 38 26
65 31 132 66 137 73 5 7 37 24 145 81 51 26 94 40 158 49 82 12 91 12 160 -9
39 -12 81 -26 92 -31 11 -4 36 -11 55 -15 19 -3 41 -10 50 -14 33 -16 146 -52
225 -71 22 -6 44 -14 49 -20 6 -5 18 -9 27 -9 9 0 22 -7 30 -16 11 -13 37 -15
183 -11 94 2 248 9 341 16 94 6 224 12 290 14 l120 2 -1 62 c0 36 -7 69 -14
78 -12 14 -11 18 1 26 8 5 22 9 31 9 9 0 19 4 22 9 3 5 26 12 51 15 24 4 47
11 50 15 2 5 23 11 45 15 23 3 49 10 58 15 9 5 51 19 92 31 41 13 89 29 107
37 17 7 40 13 51 13 11 0 33 7 48 15 16 8 36 15 45 15 9 0 30 7 45 15 16 8 41
15 57 15 15 0 27 5 27 10 0 6 9 10 20 10 10 0 39 6 62 14 24 8 69 22 100 31
31 10 59 24 63 33 10 26 -42 89 -113 135 -44 29 -54 54 -24 63 20 7 61 23 81
33 8 4 17 13 19 19 6 18 -82 99 -117 107 -17 3 -33 11 -36 16 -4 5 -18 9 -31
9 -17 0 -37 13 -57 36 -18 20 -59 54 -91 75 -48 31 -69 39 -107 39 -26 0 -54
6 -61 13 -43 44 -71 52 -168 51 -67 -1 -105 -6 -127 -18 -48 -24 -107 -21
-130 7 -21 27 -95 67 -123 67 -10 0 -22 5 -25 11 -4 5 -17 15 -28 20 -12 5
-41 20 -65 34 -24 13 -60 25 -80 27 -30 2 -38 7 -40 26 -2 13 3 31 12 40 8 10
16 41 17 72 2 34 10 64 21 79 25 33 24 91 0 91 -10 0 -22 -3 -25 -7z m-297
-358 c0 -8 -5 -15 -11 -15 -8 0 -7 -5 2 -16 11 -14 10 -18 -10 -33 -26 -20
-25 -54 0 -59 11 -2 18 7 23 29 5 25 9 30 18 21 20 -20 38 -14 38 13 0 19 6
25 23 26 12 1 29 2 38 3 9 1 24 7 33 15 21 18 141 20 158 3 9 -9 4 -14 -18
-22 -28 -11 -28 -12 -10 -26 11 -8 25 -14 32 -14 7 0 17 -12 22 -27 l10 -28 1
27 c1 15 6 39 12 55 10 28 10 28 27 7 9 -11 34 -31 55 -43 20 -13 37 -27 37
-31 0 -5 10 -15 23 -21 17 -9 20 -9 10 1 -12 13 -7 40 9 40 16 0 78 -52 72
-61 -3 -5 -14 -9 -25 -9 -10 0 -19 -7 -19 -15 0 -8 -9 -19 -20 -25 -29 -15
-25 -40 5 -40 18 0 25 5 25 19 0 28 15 34 70 26 40 -5 50 -11 50 -25 0 -11 -5
-22 -11 -26 -16 -10 5 -26 24 -18 9 3 17 10 17 15 0 5 9 9 19 9 15 0 21 -8 23
-32 2 -28 8 -34 31 -36 27 -3 32 -14 28 -56 -1 -16 4 -18 38 -12 23 3 42 2 46
-4 3 -5 15 -10 25 -10 23 0 26 -5 35 -51 6 -34 5 -37 -21 -43 -15 -4 -33 -15
-40 -24 -9 -12 -16 -14 -24 -6 -14 14 18 74 39 74 8 0 11 3 8 7 -6 6 -87 -16
-87 -24 0 -2 6 -12 12 -23 22 -34 -2 -44 -105 -45 -100 0 -129 11 -119 47 4
17 1 19 -16 14 -15 -5 -22 -2 -27 13 -7 22 -38 36 -55 26 -8 -5 -7 -11 1 -21
14 -17 6 -28 -59 -91 -28 -27 -42 -48 -38 -58 8 -23 20 -18 50 20 16 19 37 35
47 35 15 0 19 7 19 31 0 35 23 36 28 2 2 -14 13 -23 33 -27 16 -3 29 -12 29
-20 0 -25 19 -28 46 -7 26 21 64 28 64 13 0 -4 -23 -22 -50 -40 -47 -31 -52
-32 -72 -17 -30 20 -38 19 -38 -5 0 -11 5 -20 10 -20 6 0 10 -4 10 -10 0 -5
-20 -10 -45 -10 -25 0 -45 5 -45 10 0 6 5 10 10 10 6 0 10 7 10 15 0 11 -9 8
-37 -11 -22 -15 -46 -23 -58 -20 -58 14 -103 17 -109 7 -10 -16 -43 -13 -50 4
-3 9 -18 15 -36 15 -29 0 -41 15 -18 22 17 6 0 28 -22 28 -22 0 -35 -16 -20
-25 17 -11 11 -24 -20 -40 -28 -15 -32 -14 -82 17 -29 17 -61 38 -70 46 -12
10 -29 13 -58 8 -59 -9 -133 29 -225 116 -28 25 -75 63 -105 84 -63 43 -120
101 -120 120 0 8 4 14 8 14 4 0 13 13 19 30 12 31 67 72 88 64 14 -6 89 32
147 75 23 17 50 31 59 31 10 0 21 5 24 10 3 6 19 10 34 10 15 0 36 7 47 15 26
19 74 20 74 0z m-630 -163 c52 -26 55 -29 58 -69 3 -36 12 -51 60 -101 31 -32
78 -68 103 -80 26 -13 64 -39 85 -60 54 -52 142 -120 186 -143 21 -10 55 -19
77 -19 27 0 57 -10 93 -32 54 -32 77 -36 176 -27 34 2 46 -1 53 -14 12 -21 41
-22 77 -3 28 14 74 14 192 1 65 -7 129 8 145 35 3 5 15 10 25 10 10 0 27 10
37 23 23 29 90 70 102 63 5 -3 40 3 77 13 131 36 165 41 272 41 113 -1 181
-14 222 -42 13 -10 30 -18 37 -18 7 0 13 -4 13 -9 0 -5 9 -13 20 -16 11 -3 25
-15 30 -26 10 -17 5 -22 -35 -39 -26 -11 -55 -20 -66 -20 -11 0 -27 -4 -37 -9
-9 -6 -51 -20 -92 -31 -41 -12 -93 -28 -115 -35 -22 -8 -107 -35 -190 -60 -82
-26 -159 -50 -170 -55 -11 -4 -67 -23 -124 -41 l-104 -33 -21 24 c-25 29 -96
78 -147 101 -64 29 -214 49 -336 43 l-112 -5 -112 111 c-134 134 -236 220
-261 220 -12 0 -18 -8 -18 -24 0 -19 13 -33 58 -60 63 -40 102 -70 102 -81 0
-4 29 -37 64 -74 36 -36 83 -90 107 -119 37 -47 45 -53 68 -46 99 27 275 26
361 -2 88 -28 183 -90 215 -139 36 -54 47 -87 33 -97 -7 -4 -69 -8 -138 -8
-69 0 -156 -5 -195 -10 -38 -5 -165 -12 -282 -16 -174 -6 -215 -4 -229 7 -16
13 -52 25 -149 50 -22 6 -47 14 -55 18 -9 5 -31 12 -50 15 -19 4 -44 11 -55
15 -25 10 -132 44 -210 66 -33 10 -66 22 -72 27 -7 6 -34 7 -60 4 -27 -4 -79
-10 -118 -14 -68 -7 -110 -23 -169 -65 -17 -12 -44 -28 -60 -37 -62 -33 -173
-94 -251 -138 -71 -41 -195 -107 -280 -150 -16 -8 -44 -25 -61 -38 -17 -13
-43 -26 -57 -29 -14 -4 -31 -13 -38 -21 -6 -8 -15 -14 -20 -14 -5 0 -31 -14
-58 -30 -50 -31 -150 -87 -208 -117 -40 -20 -68 -11 -58 20 3 12 13 72 20 132
35 280 45 355 54 420 6 39 10 93 11 122 0 29 4 62 10 75 5 13 14 73 20 133 12
130 24 212 33 221 3 4 23 10 44 15 21 5 67 16 103 24 81 20 173 41 265 61 154
32 203 43 270 59 77 17 193 41 270 55 28 5 66 17 85 26 19 10 82 35 140 55 91
33 117 38 195 38 78 0 97 -3 145 -27z m1585 8 c0 -9 -18 -19 -54 -26 -29 -7
-58 -17 -64 -23 -19 -19 -65 -13 -77 10 -14 26 -9 31 43 45 60 17 152 13 152
-6z m249 -88 c54 -37 57 -52 9 -51 -57 1 -101 -7 -170 -30 -78 -26 -104 -26
-136 -1 -14 11 -31 20 -39 20 -21 0 -63 49 -46 54 185 54 311 56 382 8z m176
-120 c56 -21 100 -52 100 -71 0 -6 -19 -15 -42 -22 -24 -6 -48 -15 -54 -20 -6
-5 -35 -6 -65 -2 -30 3 -102 6 -161 5 l-107 -1 -22 31 c-31 43 -17 58 71 80
40 10 76 20 78 23 12 12 151 -4 202 -23z"/>
<path d="M3112 1878 c-17 -17 -15 -44 4 -62 22 -23 54 -20 54 4 0 11 -4 20
-10 20 -5 0 -12 11 -16 25 -7 28 -14 31 -32 13z"/>
<path d="M2840 1795 c0 -14 7 -28 15 -32 22 -8 27 0 19 31 -8 34 -34 34 -34 1z"/>
<path d="M2510 1800 c0 -5 7 -10 15 -10 8 0 15 5 15 10 0 6 -7 10 -15 10 -8 0
-15 -4 -15 -10z"/>
<path d="M2622 1790 c-16 -26 -15 -31 6 -23 29 11 44 43 19 43 -7 0 -18 -9
-25 -20z"/>
<path d="M2778 1773 c-2 -31 -7 -39 -25 -41 -13 -2 -23 -7 -23 -12 0 -7 34
-20 56 -20 17 0 32 42 27 78 -7 45 -31 41 -35 -5z"/>
<path d="M3055 1780 c-4 -6 7 -23 24 -37 17 -15 31 -35 31 -45 0 -27 17 -31
40 -8 26 26 25 37 -2 45 -13 4 -37 18 -55 31 -19 15 -34 20 -38 14z"/>
<path d="M2990 1750 c0 -5 7 -13 16 -18 23 -13 8 -34 -18 -27 -31 11 -64 -2
-76 -30 -18 -39 -15 -62 10 -68 30 -8 52 7 53 35 0 18 6 24 30 26 55 6 91 62
40 62 -16 0 -25 6 -25 15 0 8 -7 15 -15 15 -8 0 -15 -4 -15 -10z"/>
<path d="M3328 1708 c9 -9 15 -9 24 0 9 9 7 12 -12 12 -19 0 -21 -3 -12 -12z"/>
<path d="M2613 1700 c-13 -5 -23 -14 -23 -20 0 -12 40 -13 59 -1 7 5 10 14 7
20 -8 13 -13 13 -43 1z"/>
<path d="M3250 1690 c-11 -7 -7 -10 18 -10 20 0 31 4 27 10 -8 13 -26 13 -45
0z"/>
<path d="M3300 1640 c-23 -17 -23 -19 -7 -26 12 -4 23 0 32 12 28 37 15 45
-25 14z"/>
<path d="M2781 1636 c-15 -18 2 -31 25 -18 13 7 13 10 1 20 -11 10 -17 9 -26
-2z"/>
<path d="M2685 1631 c-3 -5 -1 -12 5 -16 12 -7 30 2 30 16 0 12 -27 12 -35 0z"/>
<path d="M3376 1605 c-21 -19 -36 -38 -34 -42 26 -53 44 -83 49 -83 4 0 12 7
19 15 8 9 22 12 41 8 18 -3 29 -1 29 6 0 6 11 11 24 11 30 0 41 14 22 29 -11
9 -20 6 -42 -14 l-28 -26 -16 21 c-15 19 -18 20 -29 6 -20 -24 -31 -19 -31 14
0 20 5 30 15 30 14 0 35 29 35 49 0 19 -15 12 -54 -24z"/>
<path d="M3476 1613 c-11 -11 -6 -23 9 -23 8 0 15 4 15 9 0 13 -16 22 -24 14z"/>
<path d="M2546 1565 c-3 -8 -12 -15 -21 -15 -17 0 -20 -16 -5 -25 6 -3 13 1
16 9 3 8 14 18 25 21 22 7 26 25 5 25 -8 0 -16 -7 -20 -15z"/>
<path d="M2694 1566 c-12 -36 -8 -71 9 -74 13 -3 17 3 17 27 0 26 4 30 33 33
17 2 31 8 30 13 -4 14 -84 15 -89 1z"/>
<path d="M3170 1565 c0 -8 7 -15 15 -15 8 0 15 7 15 15 0 8 -7 15 -15 15 -8 0
-15 -7 -15 -15z"/>
<path d="M3297 1573 c-12 -11 -8 -23 8 -23 8 0 15 7 15 15 0 16 -12 20 -23 8z"/>
<path d="M2632 1479 c2 -6 8 -10 13 -10 5 0 11 4 13 10 2 6 -4 11 -13 11 -9 0
-15 -5 -13 -11z"/>
<path d="M2961 1462 c-11 -21 -6 -32 16 -32 15 0 18 36 4 45 -6 3 -15 -3 -20
-13z"/>
<path d="M2688 1438 c9 -9 15 -9 24 0 9 9 7 12 -12 12 -19 0 -21 -3 -12 -12z"/>
<path d="M3070 1385 c0 -8 9 -15 20 -15 11 0 20 7 20 15 0 8 -9 15 -20 15 -11
0 -20 -7 -20 -15z"/>
<path d="M1670 1706 c0 -21 21 -31 31 -15 14 22 11 29 -11 29 -11 0 -20 -6
-20 -14z"/>
<path d="M2584 2286 c-11 -18 -13 -30 -6 -43 8 -13 6 -23 -5 -35 -14 -16 -14
-18 0 -24 46 -17 75 24 63 89 -8 43 -28 48 -52 13z"/>
<path d="M2722 2171 c2 -7 7 -12 11 -12 12 1 9 15 -3 20 -7 2 -11 -2 -8 -8z"/>
<path d="M2757 2134 c-11 -11 -8 -44 3 -44 15 0 24 30 13 41 -5 5 -12 6 -16 3z"/>
<path d="M3657 763 c-4 -3 -7 -19 -7 -34 0 -15 -6 -40 -14 -56 -21 -43 -37
-93 -46 -141 -4 -24 -12 -48 -18 -54 -7 -7 -12 -21 -12 -33 0 -11 -9 -33 -19
-49 -26 -39 -17 -56 28 -56 41 0 61 14 61 44 1 45 23 57 96 54 l69 -3 5 -40
c5 -36 8 -40 44 -47 52 -11 67 2 55 47 -5 19 -16 47 -24 62 -8 15 -15 35 -15
44 0 9 -7 22 -15 29 -8 7 -15 24 -15 37 0 14 -6 37 -14 51 -18 36 -37 91 -43
125 -5 25 -8 27 -57 27 -29 0 -56 -3 -59 -7z m83 -138 c0 -13 7 -40 16 -59 23
-48 14 -66 -35 -66 -22 0 -42 4 -45 8 -3 5 -2 32 3 61 12 75 61 120 61 56z"/>
</g>
</svg>
