<?xml version="1.0" standalone="no"?>
<!DOCTYPE svg PUBLIC "-//W3C//DTD SVG 20010904//EN"
 "http://www.w3.org/TR/2001/REC-SVG-20010904/DTD/svg10.dtd">
<svg version="1.0" xmlns="http://www.w3.org/2000/svg"
 width="390.000000pt" height="294.000000pt" viewBox="0 0 390.000000 294.000000"
 preserveAspectRatio="xMidYMid meet">
<metadata>
Created by potrace 1.10, written by Peter Selinger 2001-2011
</metadata>
<g transform="translate(0.000000,294.000000) scale(0.100000,-0.100000)"
fill="#000000" stroke="none">
<path d="M3010 2740 c-19 -10 -62 -26 -95 -35 -33 -9 -74 -23 -92 -31 -17 -8
-38 -14 -46 -14 -9 0 -18 -4 -21 -9 -4 -5 -25 -12 -49 -16 -26 -5 -81 -32
-144 -71 -56 -35 -113 -69 -127 -75 -14 -7 -26 -15 -26 -18 0 -4 -21 -18 -47
-31 -80 -42 -233 -147 -251 -172 -25 -34 -38 -56 -72 -125 -17 -33 -38 -67
-46 -74 -9 -7 -27 -36 -41 -63 -14 -28 -27 -53 -29 -55 -4 -5 -62 -16 -179
-35 -44 -8 -80 -15 -80 -16 0 -1 -36 -8 -80 -16 -44 -7 -118 -20 -165 -28
-101 -18 -238 -41 -370 -62 -52 -8 -133 -22 -180 -30 -47 -7 -122 -19 -167
-26 -45 -7 -85 -16 -89 -20 -4 -5 -23 -8 -41 -8 -53 0 -73 -15 -73 -55 0 -19
-6 -52 -14 -72 -8 -21 -17 -58 -21 -82 -3 -24 -9 -49 -13 -55 -8 -12 -28 -93
-43 -176 -5 -30 -14 -62 -19 -72 -5 -9 -12 -39 -16 -67 -4 -28 -11 -54 -15
-57 -5 -3 -9 -16 -9 -28 0 -13 -6 -46 -14 -72 -19 -63 -35 -134 -48 -209 -5
-33 -13 -64 -18 -70 -16 -21 -19 -62 -6 -80 13 -17 17 -18 57 -5 24 7 48 17
53 22 6 4 21 8 34 8 13 0 38 6 55 14 18 7 66 23 107 35 41 13 84 27 95 31 11
5 54 18 95 31 41 12 80 25 85 29 6 4 26 11 45 14 19 4 44 11 55 15 44 18 92
33 128 42 21 5 45 13 55 18 9 5 51 19 92 31 41 13 84 26 95 31 11 4 52 18 90
29 39 12 79 26 90 30 11 5 54 18 95 31 41 12 79 25 85 30 5 5 16 9 25 9 20 0
148 37 171 50 9 5 34 12 55 16 22 3 44 10 49 14 34 25 210 28 440 9 66 -5 226
-17 355 -25 129 -8 258 -17 285 -20 47 -5 52 -4 80 28 37 40 144 174 165 204
19 27 89 115 138 173 47 56 63 75 82 99 35 45 107 126 128 146 13 11 32 40 42
63 17 38 18 54 10 131 -6 48 -15 168 -21 267 -15 249 -20 298 -30 311 -5 7
-31 15 -57 19 -26 4 -51 10 -57 15 -5 4 -28 11 -50 15 -22 4 -44 10 -50 15 -5
4 -29 10 -51 14 -23 3 -54 13 -70 21 -16 8 -39 15 -51 15 -12 0 -25 5 -28 10
-3 6 -16 10 -29 10 -49 0 -86 22 -107 61 -22 44 -37 47 -89 19z m40 -83 c0
-13 -6 -31 -13 -42 -7 -11 -21 -41 -30 -66 -10 -25 -30 -57 -45 -71 -28 -27
-158 -118 -168 -118 -3 0 -20 -12 -39 -26 -24 -18 -35 -36 -40 -65 -4 -21 -11
-41 -16 -45 -5 -3 -9 -14 -9 -26 0 -23 -16 -55 -83 -160 -52 -82 -55 -102 -21
-166 8 -15 14 -38 14 -52 1 -14 7 -36 15 -50 8 -15 14 -53 15 -92 l0 -68 35 0
c20 0 47 7 61 16 20 14 41 16 110 11 46 -2 90 -9 97 -15 26 -21 78 -25 98 -6
10 9 19 20 19 25 0 18 156 181 231 241 l46 36 0 97 c1 55 6 101 12 109 8 9 11
47 9 102 l-3 87 -55 30 c-30 16 -71 43 -90 59 -19 16 -39 32 -45 36 -91 68
-87 62 -80 110 4 25 9 51 12 58 8 22 42 27 68 10 13 -9 35 -16 47 -16 13 0 35
-6 50 -14 15 -8 42 -17 60 -21 18 -4 38 -11 43 -15 6 -5 31 -11 58 -15 26 -4
50 -11 52 -15 3 -5 30 -12 60 -15 30 -4 60 -14 69 -24 14 -16 30 -209 43 -523
l4 -107 -45 -56 c-25 -31 -46 -59 -46 -63 0 -4 -26 -35 -58 -68 -31 -34 -64
-72 -72 -84 -8 -13 -31 -42 -50 -64 -19 -23 -46 -57 -60 -75 -14 -19 -45 -57
-70 -86 -25 -28 -67 -81 -95 -118 -58 -75 -65 -78 -193 -65 -48 5 -132 11
-187 14 -55 3 -156 9 -225 15 -69 5 -206 14 -304 19 -172 10 -182 10 -245 -11
-36 -12 -73 -25 -81 -29 -9 -4 -35 -11 -58 -15 -23 -4 -44 -10 -47 -15 -3 -5
-23 -11 -45 -15 -22 -4 -42 -10 -45 -15 -3 -5 -24 -11 -48 -15 -23 -4 -46 -11
-52 -15 -5 -4 -44 -17 -85 -29 -41 -12 -83 -26 -92 -32 -10 -5 -27 -9 -39 -9
-11 0 -35 -6 -52 -14 -18 -7 -84 -30 -147 -50 -63 -21 -124 -41 -135 -46 -11
-5 -35 -12 -53 -15 -18 -4 -45 -13 -60 -21 -15 -8 -33 -14 -40 -14 -7 0 -20
-4 -30 -9 -9 -5 -51 -19 -92 -31 -41 -12 -84 -25 -95 -29 -11 -5 -74 -25 -140
-46 -66 -21 -129 -42 -140 -46 -85 -38 -104 -27 -80 46 15 43 23 75 46 185 6
30 15 64 20 75 4 11 11 39 14 62 4 24 10 45 15 48 4 3 11 31 15 62 4 32 10 63
15 68 4 6 11 31 14 57 4 26 11 50 16 53 5 3 12 31 16 63 3 31 10 62 14 67 4 6
11 30 15 55 4 25 14 61 22 81 13 35 16 36 86 47 115 17 255 40 347 57 47 8
123 19 170 25 47 6 96 15 110 20 14 5 59 14 100 21 184 27 556 94 580 103 9 4
54 72 100 153 87 150 150 226 218 264 20 11 71 41 113 67 97 59 229 140 277
169 20 13 44 23 53 23 9 0 30 7 45 15 16 8 37 15 46 15 9 0 20 5 23 10 3 6 14
10 23 10 9 0 30 7 46 15 15 8 36 15 45 15 9 0 34 9 56 19 46 21 55 19 55 -12z
m8 -295 c-17 -20 6 -39 26 -23 20 17 65 -15 66 -46 0 -18 6 -23 25 -23 29 0
34 24 9 38 -9 5 -14 14 -10 21 5 8 14 6 31 -6 28 -21 32 -45 10 -63 -8 -7 -15
-20 -15 -30 0 -10 -11 -28 -25 -41 -30 -29 -33 -53 -5 -44 33 11 46 -6 19 -26
-13 -10 -21 -21 -17 -25 4 -4 15 -1 24 7 14 11 18 11 30 -5 9 -14 10 -24 3
-38 -10 -18 -11 -18 -36 2 -33 26 -56 26 -48 1 5 -16 0 -20 -27 -23 -22 -2
-34 -9 -36 -20 -3 -15 4 -18 42 -18 25 0 46 5 46 10 0 20 32 9 60 -21 35 -39
29 -59 -17 -59 -31 0 -34 -2 -23 -15 16 -19 5 -34 -12 -17 -7 7 -20 12 -31 12
-16 0 -18 -5 -12 -40 8 -48 -6 -53 -41 -14 -31 33 -44 23 -44 -32 0 -24 -4
-44 -8 -44 -15 0 -30 22 -25 37 7 17 -24 53 -46 53 -13 -1 -13 -3 3 -15 11 -9
16 -20 12 -31 -3 -9 -1 -23 5 -30 9 -11 8 -19 -5 -32 -9 -10 -16 -26 -16 -35
0 -25 -16 -21 -38 11 -22 28 -21 29 -36 -22 -3 -10 -24 -13 -83 -12 -55 2 -83
-2 -95 -12 -22 -18 -26 -9 -31 63 -2 28 -13 70 -25 94 -27 55 -27 62 -2 84 14
12 20 29 20 57 0 27 5 43 15 46 8 3 17 22 21 42 3 21 13 43 22 50 10 8 17 28
17 55 0 23 7 52 15 65 22 34 125 109 160 117 16 4 30 10 30 14 0 5 9 20 21 34
l20 27 34 -33 c25 -24 31 -35 23 -45z m86 7 c-8 -14 -24 -10 -24 6 0 9 6 12
15 9 8 -4 12 -10 9 -15z m130 -211 c-15 -16 -16 -22 -5 -40 7 -11 10 -22 7
-25 -3 -3 -8 2 -12 11 -3 9 -15 16 -25 16 -12 0 -19 7 -19 20 0 13 7 20 20 20
16 0 20 7 20 33 0 46 13 55 23 17 6 -25 4 -37 -9 -52z m-3 -141 c-8 -8 -11 -5
-11 9 0 27 14 41 18 19 2 -9 -1 -22 -7 -28z m-170 -220 c-13 -13 -26 -3 -16
12 3 6 11 8 17 5 6 -4 6 -10 -1 -17z m-51 -46 c0 -23 -16 -36 -25 -21 -9 14 1
40 15 40 5 0 10 -9 10 -19z m-32 -63 c-6 -18 -28 -21 -28 -4 0 9 7 16 16 16 9
0 14 -5 12 -12z"/>
<path d="M2976 2371 c-10 -11 -15 -25 -11 -30 9 -16 25 -13 25 3 0 8 7 16 15
20 8 3 15 10 15 16 0 17 -26 11 -44 -9z"/>
<path d="M3007 2260 c-28 -33 -47 -39 -47 -15 0 26 -30 29 -60 6 -16 -11 -32
-21 -35 -21 -9 0 -45 -40 -45 -50 0 -5 -7 -10 -15 -10 -8 0 -15 -8 -15 -17 0
-13 3 -14 12 -5 19 19 36 14 46 -15 9 -23 11 -24 11 -7 2 53 48 101 73 76 7
-7 4 -14 -9 -23 -19 -11 -21 -49 -4 -49 13 0 31 24 31 42 0 11 11 23 25 28 14
5 25 15 25 22 0 9 3 8 10 -2 7 -11 5 -18 -5 -26 -20 -15 -19 -31 4 -44 29 -15
34 -13 29 15 -6 31 17 48 43 32 12 -8 26 -6 53 7 44 21 42 40 -5 44 -25 2 -30
0 -19 -7 23 -16 5 -23 -31 -13 -29 7 -34 13 -32 35 2 35 -9 34 -40 -3z"/>
<path d="M2850 2091 c0 -15 42 -41 67 -41 24 0 27 7 17 34 -7 18 -84 23 -84 7z"/>
<path d="M2738 2014 c-9 -8 3 -44 13 -38 11 7 12 44 1 44 -5 0 -11 -3 -14 -6z"/>
<path d="M2907 1993 c-4 -3 -7 -16 -7 -29 0 -17 -7 -23 -35 -28 -19 -4 -37
-11 -41 -17 -9 -16 46 -69 72 -69 31 0 39 17 14 30 -27 14 -26 19 16 64 19 21
34 39 32 41 -10 8 -45 14 -51 8z"/>
<path d="M2999 1972 l-34 -14 39 -19 c49 -23 74 -24 103 -1 22 17 22 17 -26
32 -41 13 -53 14 -82 2z"/>
<path d="M2666 1904 c-4 -10 -2 -22 3 -27 7 -7 13 -5 17 7 4 10 2 22 -3 27 -7
7 -13 5 -17 -7z"/>
<path d="M2788 1873 c-3 -21 -4 -40 -2 -42 5 -6 31 63 27 72 -10 17 -21 4 -25
-30z"/>
<path d="M2930 1895 c0 -8 5 -15 10 -15 6 0 10 7 10 15 0 8 -4 15 -10 15 -5 0
-10 -7 -10 -15z"/>
<path d="M2727 1813 c-12 -11 -8 -23 8 -23 8 0 15 7 15 15 0 16 -12 20 -23 8z"/>
<path d="M2840 1795 c0 -29 15 -33 29 -6 11 20 5 31 -16 31 -7 0 -13 -11 -13
-25z"/>
<path d="M2016 791 c-3 -5 -7 -98 -8 -207 l-2 -199 129 -3 c144 -3 178 7 209
59 27 45 20 84 -21 130 l-37 41 21 17 c47 39 40 119 -14 151 -29 17 -51 20
-153 20 -65 0 -121 -4 -124 -9z m209 -67 c30 -19 33 -61 8 -80 -22 -16 -119
-18 -129 -3 -13 21 -5 73 12 86 25 18 80 16 109 -3z m28 -182 c25 -23 21 -57
-10 -77 -25 -17 -125 -27 -137 -14 -3 3 -9 27 -12 52 -6 41 -4 48 14 54 32 12
125 3 145 -15z"/>
</g>
</svg>
