<?xml version="1.0" standalone="no"?>
<!DOCTYPE svg PUBLIC "-//W3C//DTD SVG 20010904//EN"
 "http://www.w3.org/TR/2001/REC-SVG-20010904/DTD/svg10.dtd">
<svg version="1.0" xmlns="http://www.w3.org/2000/svg"
 width="420.000000pt" height="192.000000pt" viewBox="0 0 420.000000 192.000000"
 preserveAspectRatio="xMidYMid meet">
<metadata>
Created by potrace 1.10, written by Peter Selinger 2001-2011
</metadata>
<g transform="translate(0.000000,192.000000) scale(0.100000,-0.100000)"
fill="#000000" stroke="none">
<path d="M2750 1691 c-8 -5 -30 -12 -49 -16 -19 -4 -41 -13 -48 -19 -7 -6 -18
-16 -25 -21 -7 -6 -34 -27 -59 -48 -47 -38 -76 -45 -110 -27 -13 7 -31 8 -53
1 -25 -6 -42 -5 -61 5 -35 18 -64 18 -85 -1 -30 -27 -85 -30 -116 -6 -15 11
-32 21 -39 21 -7 0 -18 6 -24 14 -14 17 -132 36 -236 38 -55 2 -167 -25 -220
-52 -33 -16 -69 -30 -79 -30 -19 0 -112 -25 -151 -40 -19 -8 -55 -18 -157 -43
-25 -7 -50 -15 -54 -20 -4 -4 -19 -7 -33 -7 -14 0 -39 -7 -55 -15 -15 -8 -33
-15 -40 -15 -6 0 -40 -9 -76 -19 -36 -11 -92 -27 -125 -36 -96 -26 -167 -46
-213 -61 -23 -8 -51 -14 -62 -14 -10 0 -21 -4 -24 -9 -4 -5 -28 -12 -55 -16
-77 -10 -86 -27 -101 -180 -14 -143 -33 -360 -49 -560 -6 -72 -15 -159 -20
-195 -6 -36 -13 -97 -16 -136 -7 -93 2 -101 75 -63 30 16 63 31 72 35 10 3 37
17 60 30 24 13 149 75 278 139 129 64 249 123 265 132 51 28 56 30 220 109 88
42 206 98 262 126 l102 49 45 -20 c25 -12 51 -21 59 -21 7 0 17 -3 20 -6 9 -9
108 -43 127 -44 8 0 27 -6 42 -14 15 -8 42 -17 60 -21 18 -4 38 -11 43 -15 6
-4 25 -11 43 -15 18 -4 45 -13 60 -21 15 -8 33 -14 40 -14 18 0 109 -29 152
-48 37 -16 145 -11 490 24 85 8 216 21 290 29 74 7 136 14 137 14 1 1 7 10 13
21 8 15 6 29 -10 60 -24 47 -20 60 20 60 16 0 31 4 34 9 3 5 27 12 52 16 26 4
54 10 63 15 17 9 152 52 281 90 41 12 89 28 107 36 17 8 38 14 47 14 8 0 25 4
38 9 13 5 64 22 113 37 136 40 152 56 123 119 -12 27 -100 98 -136 109 -12 4
-27 16 -32 26 -9 17 -6 20 15 25 24 5 71 16 88 20 4 2 12 3 17 4 6 0 10 16 10
34 0 33 -16 55 -50 71 -53 24 -98 61 -130 107 -46 68 -103 99 -178 99 -44 0
-61 5 -91 28 -61 47 -103 56 -216 42 -57 -7 -107 -18 -116 -26 -14 -12 -21
-11 -55 14 -22 16 -59 32 -82 36 -24 3 -51 10 -60 15 -61 30 -127 41 -238 41
-66 0 -126 -4 -134 -9z m151 -66 c-1 -15 -24 -12 -29 3 -3 9 2 13 12 10 10 -1
17 -7 17 -13z m-117 -35 c-6 -36 -5 -40 15 -40 13 0 21 6 21 16 0 14 7 15 39
10 31 -5 49 0 95 24 55 30 96 39 96 21 0 -5 -7 -11 -15 -15 -8 -3 -15 -10 -15
-16 0 -15 36 -12 50 5 15 18 81 11 118 -11 27 -18 28 -30 2 -37 -15 -4 -20
-14 -20 -41 0 -43 12 -45 47 -10 27 27 49 26 60 -3 3 -10 13 -26 21 -35 12
-14 12 -20 2 -33 -10 -12 -10 -15 3 -15 8 0 17 6 20 13 3 9 9 7 23 -5 56 -52
81 -67 92 -56 9 9 15 9 25 -1 10 -10 8 -15 -6 -26 -18 -13 -16 -15 21 -40 l40
-26 -22 -22 c-29 -31 -99 -75 -131 -83 -18 -4 -32 -1 -47 12 -20 19 -20 19
-14 -11 5 -26 2 -33 -30 -53 -34 -22 -36 -23 -50 -5 -13 17 -15 17 -28 0 -17
-22 -24 -22 -22 0 2 27 -39 28 -63 2 -16 -18 -24 -20 -33 -11 -7 7 -20 12 -30
12 -9 0 -22 9 -28 20 -13 25 -48 26 -65 3 -11 -15 -15 -15 -29 -4 -9 8 -19 11
-23 7 -4 -3 -17 4 -30 16 -22 20 -24 21 -42 4 -26 -24 -57 -17 -53 12 2 15 -2
22 -14 22 -12 0 -15 -6 -11 -21 7 -26 -37 -46 -61 -27 -26 22 -75 18 -101 -8
-13 -13 -29 -24 -34 -24 -7 0 -7 4 1 12 15 15 16 38 1 38 -7 0 -18 -8 -25 -17
-12 -16 -13 -12 -14 29 0 26 5 50 10 53 19 12 10 41 -21 68 -17 15 -35 27 -40
27 -5 0 -29 20 -52 45 -41 42 -47 45 -95 45 -28 0 -54 5 -57 10 -3 6 -17 10
-29 10 -35 0 -51 24 -31 44 9 9 24 16 34 16 9 0 22 5 27 10 6 6 24 10 40 10
16 0 53 0 82 0 55 -1 66 -10 30 -27 l-23 -11 27 -10 c14 -6 29 -16 33 -22 5
-8 13 -5 26 9 11 12 26 21 34 21 8 0 45 29 81 65 45 44 74 65 91 65 13 0 26 7
29 15 4 9 19 15 40 15 l34 0 -6 -40z m788 -37 c23 -21 14 -33 -26 -33 -18 0
-59 -14 -92 -30 -74 -38 -94 -36 -113 13 -17 46 -8 56 49 57 19 1 53 5 75 10
48 10 84 4 107 -17z m-1562 2 c19 -4 42 -13 50 -20 8 -7 25 -16 38 -19 17 -6
22 -15 22 -41 0 -26 9 -43 34 -69 34 -33 76 -47 150 -47 36 0 86 -25 86 -44 0
-8 19 -29 41 -47 l41 -33 -6 -56 c-5 -53 -4 -58 30 -98 34 -40 38 -41 95 -41
33 0 69 5 80 11 38 20 130 39 157 33 15 -4 34 -12 42 -19 23 -20 63 -25 229
-29 164 -4 201 2 225 39 24 37 105 50 431 73 69 5 110 3 135 -5 19 -7 43 -13
53 -13 25 0 127 -81 127 -100 0 -18 -43 -39 -97 -47 -21 -3 -50 -12 -65 -19
-15 -8 -38 -14 -51 -14 -12 0 -27 -4 -33 -8 -8 -8 -84 -33 -179 -61 -109 -32
-184 -56 -212 -67 -17 -8 -43 -14 -57 -14 -14 0 -26 -4 -26 -9 0 -5 -17 -12
-37 -16 -20 -4 -46 -13 -57 -21 -11 -8 -32 -14 -46 -14 -25 0 -39 8 -104 60
-53 43 -80 57 -126 65 -25 4 -53 11 -62 16 -10 6 -98 11 -195 14 l-178 4 -47
58 c-26 32 -47 62 -48 66 0 4 -10 18 -23 30 -13 12 -33 35 -45 51 -48 62 -162
176 -176 176 -8 0 -20 -8 -25 -18 -8 -15 6 -34 82 -114 84 -87 217 -256 217
-275 0 -5 15 -18 33 -30 27 -18 38 -21 70 -13 49 11 336 -5 350 -19 6 -6 23
-11 37 -11 15 0 46 -13 68 -30 23 -16 45 -30 49 -30 23 -1 119 -108 107 -119
-5 -5 -83 -14 -174 -20 -91 -6 -194 -16 -230 -21 -36 -5 -140 -14 -232 -20
-157 -10 -170 -10 -227 10 -33 11 -66 20 -73 20 -7 0 -25 6 -40 14 -14 8 -45
17 -67 21 -23 4 -43 11 -47 16 -3 5 -14 9 -26 9 -11 0 -34 6 -51 14 -18 8 -63
24 -102 37 -38 12 -79 26 -90 30 -11 4 -51 18 -90 30 -38 13 -71 27 -73 31 -8
19 -51 3 -224 -83 -171 -84 -274 -136 -316 -158 -9 -5 -71 -35 -137 -66 -130
-62 -184 -89 -430 -214 -88 -44 -166 -81 -174 -81 -15 0 -12 74 9 216 9 64 20
187 40 461 4 62 14 158 21 214 15 113 20 119 109 134 25 4 50 11 55 15 6 4 30
12 55 18 80 19 135 34 155 42 19 8 65 21 150 41 22 5 49 13 60 18 11 4 45 15
75 24 30 9 86 25 124 37 38 11 77 20 87 20 10 0 20 4 23 9 3 4 25 11 48 15 24
4 63 13 88 21 25 8 72 22 105 31 33 9 65 20 71 25 34 27 94 37 199 34 61 -1
126 -6 145 -10z m1800 -80 c8 -6 24 -15 34 -19 37 -13 4 -20 -97 -22 -100 -1
-124 -7 -208 -50 -23 -12 -28 -11 -52 12 -29 26 -35 52 -14 58 6 2 30 9 52 17
87 29 252 32 285 4z m62 -103 c49 -13 138 -70 138 -88 0 -16 -31 -34 -60 -34
-11 0 -32 -7 -45 -16 -15 -10 -63 -19 -127 -24 -57 -5 -134 -13 -172 -19 -58
-10 -72 -9 -84 3 -12 12 -11 16 9 26 12 7 31 20 41 30 17 16 17 17 -7 40 -14
13 -25 29 -25 36 0 17 62 44 102 44 18 0 40 5 48 10 18 12 128 7 182 -8z"/>
<path d="M2587 1500 c-19 -23 -22 -40 -7 -40 6 0 10 7 10 15 0 8 7 15 15 15 8
0 15 7 15 15 0 21 -12 19 -33 -5z"/>
<path d="M3093 1501 c-13 -11 -23 -22 -23 -26 0 -3 -12 -16 -27 -29 -17 -15
-24 -29 -20 -39 9 -23 24 -21 32 4 6 19 8 19 25 4 12 -11 26 -14 39 -10 24 7
19 23 -12 34 -21 8 -21 8 6 35 15 15 25 32 22 37 -9 13 -17 11 -42 -10z"/>
<path d="M2632 1473 c2 -10 10 -18 18 -18 8 0 16 8 18 18 2 12 -3 17 -18 17
-15 0 -20 -5 -18 -17z"/>
<path d="M2877 1483 c-12 -11 -8 -23 8 -23 8 0 15 7 15 15 0 16 -12 20 -23 8z"/>
<path d="M2904 1395 c-4 -8 -1 -21 5 -29 18 -22 -50 -57 -112 -58 -67 0 -167
-43 -167 -70 0 -17 5 -19 28 -15 28 5 80 22 118 40 15 6 29 5 44 -3 18 -10 28
-9 47 1 23 12 27 11 51 -18 31 -36 92 -46 92 -14 0 9 -5 22 -11 28 -8 8 -8 13
0 18 6 3 24 -7 38 -24 16 -18 37 -31 50 -31 14 0 23 -6 23 -15 0 -8 -9 -15
-19 -15 -26 0 -35 -16 -14 -24 28 -11 93 25 93 52 0 12 -6 22 -14 22 -7 0 -16
9 -19 21 -4 16 -11 19 -27 14 -28 -9 -48 10 -43 39 4 21 2 24 -16 19 -14 -3
-26 0 -34 10 -7 9 -34 28 -60 42 -40 21 -49 22 -53 10z m56 -101 c0 -16 -35
-19 -45 -5 -6 11 26 32 37 25 5 -3 8 -12 8 -20z"/>
<path d="M3240 1391 c0 -23 33 -30 45 -10 8 13 6 15 -22 23 -19 6 -23 3 -23
-13z"/>
<path d="M3146 1378 c-18 -26 -7 -38 37 -38 31 0 30 0 17 34 -12 32 -34 33
-54 4z"/>
<path d="M3292 1346 c4 -19 0 -30 -13 -37 -19 -10 -26 -39 -10 -39 5 0 23 -14
40 -31 31 -30 61 -35 69 -12 2 7 -3 15 -12 18 -53 17 -53 16 -28 32 27 19 29
43 2 43 -14 0 -19 6 -17 22 1 15 -4 23 -17 26 -15 3 -18 -1 -14 -22z"/>
<path d="M3375 1300 c-3 -5 5 -21 19 -35 22 -22 28 -24 51 -13 33 15 32 32 -1
24 -20 -5 -27 -3 -31 14 -6 21 -27 27 -38 10z"/>
<path d="M3210 1255 c0 -8 4 -15 9 -15 5 0 14 7 21 15 10 13 9 15 -9 15 -12 0
-21 -6 -21 -15z"/>
<path d="M3230 1206 c0 -10 -9 -16 -25 -16 -16 0 -25 -6 -25 -15 0 -8 4 -15 9
-15 5 0 17 -7 26 -16 8 -9 23 -13 32 -10 12 5 14 9 5 18 -20 20 -13 38 14 38
34 0 26 24 -9 28 -19 2 -27 -1 -27 -12z"/>
<path d="M3623 592 c-24 -15 -54 -45 -69 -66 -23 -35 -26 -49 -26 -125 1 -64
5 -95 19 -121 24 -45 54 -80 69 -80 6 0 17 -7 24 -15 15 -18 130 -21 163 -4
67 36 119 113 94 138 -25 25 -84 9 -97 -25 -5 -13 -21 -31 -35 -40 -23 -15
-31 -15 -66 -4 -58 19 -80 61 -80 151 0 89 18 120 80 133 51 11 87 -3 101 -39
8 -21 16 -25 50 -25 39 0 40 1 40 35 0 30 -7 39 -55 75 -49 36 -60 40 -112 39
-45 0 -68 -7 -100 -27z"/>
</g>
</svg>
