<?xml version="1.0" encoding="utf-8"?>
<svg version="1.1" xmlns:xlink="http://www.w3.org/1999/xlink" width="20px" height="20px" xmlns="http://www.w3.org/2000/svg">
  <g transform="matrix(1 0 0 1 -10 -10 )">
    <path d="M 17.1 2.9  C 18 3.9  18.7 4.9  19.2 6.1  C 19.7 7.4  20 8.7  20 10  C 20 11.3  19.7 12.6  19.2 13.9  C 18.7 15.1  18 16.1  17.1 17.1  C 16.2 18  15.1 18.7  13.9 19.2  C 12.6 19.7  11.3 20  10 20  C 8.9 20  7.8 19.8  6.7 19.4  C 5.7 19  4.7 18.5  3.9 17.9  C 3.1 17.2  2.3 16.5  1.7 15.6  C 1.4 15.2  1.1 14.7  0.9 14.2  C 0.7 13.7  0.5 13.2  0.3 12.7  L 1.5 12.4  C 1.8 13.3  2.2 14.2  2.7 15  C 3.2 15.8  3.9 16.5  4.6 17  C 5.3 17.5  6.2 18  7.1 18.3  C 8 18.6  8.9 18.8  9.9 18.8  C 10.7 18.8  11.5 18.7  12.2 18.5  C 12.9 18.3  13.6 18  14.3 17.6  C 14.9 17.2  15.5 16.8  16.1 16.2  C 16.6 15.7  17.1 15.1  17.5 14.4  C 17.9 13.8  18.2 13.1  18.4 12.3  C 18.6 11.6  18.7 10.8  18.7 10  C 18.7 9.2  18.6 8.4  18.4 7.7  C 18.2 7  17.9 6.3  17.5 5.6  C 17.1 5  16.7 4.4  16.1 3.8  C 15.6 3.3  15 2.8  14.3 2.4  C 13.7 2  13 1.7  12.2 1.5  C 11.5 1.3  10.7 1.2  9.9 1.2  C 9.1 1.2  8.2 1.3  7.4 1.6  C 6.7 1.8  6 2.2  5.3 2.6  C 4.6 3.1  4 3.6  3.5 4.2  C 2.9 4.8  2.5 5.5  2.1 6.3  L 5 6.3  L 5 7.6  L 0 7.6  L 0 2.6  L 1.3 2.6  L 1.3 5.3  C 1.4 5  1.5 4.8  1.6 4.6  C 1.7 4.4  1.9 4.2  2 4  C 2.6 3.2  3.3 2.5  4.1 1.9  C 5 1.3  6 0.8  6.9 0.5  C 7.9 0.2  8.9 0  10 0  C 11.3 0  12.6 0.3  13.9 0.8  C 15.1 1.3  16.1 2  17.1 2.9  Z M 8.8 5  L 10 5  L 10 10.4  L 13.6 14  L 12.7 14.9  L 8.8 11  L 8.8 5  Z " fill-rule="nonzero" fill="#ffffff" stroke="none" transform="matrix(1 0 0 1 10 10 )" />
  </g>
</svg>