<?xml version="1.0" encoding="utf-8"?>
<svg version="1.1" xmlns:xlink="http://www.w3.org/1999/xlink" width="21px" height="12px" xmlns="http://www.w3.org/2000/svg">
  <g transform="matrix(1 0 0 1 -9 -14 )">
    <path d="M 21 7.00537056928034  L 21 4.99462943071966  L 18.3157894736842 4.99462943071966  L 16.2631578947368 4.99462943071966  L 10.2631578947368 4.99462943071966  C 9.78947368421053 2.31364124597207  7.73684210526316 0.47046186895811  5.21052631578947 0.47046186895811  C 2.36842105263158 0.47046186895811  0 2.98388829215897  0 6  C 0 9.01611170784103  2.36842105263158 11.5295381310419  5.21052631578947 11.5295381310419  C 7.73684210526316 11.5295381310419  9.78947368421052 9.5187969924812  10.2631578947368 7.00537056928034  L 16.2631578947368 7.00537056928034  L 16.2631578947368 10.3566058002148  L 18.3157894736842 10.3566058002148  L 18.3157894736842 7.00537056928034  L 21 7.00537056928034  Z M 8.36842105263158 6  C 8.36842105263158 7.84317937701396  6.94736842105263 9.35123523093448  5.21052631578947 9.35123523093448  C 3.47368421052632 9.35123523093448  2.05263157894737 7.84317937701396  2.05263157894737 6  C 2.05263157894737 4.15682062298604  3.47368421052632 2.64876476906552  5.21052631578947 2.64876476906552  C 6.94736842105263 2.64876476906552  8.36842105263158 4.15682062298604  8.36842105263158 6  Z " fill-rule="nonzero" fill="#ffffff" stroke="none" transform="matrix(1 0 0 1 9 14 )" />
  </g>
</svg>