<?xml version="1.0" encoding="utf-8"?>
<svg version="1.1" xmlns:xlink="http://www.w3.org/1999/xlink" width="40px" height="40px" xmlns="http://www.w3.org/2000/svg">
  <g transform="matrix(1 0 0 1 -940 -513 )">
    <path d="M 14.8 0.600000000000001  C 16.4 0.2  18.2 0  20 0  C 21.8 0  23.6 0.2  25.4 0.8  C 27.2 1.2  28.8 2  30.2 2.8  C 31.6 3.6  33 4.8  34.2 6  C 35.4 7.2  36.4 8.6  37.4 10  C 38.2 11.4  39 13  39.4 14.8  C 39.8 16.4  40 18.2  40 20  C 40 21.8  39.8 23.6  39.2 25.4  C 38.8 27.2  38 28.8  37.2 30.2  C 36.4 31.6  35.2 33  34 34.2  C 32.8 35.4  31.4 36.4  30 37.4  C 28.6 38.2  27 39  25.2 39.4  C 23.6 39.8  21.8 40  20 40  C 18.2 40  16.4 39.8  14.6 39.2  C 12.8 38.8  11.2 38  9.8 37.2  C 8.4 36.4  7 35.2  5.8 34  C 4.6 32.8  3.6 31.4  2.6 30  C 1.8 28.6  1 27  0.600000000000001 25.2  C 0.2 23.6  0 21.8  0 20  C 0 18.2  0.2 16.4  0.8 14.6  C 1.2 12.8  2 11.2  2.8 9.8  C 3.6 8.4  4.8 7  6 5.8  C 7.2 4.6  8.6 3.6  10 2.6  C 11.4 1.8  13 1  14.8 0.600000000000001  Z M 15.6 37  C 16.8 37.2  18.4 37.6  20 37.6  C 21.6 37.6  23.2 37.4  24.6 37  C 26 36.6  27.4 36  28.8 35.2  C 30 34.4  31.2 33.6  32.4 32.4  C 33.4 31.4  34.4 30.2  35.2 28.8  C 36 27.6  36.6 26.2  37 24.6  C 37.4 23.2  37.6 21.6  37.6 20  C 37.6 18.4  37.4 16.8  37 15.4  C 36.6 14  36 12.6  35.2 11.2  C 34.4 10  33.6 8.80000000000001  32.4 7.60000000000001  C 31.4 6.60000000000001  30.2 5.60000000000001  28.8 4.80000000000001  C 27.6 4.00000000000001  26.2 3.40000000000001  24.6 3.00000000000001  C 23.2 2.60000000000001  21.6 2.40000000000001  20 2.40000000000001  C 18.4 2.40000000000001  16.8 2.8  15.4 3.2  C 13.8 3.6  12.4 4.2  11.2 4.8  C 9.8 5.6  8.8 6.6  7.6 7.6  C 6.6 8.6  5.6 9.8  4.8 11.2  C 4.2 12.4  3.6 13.8  3.2 15.4  C 2.8 16.8  2.6 18.4  2.6 20  C 2.6 21.6  2.8 23.2  3.2 24.6  C 3.6 26  4.2 27.4  5 28.8  C 5.8 30  6.6 31.2  7.8 32.4  C 8.8 33.4  10 34.4  11.4 35.2  C 12.6 36  14 36.6  15.6 37  Z M 16.2 24.4  L 29.2 11.6  L 31 13.4  L 16.2 28  L 9 20.8  L 10.8 19  L 16.2 24.4  Z " fill-rule="nonzero" fill="#168d4b" stroke="none" transform="matrix(1 0 0 1 940 513 )" />
  </g>
</svg>