<?xml version="1.0" encoding="utf-8"?>
<svg version="1.1" xmlns:xlink="http://www.w3.org/1999/xlink" width="101px" height="106px" xmlns="http://www.w3.org/2000/svg">
  <g transform="matrix(1 0 0 1 -910 -429 )">
    <path d="M 25.5157894736842 93.81  C 26.5789473684211 94.34  27.1105263157895 95.4  27.1105263157895 95.93  C 27.1105263157895 96.99  26.5789473684211 97.52  26.0473684210526 98.05  C 25.5157894736842 98.58  24.4526315789474 99.11  23.9210526315789 99.11  C 20.7315789473684 99.11  17.5421052631579 98.58  14.8842105263158 97.52  C 12.2263157894737 96.46  9.56842105263158 94.87  7.4421052631579 92.75  C 5.31578947368421 90.63  3.72105263157895 87.98  2.65789473684211 85.33  C 1.06315789473685 82.15  0.531578947368425 79.5  0.531578947368425 76.32  C 0.531578947368425 75.26  1.06315789473685 74.73  1.59473684210527 74.2  C 2.12631578947369 73.67  3.18947368421053 73.14  3.72105263157895 73.14  C 4.78421052631579 73.14  5.31578947368422 73.67  5.84736842105264 74.2  C 6.37894736842106 74.73  6.91052631578948 75.79  6.91052631578948 76.32  C 6.91052631578948 78.44  7.4421052631579 80.56  7.97368421052632 82.68  C 9.03684210526316 84.8  10.1 86.39  11.6947368421053 87.98  C 13.2894736842105 89.57  14.8842105263158 90.63  17.0105263157895 91.69  C 19.1368421052632 92.75  21.2631578947368 92.75  23.3894736842105 92.75  C 24.4526315789474 92.75  24.9842105263158 93.28  25.5157894736842 93.81  Z M 100 72.61  L 100.468421052632 72.61  C 100.468421052632 75.26  99.9368421052632 78.44  99.4052631578948 81.09  C 98.8736842105263 83.74  97.8105263157895 86.39  96.2157894736842 89.04  C 95.1526315789474 91.69  93.5578947368421 93.81  91.4315789473684 95.93  C 89.3052631578948 98.05  87.7105263157895 99.64  85.0526315789474 101.23  C 82.3947368421053 102.82  80.2684210526316 103.88  77.6105263157895 104.94  C 74.9526315789474 106  72.2947368421053 106  69.6368421052632 106  C 67.5105263157895 106  65.3842105263158 106  63.2578947368421 105.47  C 61.1315789473684 104.94  59.0052631578947 104.41  57.4105263157895 103.88  C 55.8157894736842 103.35  53.6894736842105 102.29  52.0947368421053 101.23  C 50.5 100.17  48.9052631578948 98.58  47.3105263157895 97.52  L 14.8842105263158 65.19  C 13.821052631579 64.13  13.2894736842105 63.07  12.7578947368421 62.01  C 12.2263157894737 60.95  12.2263157894737 59.36  12.2263157894737 58.3  C 12.2263157894737 56.18  12.7578947368421 54.59  13.821052631579 53  C 14.8842105263158 51.41  16.4789473684211 50.35  18.0736842105263 49.29  C 17.0105263157895 47.17  16.4789473684211 45.58  16.4789473684211 43.99  C 16.4789473684211 41.87  17.0105263157895 40.28  18.0736842105263 38.69  C 19.1368421052632 37.1  20.7315789473684 36.04  22.3263157894737 34.98  C 21.7947368421053 33.39  21.2631578947368 31.27  21.2631578947368 29.68  C 21.2631578947368 28.09  21.2631578947368 27.03  21.7947368421053 25.97  C 22.3263157894737 24.91  22.8578947368421 23.85  23.921052631579 22.79  C 24.9842105263158 21.73  26.0473684210526 21.2  27.1105263157895 20.67  C 28.1736842105263 20.14  29.7684210526316 20.14  30.8315789473684 20.14  C 32.4263157894737 20.14  34.0210526315789 20.67  35.6157894736842 21.2  C 36.6789473684211 19.61  37.7421052631579 18.02  39.3368421052632 16.96  C 41.4631578947368 15.9  43.0578947368421 15.37  45.1842105263158 15.37  C 46.2473684210526 15.37  47.8421052631579 15.37  48.9052631578947 15.9  C 49.9684210526316 16.43  51.0315789473684 16.96  52.0947368421053 18.02  L 80.2684210526316 46.11  L 80.2684210526316 36.57  C 80.2684210526316 35.51  80.2684210526316 33.92  80.8 32.86  C 81.3315789473684 31.8  81.8631578947368 30.74  82.9263157894737 29.68  C 83.9894736842105 28.62  85.0526315789474 28.09  86.1157894736842 27.56  C 87.7105263157895 27.03  88.7736842105263 26.5  90.3684210526316 26.5  C 91.9631578947369 26.5  93.0263157894737 26.5  94.0894736842105 27.03  C 95.1526315789474 27.56  96.2157894736842 28.09  97.2789473684211 29.15  C 98.3421052631579 30.21  98.8736842105263 31.27  99.4052631578947 32.33  C 99.9368421052631 33.39  99.9368421052632 34.98  100 36.04  L 100 72.61  Z M 25.5157894736842 82.15  C 26.5789473684211 82.68  27.1105263157895 83.74  27.1105263157895 84.27  C 27.1105263157895 85.33  26.5789473684211 85.86  26.0473684210526 86.39  C 25.5157894736842 86.92  24.4526315789474 87.45  23.9210526315789 87.45  C 22.3263157894737 87.45  20.7315789473684 86.92  19.1368421052632 86.39  C 17.5421052631579 85.86  16.4789473684211 85.33  15.4157894736842 84.27  C 14.3526315789474 83.21  13.2894736842105 82.15  12.7578947368421 80.56  C 12.2263157894737 78.97  11.6947368421053 77.91  11.6947368421053 75.79  C 11.6947368421053 74.73  12.2263157894737 74.2  12.7578947368421 73.67  C 13.2894736842105 73.14  14.3526315789474 72.61  14.8842105263158 72.61  C 15.9473684210526 72.61  16.4789473684211 73.14  17.0105263157895 73.67  C 17.5421052631579 74.2  18.0736842105263 75.26  18.0736842105263 75.79  C 18.0736842105263 77.38  18.6052631578947 78.44  19.6684210526316 79.5  C 20.7315789473684 80.56  21.7947368421053 81.09  23.3894736842105 81.09  C 24.4526315789474 81.09  24.9842105263158 81.62  25.5157894736842 82.15  Z M 93.0263157894737 82.15  C 93.0263157894737 78.97  93.5578947368421 75.79  93 72.61  L 93 36.57  C 93.5578947368421 35.51  93.0263157894737 34.98  92.4947368421053 34.45  C 91.9631578947369 33.92  90.9 33.39  90.3684210526316 33.39  C 89.3052631578948 33.39  88.7736842105263 33.92  88.2421052631579 34.45  C 87.7105263157895 34.98  87.1789473684211 36.04  87 36.57  L 87 48.23  C 87.1789473684211 49.29  86.6473684210526 50.35  86.1157894736842 51.41  C 85.5842105263158 52.47  84.521052631579 53  83.4578947368421 53.53  C 82.9263157894737 53.53  82.9263157894737 54.06  82.3947368421053 54.06  C 81.8631578947369 54.06  81.8631578947369 54.06  81.3315789473685 54.06  C 79.7368421052632 54.06  78.1421052631579 53.53  77.0789473684211 52.47  L 47.8421052631579 22.79  C 46.7789473684211 22.26  46.2473684210526 21.73  45.1842105263158 21.73  C 44.6526315789474 21.73  43.5894736842105 22.26  43.0578947368421 22.79  C 42.5263157894737 23.32  41.9947368421053 24.38  41.9947368421053 24.91  C 41.9947368421053 25.44  42.5263157894737 27.03  43.0578947368421 27.56  L 61.6631578947369 46.11  C 62.1947368421053 46.64  62.7263157894737 47.7  62.7263157894737 48.23  C 62.7263157894737 48.76  62.1947368421053 49.82  61.6631578947369 50.35  C 61.1315789473684 50.88  60.0684210526316 51.41  59.5368421052632 51.41  C 58.4736842105263 51.41  57.9421052631579 50.88  57.4105263157895 50.35  L 33.4894736842105 27.56  C 32.9578947368421 27.03  32.4263157894737 26.5  31.3631578947368 26.5  C 30.3 26.5  29.7684210526316 27.03  28.7052631578947 27.56  C 28.1736842105263 28.09  28.1736842105263 28.62  28.1736842105263 29.68  C 28.1736842105263 30.74  28.7052631578947 31.27  29.2368421052632 31.8  L 52.6263157894737 55.12  C 53.1578947368421 55.65  53.6894736842105 56.71  53.6894736842105 57.24  C 53.6894736842105 58.3  53.1578947368421 58.83  52.6263157894737 59.36  C 52.0947368421053 59.89  51.0315789473684 60.42  50.5 60.42  C 49.4368421052632 60.42  48.9052631578947 59.89  48.3736842105263 59.36  L 28.7052631578947 41.34  C 28.1736842105263 40.81  27.6421052631579 40.28  26.5789473684211 40.28  C 25.5157894736842 40.28  24.9842105263158 40.81  24.4526315789474 41.34  C 23.3894736842105 41.87  23.3894736842105 42.93  23.3894736842105 43.99  C 23.3894736842105 45.05  23.9210526315789 45.58  24.4526315789474 46.11  L 45.7157894736842 67.31  C 46.2473684210526 67.84  46.7789473684211 68.9  46.7789473684211 69.43  C 46.7789473684211 69.96  46.2473684210526 71.02  45.7157894736842 71.55  C 45.1842105263158 72.08  44.1210526315789 72.61  43.5894736842105 72.61  C 42.5263157894737 72.61  41.9947368421053 72.08  41.4631578947368 71.55  L 24.9842105263158 55.12  C 24.4526315789474 54.59  23.3894736842105 54.06  22.8578947368421 54.06  C 21.7947368421053 54.06  21.2631578947368 54.59  20.7315789473684 55.12  C 20.2 55.65  19.6684210526316 56.71  19.6684210526316 57.24  C 19.6684210526316 58.3  20.2 58.83  20.7315789473684 59.36  L 53.1578947368421 91.69  C 55.2842105263158 93.81  57.9421052631579 95.93  61.1315789473684 96.99  C 64.321052631579 98.05  67.5105263157895 98.58  70.7 98.58  C 74.4210526315789 98.58  77.6105263157895 98.05  80.8 96.46  C 83.9894736842105 94.87  86.1157894736842 92.75  88.2421052631579 90.63  C 90.3684210526316 87.98  91.9631578947369 85.33  93.0263157894737 82.15  Z M 61.6631578947369 5.83  C 60.6 4.77  60.6 4.24  60.6 3.18  C 60.6 2.12  61.1315789473684 1.59  61.6631578947369 1.06  C 62.1947368421053 0.53  62.7263157894737 0  63.7894736842105 0  C 66.9789473684211 0  70.1684210526316 0.53  72.8263157894737 1.59  C 75.4842105263158 2.65  78.1421052631579 4.24  80.2684210526316 6.36  C 82.3947368421053 8.48  83.9894736842105 11.13  85.0526315789474 13.78  C 86.1157894736842 16.43  86.6473684210526 19.61  86.6473684210526 22.79  C 86.6473684210526 23.85  86.1157894736842 24.38  85.5842105263158 24.91  C 85.0526315789474 25.97  84.521052631579 26.5  83.4578947368421 26.5  C 82.3947368421053 26.5  81.8631578947368 25.97  81.3315789473684 25.44  C 80.8 24.91  80.2684210526316 23.85  80.2684210526316 23.32  C 80.2684210526316 21.2  79.7368421052632 19.08  79.2052631578947 16.96  C 78.6736842105263 14.84  77.0789473684211 13.25  75.4842105263158 11.66  C 73.8894736842105 10.07  72.2947368421053 9.01  70.1684210526316 7.95  C 68.0421052631579 6.89  65.9157894736842 6.89  63.7894736842105 6.89  C 62.7263157894737 6.89  62.1947368421053 6.36  61.6631578947369 5.83  Z M 61.1315789473684 16.96  C 60.6 16.43  60.6 15.9  60.6 14.84  C 60.6 13.78  61.1315789473684 13.25  61.6631578947369 12.72  C 62.1947368421053 12.19  63.2578947368421 11.66  63.7894736842105 11.66  C 65.3842105263158 11.66  66.9789473684211 12.19  68.0421052631579 12.72  C 69.6368421052632 13.25  70.7 14.31  71.7631578947369 15.37  C 72.8263157894737 16.43  73.8894736842105 17.49  74.421052631579 19.08  C 74.9526315789474 20.67  75.4842105263158 21.73  75.4842105263158 23.32  C 75.4842105263158 24.38  74.9526315789474 24.91  74.421052631579 25.44  C 73.8894736842105 25.97  72.8263157894737 26.5  71.7631578947369 26.5  C 70.7 26.5  70.1684210526316 25.97  69.6368421052632 25.44  C 69.1052631578948 24.91  68.5736842105263 23.85  68.5736842105263 23.32  C 68.5736842105263 21.73  68.0421052631579 20.67  66.9789473684211 19.61  C 65.9157894736842 18.55  64.8526315789474 18.02  63.2578947368421 18.02  C 62.1947368421053 18.02  61.6631578947369 17.49  61.1315789473684 16.96  Z " fill-rule="nonzero" fill="#168d4b" stroke="none" transform="matrix(1 0 0 1 910 429 )" />
  </g>
</svg>