<?xml version="1.0" encoding="utf-8"?>
<svg version="1.1" xmlns:xlink="http://www.w3.org/1999/xlink" width="28px" height="40px" xmlns="http://www.w3.org/2000/svg">
  <g transform="matrix(1 0 0 1 50 -115 )">
    <path d="M 27.663758326297 24.8060075093867  C 28 24.6373756669521  28 24.4687438245175  27.9159395815743 24.3001119820829  C 27.5796979078713 23.6255846123444  27.3275166525941 22.698109478954  26.9912749788911 21.8549502667808  C 26.8231541420396 21.4333706606943  26.7390937236139 20.9274751333904  26.5709728867624 20.5058955273039  C 25.9825499577822 18.8195771029576  24.5535228445445 17.554838284698  22.8723144760297 17.301890521046  C 22.3679519654752 17.2175745998287  21.8635894549207 17.2175745998287  21.3592269443663 17.3862064422634  C 21.443287362792 16.3744153876556  21.5273477812178 15.3626243330479  21.5273477812178 14.3508332784402  C 21.6114081996435 6.3408207627956  18.164931044188 0.101442592714573  13.6256684491979 0.101442592714573  C 9.50670794633643 0.101442592714573  6.31241204615818 5.32902970818786  5.72398911717797 12.3272511692247  C 5.72398911717797 12.7488307753112  5.63992869875223 13.1704103813978  5.63992869875223 13.5919899874844  C 5.13556618819777 13.4233581450497  4.54714325921756 13.3390422238324  4.12684116708884 13.507674066267  C 3.62247865653438 13.6763059087017  3.20217656440567 14.0978855147882  2.94999530912844 14.6880969633094  C 2.44563279857397 15.9528357815691  2.02533070644526 17.301890521046  1.60502861431654 18.650945260523  L 1.5209681958908 18.903893024175  C 1.43690777746505 19.0725248666096  1.43690777746505 19.2411567090442  1.35284735903931 19.4097885514788  C 1.18472652218782 19.9156840787827  1.01660568533634 20.3372636848692  0.932545266910591 20.8431592121731  C 0.932545266910591 21.1804228970424  0.932545266910591 21.6020025031289  0.932545266910591 21.9392661879982  C 0.932545266910591 22.445161715302  0.932545266910591 22.8667413213886  0.848484848484849 23.2883209274751  C 0.764424430059104 23.5412686911271  0.932545266910591 23.7099005335617  1.10066610376208 23.8785323759963  C 1.26878694061357 23.9628482972136  1.5209681958908 23.9628482972136  1.68908903274228 23.794216454779  C 2.19345154329674 23.3726368486924  2.44563279857397 22.7824254001713  2.69781405385121 22.2765298728674  C 2.78187447227695 22.0235821092155  2.94999530912844 21.7706343455635  3.03405572755418 21.6020025031289  C 3.4543578196829 21.0117910546077  3.79059949338587 20.5902114485212  4.12684116708884 20.4215796060866  C 4.21090158551459 20.7588432909558  4.21090158551459 20.9274751333904  4.21090158551459 21.096106975825  C 4.37902242236608 22.0235821092155  4.46308284079182 23.0353731638232  4.63120367764331 23.9628482972136  C 4.88338493292054 26.0707463276464  5.21962660662351 28.2629602792965  5.63992869875223 30.3708583097293  C 5.9761703724552 32.1414926552928  6.48053288300966 34.1650747645083  7.99362041467305 35.7670772676372  C 9.08640585420771 36.8631842434622  10.7676142227226 37.7063434556353  12.4488225912375 37.87497529807  C 12.3647621728117 38.2122389829392  12.1966413359602 38.7181345102431  12.0285204991087 38.8867663526777  C 11.8603996622572 39.1397141163296  11.944460080683 39.4769778011989  12.1966413359602 39.6456096436335  C 12.1966413359602 39.6456096436335  12.280701754386 39.6456096436335  12.280701754386 39.7299255648508  C 12.280701754386 39.7299255648508  12.3647621728117 39.7299255648508  12.3647621728117 39.8142414860681  C 12.7850642649404 39.9828733285027  13.2894267754949 39.9828733285027  13.7937892860493 39.9828733285027  C 13.9619101229008 39.9828733285027  14.1300309597523 39.9828733285027  14.2140913781781 39.9828733285027  C 14.550333051881 39.9828733285027  14.886574725584 39.9828733285027  15.1387559808612 39.9828733285027  C 15.55905807299 39.9828733285027  15.9793601651187 39.9828733285027  16.3156018388217 39.9828733285027  C 16.5677830940989 39.9828733285027  16.8199643493761 39.7299255648508  16.8199643493761 39.4769778011989  C 16.8199643493761 39.3083459587642  16.8199643493761 38.971082273895  16.7359039309504 38.7181345102431  C 16.7359039309504 38.4651867465911  16.6518435125246 38.0436071405046  16.5677830940989 37.87497529807  C 16.8199643493761 37.7906593768526  17.3243268599306 37.7906593768526  17.6605685336336 37.7906593768526  C 18.164931044188 37.7906593768526  18.501172717891 37.7906593768526  18.7533539731682 37.622027534418  C 19.5098977389999 37.3690797707661  20.2664415048316 36.7788683222449  20.6867435969603 36.1043409525064  C 21.6954686180692 34.7552862130294  22.0317102917722 32.731704103814  22.3679519654752 31.0453856794678  C 22.4520123839009 30.7081219945985  22.4520123839009 30.3708583097293  22.5360728023267 30.1179105460773  C 22.7041936391782 29.3590672551215  22.7882540576039 28.684539885383  22.8723144760296 27.9256965944272  C 23.0404353128811 26.7452736973849  23.2085561497326 25.6491667215598  23.5447978234356 24.4687438245175  C 23.5447978234356 24.3001119820829  23.6288582418613 24.2157960608656  23.6288582418613 24.0471642184309  C 23.7129186602871 23.794216454779  23.7969790787128 23.3726368486924  23.8810394971386 23.2883209274751  C 23.8810394971386 23.2883209274751  23.8810394971386 23.2883209274751  23.9650999155643 23.2883209274751  C 24.5535228445445 23.4569527699098  25.3100666103762 23.8785323759963  25.8984895393564 24.2157960608656  C 25.9825499577822 24.3001119820829  26.1506707946336 24.3844279033002  26.2347312130594 24.4687438245175  C 26.4869124683366 24.7216915881694  26.8231541420396 24.9746393518214  27.1593958157426 24.9746393518214  C 27.3275166525941 25.0589552730387  27.5796979078713 24.9746393518214  27.663758326297 24.8060075093867  Z M 6.90083497513838 11.8213556419208  C 7.06895581198987 10.2193531387919  7.40519748569284 8.617350635663  7.82549957782156 7.26829589618602  L 10.4313725490196 7.26829589618602  L 10.4313725490196 11.8213556419208  L 6.90083497513838 11.8213556419208  Z M 11.5241579885543 11.8213556419208  L 11.5241579885543 7.26829589618602  L 15.8952997466929 7.26829589618602  L 15.8952997466929 11.8213556419208  L 11.5241579885543 11.8213556419208  Z M 19.5098977389999 7.26829589618602  C 19.4258373205742 7.26829589618602  19.4258373205742 7.26829589618602  19.5098977389999 7.26829589618602  C 20.0142602495544 8.617350635663  20.3505019232573 10.2193531387919  20.5186227601088 11.9056715631381  L 16.9880851862276 11.9056715631381  L 16.9880851862276 7.26829589618602  L 19.5098977389999 7.26829589618602  Z M 20.5186227601088 12.9174626177459  C 20.6026831785346 13.4233581450497  20.6026831785346 13.8449377511363  20.6026831785346 14.3508332784402  C 20.6026831785346 15.4469402542652  20.5186227601088 16.4587313088729  20.3505019232573 17.4705223634807  L 16.9040247678019 17.4705223634807  L 16.9040247678019 12.9174626177459  L 20.5186227601088 12.9174626177459  Z M 11.5241579885543 12.9174626177459  L 15.8952997466929 12.9174626177459  L 15.8952997466929 17.4705223634807  L 11.5241579885543 17.4705223634807  L 11.5241579885543 12.9174626177459  Z M 11.60821840698 18.5666293393057  L 15.8952997466929 18.5666293393057  L 15.8952997466929 23.1196890850405  L 13.3734871939206 23.1196890850405  C 13.1213059386434 22.1922139516501  12.8691246833662 21.349054739477  12.5328830096632 20.5058955273039  C 12.280701754386 19.9156840787827  12.0285204991087 19.2411567090442  11.60821840698 18.5666293393057  Z M 15.8952997466929 24.3001119820829  L 15.8952997466929 24.2157960608656  L 15.8952997466929 25.6491667215598  C 15.7271789098414 26.1550622488637  15.55905807299 26.6609577761676  15.3909372361385 27.2511692246888  C 15.222816399287 27.8413806732099  14.9706351440098 28.5159080429484  14.8025143071583 29.1904354126869  C 14.7184538887325 28.684539885383  14.550333051881 28.1786443580792  14.4662726334553 27.6727488307753  C 14.2140913781781 26.5766418549503  14.0459705413266 25.4805348791252  13.7097288676236 24.3844279033002  L 13.7097288676236 24.3001119820829  L 15.8952997466929 24.3001119820829  Z M 19.0055352284454 19.0725248666096  C 18.164931044188 20.1686318424346  17.4924476967821 21.349054739477  16.9880851862276 22.698109478954  L 16.9880851862276 18.5666293393057  L 19.4258373205742 18.5666293393057  C 19.2577164837227 18.7352611817403  19.1736560652969 18.903893024175  19.0055352284454 19.0725248666096  Z M 16.9880851862276 2.71523615045122  C 17.7446289520593 3.64271128384164  18.501172717891 4.823134180884  19.0895956468712 6.17218892036097  L 16.9880851862276 6.17218892036097  L 16.9880851862276 2.71523615045122  Z M 13.6256684491979 1.11323364732231  C 14.4662726334553 1.19754956853962  15.222816399287 1.45049733219155  15.8952997466929 1.87207693827811  L 15.8952997466929 6.17218892036097  L 11.5241579885543 6.17218892036097  L 11.5241579885543 1.7877610170608  C 12.1966413359602 1.36618141097424  12.9531851017919 1.11323364732231  13.6256684491979 1.11323364732231  Z M 8.24580166995028 6.17218892036097  C 8.83422459893048 4.73881825966668  9.59076836476217 3.55839536262433  10.5154329674454 2.63092022923391  L 10.5154329674454 6.17218892036097  L 8.24580166995028 6.17218892036097  Z M 6.73271413828689 14.1822014360055  C 6.73271413828689 13.760621829919  6.73271413828689 13.3390422238324  6.81677455671264 12.9174626177459  L 10.5154329674454 12.9174626177459  L 10.5154329674454 16.6273631513076  C 9.8429496200394 15.9528357815691  9.00234543578197 15.4469402542652  8.24580166995028 15.0253606481786  C 7.99362041467305 14.856728805744  7.74143915939582 14.6880969633094  7.48925790411859 14.6037810420921  C 7.15301623041561 14.4351491996575  6.98489539356413 14.2665173572228  6.73271413828689 14.1822014360055  Z M 26.4028520499109 23.2040050062578  C 25.7303687025049 22.7824254001713  25.057885355099 22.445161715302  24.385402007693 22.2765298728674  C 23.9650999155643 22.1922139516501  23.6288582418613 22.2765298728674  23.4607374050099 22.3608457940847  C 22.9563748944554 22.6137935577366  22.8723144760296 23.2040050062578  22.7882540576039 23.794216454779  C 22.7882540576039 23.8785323759963  22.7041936391782 24.0471642184309  22.7041936391782 24.1314801396482  C 22.3679519654752 25.3119030366906  22.1998311286237 26.5766418549503  22.0317102917722 27.6727488307753  C 21.9476498733465 28.3472762005138  21.779529036495 29.1061194914696  21.6954686180692 29.7806468612081  C 21.6114081996435 30.1179105460773  21.6114081996435 30.3708583097293  21.5273477812178 30.7081219945985  C 21.1911061075148 32.3101244977274  20.9389248522375 34.1650747645083  20.0142602495544 35.3454976615506  C 19.6780185758514 35.7670772676372  19.0895956468712 36.272972794941  18.501172717891 36.4416046373757  C 18.4171122994652 36.525920558593  17.9968102073365 36.525920558593  17.6605685336335 36.525920558593  C 16.8199643493761 36.525920558593  16.0634205835444 36.6102364798103  15.8112393282672 37.0318160858969  C 15.55905807299 37.3690797707661  15.6431184914157 37.87497529807  15.7271789098414 38.7181345102431  C 15.7271789098414 38.7181345102431  15.7271789098414 38.8024504314604  15.7271789098414 38.8024504314604  C 15.222816399287 38.8024504314604  14.7184538887325 38.8024504314604  14.2140913781781 38.8024504314604  C 14.1300309597523 38.8024504314604  13.9619101229008 38.8024504314604  13.7937892860493 38.8024504314604  C 13.7937892860493 38.8024504314604  13.7097288676236 38.8024504314604  13.7097288676236 38.8024504314604  C 13.5416080307721 38.8024504314604  13.2894267754949 38.8024504314604  13.1213059386434 38.8024504314604  C 13.2894267754949 38.2965549041565  13.4575476123464 37.7063434556353  13.3734871939206 37.2004479283315  C 13.2894267754949 36.9475001646795  13.1213059386434 36.7788683222449  12.8691246833662 36.7788683222449  C 11.271976733277 36.6945524010276  9.59076836476217 35.9357091100718  8.58204334365325 34.9239180554641  C 7.23707664884135 33.5748633159871  6.81677455671264 31.7199130492062  6.56459330143541 30.03359462486  C 6.14429120930669 27.9256965944272  5.89210995402946 25.8177985639945  5.63992869875223 23.7099005335617  C 5.47180786190074 22.7824254001713  5.387747443475 21.7706343455635  5.21962660662351 20.8431592121731  C 5.21962660662351 20.5902114485212  5.13556618819777 20.3372636848692  5.05150576977202 20.0843159212173  L 5.05150576977202 19.8313681575654  C 5.05150576977202 19.5784203939134  4.79932451449479 19.4097885514788  4.63120367764331 19.4097885514788  C 3.62247865653438 19.3254726302615  2.78187447227695 20.3372636848692  2.19345154329675 21.1804228970424  C 2.109391124871 21.2647388182597  2.02533070644526 21.4333706606943  2.02533070644526 21.5176865819116  C 2.02533070644526 21.349054739477  2.02533070644526 21.2647388182597  2.02533070644526 21.096106975825  C 2.02533070644526 20.6745273697385  2.19345154329675 20.2529477636519  2.36157238014823 19.8313681575654  C 2.36157238014823 19.6627363151308  2.44563279857398 19.4941044726961  2.52969321699972 19.3254726302615  L 2.61375363542546 19.0725248666096  C 3.03405572755418 17.8077860483499  3.4543578196829 16.4587313088729  3.95872033023736 15.1939924906133  C 4.12684116708884 14.856728805744  4.29496200394033 14.6880969633094  4.54714325921756 14.6037810420921  C 5.21962660662351 14.3508332784402  6.39647246458392 15.109676569396  6.90083497513838 15.4469402542652  C 7.15301623041561 15.6155720966998  7.40519748569284 15.7842039391344  7.74143915939582 15.9528357815691  C 8.58204334365325 16.4587313088729  9.42264752791069 16.8803109149595  10.0110704568909 17.554838284698  C 10.1791912937424 17.8077860483499  10.3473121305939 18.1450497332192  10.5154329674454 18.4823134180884  C 10.5994933858711 18.650945260523  10.6835538042968 18.903893024175  10.7676142227226 19.0725248666096  C 11.1038558964256 19.6627363151308  11.3560371517028 20.2529477636519  11.60821840698 20.8431592121731  C 12.0285204991087 21.8549502667808  12.280701754386 22.8667413213886  12.6169434280889 23.9628482972136  L 12.7850642649404 24.4687438245175  C 13.1213059386434 25.5648508003425  13.2894267754949 26.6609577761676  13.5416080307721 27.6727488307753  C 13.7937892860493 28.7688558066004  13.9619101229008 29.8649627824254  14.2981517966038 30.9610697582504  C 14.3822122150296 31.2140175219024  14.550333051881 31.2983334431197  14.8025143071583 31.382649364337  C 15.0546955624355 31.382649364337  15.222816399287 31.2140175219024  15.3068768177127 31.0453856794678  C 15.7271789098414 29.8649627824254  16.1474810019702 28.6002239641657  16.4837226756731 27.4198010671234  C 17.3243268599306 24.7216915881694  18.164931044188 21.8549502667808  19.8461394127029 19.6627363151308  C 20.6026831785346 18.650945260523  21.6954686180692 18.1450497332192  22.7882540576039 18.3979974968711  C 24.0491603339901 18.5666293393057  25.1419457735247 19.5784203939135  25.6463082840792 20.9274751333904  C 25.8144291209307 21.349054739477  25.8984895393564 21.7706343455635  26.0666103762079 22.1922139516501  C 26.1506707946336 22.5294776365193  26.2347312130594 22.8667413213886  26.4028520499109 23.2040050062578  Z " fill-rule="nonzero" fill="#ffffff" stroke="none" fill-opacity="0.996078431372549" transform="matrix(1 0 0 1 -50 115 )" />
  </g>
</svg>