<?xml version="1.0" encoding="utf-8"?>
<svg version="1.1" xmlns:xlink="http://www.w3.org/1999/xlink" width="40px" height="35px" xmlns="http://www.w3.org/2000/svg">
  <g transform="matrix(1 0 0 1 -230 -118 )">
    <path d="M 29.8520084566596 32.7259836023307  C 26.6384778012685 34.1679987624401  23.1712473572939 34.7617697107204  19.9577167019028 34.7617697107204  C 16.2367864693446 34.7617697107204  13.0232558139535 33.9983499200743  11.1627906976744 33.0652812870623  C 10.9936575052854 32.9804568658794  6.08879492600423 30.9446707574898  6.93446088794926 28.0606404372712  C 7.01902748414376 27.6365183313567  7.27272727272727 27.2123962254422  7.52642706131078 26.8730985407106  C 3.04439746300211 24.752488011138  1.26849894291755 20.2567936884443  1.09936575052854 19.663022740164  C -0.0845665961945025 17.5424122105915  -0.253699788583509 16.0155726292992  0.50739957716702 14.9976795751044  C 1.86046511627907 13.3011911514464  5.4122621564482 14.3190842056412  5.83509513742072 14.4039086268241  C 14.7145877378436 17.118290104677  20.7188160676533 16.9486412623111  23.5940803382664 13.9797865209096  C 27.061310782241 10.4171608312278  24.7780126849894 3.71603155777859  24.7780126849894 3.63120713659568  C 24.6934460887949 3.46155829422988  24.7780126849894 3.29190945186408  24.8625792811839 3.12226060949828  L 27.061310782241 0.407879131645439  C 27.23044397463 0.238230289279636  27.399577167019 0.238230289279636  27.6532769556025 0.238230289279636  C 27.8224101479915 0.323054710462537  43.2135306553911 5.4125199814366  39.323467230444 21.0202134790904  C 37.9704016913319 26.4489764347961  34.6723044397463 30.4357242303924  29.8520084566596 32.7259836023307  Z M 9.21775898520085 26.9579229618935  C 9.04862579281184 27.2123962254422  8.79492600422833 27.382045067808  8.54122621564482 27.2972206466251  C 8.28752642706131 27.5516939101738  8.0338266384778 27.8909915949054  7.9492600422833 28.3151137008199  C 7.52642706131078 30.0116021244779  10.4016913319239 31.623266126953  11.5856236786469 32.0473882328675  C 14.9682875264271 33.7438766565256  23.0021141649049 34.5921208683546  29.3446088794926 31.7080905481359  C 33.9957716701903 29.5874800185634  36.9556025369979 25.8552054865158  38.2241014799154 20.7657402155417  C 41.6067653276956 7.19383282627752  29.7674418604651 2.18919197648636  27.568710359408 1.34094776465735  L 25.877378435518 3.54638271541278  C 25.9619450317125 3.54638271541278  26.046511627907 3.54638271541278  26.1310782241015 3.63120713659568  C 26.215644820296 3.71603155777858  34.6723044397463 8.97514567111845  30.6976744186047 17.2031145258598  C 27.061310782241 24.9221368535038  16.9133192389006 26.6186252771619  13.6997885835095 26.3641520136132  C 11.6701902748414 26.1945031712474  10.1479915433404 26.3641520136132  9.21775898520085 26.8730985407106  C 9.21775898520085 26.8730985407106  9.21775898520085 26.9579229618935  9.21775898520085 26.9579229618935  Z M 5.49682875264271 15.5066261022018  C 4.98942917547569 15.336977259836  4.05919661733615 15.1673284174702  3.12896405919662 15.1673284174702  C 2.36786469344609 15.1673284174702  1.60676532769556 15.336977259836  1.26849894291755 15.7610993657505  C 0.845665961945032 16.3548703140308  1.09936575052854 17.5424122105914  2.02959830866808 19.2389006342495  C 2.02959830866808 19.2389006342495  2.02959830866808 19.3237250554324  2.02959830866808 19.3237250554324  C 2.02959830866808 19.4085494766153  3.72093023255814 24.0738926416748  8.1183932346723 26.0248543288816  C 8.20295983086681 26.0248543288816  8.28752642706131 26.1096787500645  8.37209302325581 26.1096787500645  C 9.80972515856237 25.0917856958696  12.0084566596195 25.1766101170525  13.784355179704 25.2614345382354  C 15.6448202959831 25.4310833806013  26.046511627907 24.4980147475893  29.8520084566596 16.6941679987624  C 32.8964059196617 10.4171608312278  27.8224101479915 6.09111535089981  26.215644820296 4.90357345433919  C 26.723044397463 7.27865724746042  27.23044397463 11.8591759913371  24.3551797040169 14.8280307327386  C 21.1416490486258 18.1361831588718  14.7991543340381 18.3906564224205  5.49682875264271 15.5066261022018  Z " fill-rule="nonzero" fill="#168d4b" stroke="none" transform="matrix(1 0 0 1 230 118 )" />
  </g>
</svg>