<?xml version="1.0" encoding="utf-8"?>
<svg version="1.1" xmlns:xlink="http://www.w3.org/1999/xlink" width="36px" height="40px" xmlns="http://www.w3.org/2000/svg">
  <g transform="matrix(1 0 0 1 -510 -115 )">
    <path d="M 5.1887506760411 22.7766032417195  C 6.27021977481685 22.7766032417195  7.18530901224249 23.6874559548978  7.18530901224249 24.7639182522903  C 7.18530901224249 25.8403805496829  6.27021977481685 26.7512332628612  5.1887506760411 26.7512332628612  C 4.10728157726535 26.7512332628612  3.19219233983972 25.8403805496829  3.19219233983972 24.7639182522903  C 3.19219233983972 23.6874559548978  4.10728157726535 22.7766032417195  5.1887506760411 22.7766032417195  Z M 6.68616942819214 31.2226920366455  C 6.68616942819214 30.2290345313601  5.93746005211662 29.5665961945032  5.02237081469099 29.5665961945032  C 4.10728157726535 29.5665961945032  3.35857220118983 30.3118393234672  3.35857220118983 31.2226920366455  C 3.35857220118983 32.1335447498238  4.10728157726535 32.8787878787879  5.02237081469099 32.8787878787879  C 5.93746005211662 32.8787878787879  6.68616942819214 32.1335447498238  6.68616942819214 31.2226920366455  Z M 5.35513053739122 16.9802677942213  C 4.44004129996558 16.8974630021142  3.69133192389006 17.7255109231853  3.69133192389006 18.6363636363636  C 3.69133192389006 19.5472163495419  4.44004129996558 20.292459478506  5.35513053739122 20.292459478506  C 6.27021977481685 20.292459478506  7.01892915089237 19.5472163495419  7.01892915089237 18.6363636363636  C 7.01892915089237 17.7255109231853  6.27021977481685 16.9802677942213  5.35513053739122 16.9802677942213  Z M 31.1440090466591 18.884778012685  C 36.9673041939132 23.0250176180409  35.5530753724372 26.0059901338971  35.4698854417621 26.1715997181113  C 35.4698854417621 26.2544045102185  35.3866955110871 26.3372093023256  35.303505580412 26.3372093023256  C 34.7211760656866 26.7512332628612  33.9724666896111 26.9168428470754  32.9741875215104 26.9168428470754  C 30.0625399478834 26.9168428470754  25.4039038300801 25.2607470049331  20.1629381975515 22.2797744890768  C 13.5909336742219 18.4707540521494  11.5943753380205 13.6680761099366  11.1784256846453 12.5088090204369  C 7.01892915089237 11.0183227625088  6.35340970549191 7.54052149400987  6.43659963616697 5.13918252290345  C 5.35513053739122 7.62332628611698  5.43832046806627 10.6871035940803  5.43832046806627 11.7635658914729  C 5.77108019076651 11.84637068358  6.10383991346674 11.9291754756871  6.43659963616697 12.0947850599013  C 7.60125866561778 12.7572233967583  8.51634790304341 14.0821000704722  9.01548748709376 16.069415081043  C 10.0969565858695 19.8784355179704  9.76419686316928 23.4390415785765  9.34824720979399 27.9105003523608  C 9.26505727911893 29.2353770260747  9.09867741776882 30.7258632840028  9.01548748709376 32.2991543340381  C 8.59953783371847 39.5031712473573  5.27194060671616 39.9171952078929  5.10556074536604 39.9171952078929  C 5.10556074536604 39.9171952078929  5.10556074536604 39.9171952078929  5.02237081469099 39.9171952078929  C 4.93918088401593 39.9171952078929  4.85599095334087 39.9171952078929  4.85599095334087 39.9171952078929  C 2.36029303308914 38.8407329105004  0.530114558237866 32.961592670895  0.280544766212693 24.9295278365046  C -0.0522149564875385 16.4834390415786  3.85771178524018 12.1775898520085  4.02409164659029 12.0119802677942  C 4.10728157726535 11.9291754756871  4.19047150794041 11.9291754756871  4.27366143861547 11.84637068358  C 4.27366143861547 11.84637068358  4.35685136929052 11.84637068358  4.44004129996558 11.7635658914729  C 4.27366143861547 9.85905567300916  4.27366143861547 2.48942917547569  9.5146270711441 0.833333333333333  C 9.76419686316928 0.750528541226216  10.0969565858695 0.916138125440451  10.1801465165446 1.1645525017618  C 10.2633364472196 1.41296687808316  10.0969565858695 1.74418604651163  9.84738679384433 1.82699083861875  C 9.01548748709376 2.0754052149401  8.34996804169329 2.5722339675828  7.76763852696789 3.15186751233263  C 7.51806873494272 4.06272022551092  6.35340970549191 9.52783650458069  11.4279954766704 11.5151515151515  C 11.5943753380205 11.183932346723  12.0103249913958 10.6871035940803  12.5926545061212 10.3558844256519  C 13.7573135355721 9.69344608879493  15.3379222183982 9.69344608879493  17.3344805545995 10.2730796335448  C 21.1612173656522 11.4323467230444  23.9896750086042 13.5852713178295  27.6500319583067 16.3178294573643  C 28.7315010570825 17.1458773784355  29.8961600865333 17.9739252995067  31.1440090466591 18.884778012685  Z M 8.10039824966812 16.4006342494715  C 7.60125866561778 14.7445384073291  6.85254928954226 13.5852713178295  5.93746005211662 13.0884425651868  C 5.35513053739122 12.7572233967583  4.85599095334087 12.8400281888654  4.6064211613157 12.8400281888654  C 4.02409164659029 13.5852713178295  1.02925414228821 17.6427061310782  1.27882393431339 24.9295278365046  C 1.69477358768867 33.2928118393235  3.52495206253995 38.0126849894292  5.1887506760411 38.9235377026075  C 5.68789026009145 38.7579281183932  7.76763852696789 37.7642706131078  8.10039824966812 32.2991543340381  C 8.18358818034318 30.7258632840028  8.3499680416933 29.2353770260747  8.43315797236835 27.9105003523608  C 8.84910762574364 23.5218463706836  9.09867741776882 20.0440451021846  8.10039824966812 16.4006342494715  Z M 34.4716062736614 25.5091613812544  C 34.7211760656866 25.0951374207188  34.9707458577118 22.7766032417195  30.4784896012587 19.630021141649  C 29.2306406411328 18.7191684284708  27.9827916810069 17.8083157152925  26.9013225822312 16.9802677942213  C 23.3241555632037 14.3305144467935  20.5788878509268 12.2603946441156  16.9185309012242 11.1011275546159  C 15.2547322877231 10.6042988019732  13.9236933969222 10.6042988019732  13.0086041594965 11.1011275546159  C 12.4262746447711 11.4323467230444  12.176704852746 11.84637068358  12.0935149220709 12.0947850599013  C 12.4262746447711 13.0056377730796  14.2564531196224 17.6427061310782  20.5788878509268 21.2861169837914  C 27.8996017503319 25.5091613812544  32.8909975908353 26.4200140944327  34.4716062736614 25.5091613812544  Z M 24.0728649392792 19.2159971811135  C 24.6551944540046 18.222339675828  24.4056246619794 16.9802677942213  23.4073454938788 16.3178294573643  C 22.4090663257781 15.7381959126145  21.0780274349771 15.9866102889359  20.4956979202517 16.9802677942213  C 19.9133684055263 17.9739252995067  20.1629381975515 19.2988019732206  21.1612173656522 19.8784355179704  C 22.1594965337529 20.4580690627202  23.4905354245538 20.2096546863989  24.0728649392792 19.2159971811135  Z M 29.2306406411328 22.3625792811839  C 29.8129701558582 21.6173361522199  29.563400363833 20.6236786469345  28.7315010570825 20.1268498942918  C 27.9827916810069 19.630021141649  26.9013225822312 19.8784355179704  26.4853729288559 20.6236786469345  C 25.9862333448055 21.3689217758985  26.2358031368307 22.4453840732911  26.9845125129062 22.8594080338266  C 27.7332218889818 23.3562367864693  28.8146909877575 23.107822410148  29.2306406411328 22.3625792811839  Z M 18.9150892374256 15.5725863284003  C 19.414228821476 14.7445384073291  19.1646590294508 13.5852713178295  18.3327597227002 13.0884425651868  C 17.5008604159496 12.591613812544  16.3362013864988 12.8400281888654  15.8370618024485 13.6680761099366  C 15.3379222183981 14.4961240310078  15.5874920104233 15.6553911205074  16.4193913171739 16.1522198731501  C 17.2512906239245 16.6490486257928  18.4159496533753 16.4006342494715  18.9150892374256 15.5725863284003  Z " fill-rule="nonzero" fill="#168d4b" stroke="none" transform="matrix(1 0 0 1 510 115 )" />
  </g>
</svg>