<?xml version="1.0" encoding="utf-8"?>
<svg version="1.1" xmlns:xlink="http://www.w3.org/1999/xlink" width="820px" height="89px" xmlns="http://www.w3.org/2000/svg">
  <defs>
    <linearGradient gradientUnits="userSpaceOnUse" x1="205" y1="80.5994897959184" x2="205" y2="-17.3205677976706" id="LinearGradient1">
      <stop id="Stop2" stop-color="#f3f2f1" offset="0" />
      <stop id="Stop3" stop-color="#c6d9fd" offset="1" />
    </linearGradient>
  </defs>
  <g transform="matrix(1 0 0 1 70 -602 )">
    <path d="M 0 88  L 0 51  L 37.6285802279027 51  C 56.5691407453034 51.2073678870994  74.2469972282106 48.3180401818874  84.3486295041577 43.777668073697  L 110.360332614721 31.6012156017319  C 120.461964890668 26.8544629431693  138.139821373576 24.1715157883295  157.080381890976 24.1715157883295  C 173.49553433939 24.1715157883295  188.900523560209 22.1077102846066  199.254696643055 18.3928603779054  L 219.710502001848 11.1695411148753  C 230.317215891592 7.45469120817406  245.722205112411 5.39088570445117  261.884816753927 6  L 276.53218355405 6  C 293.957499230059 5.39088570445117  310.372651678472 7.86745230891864  320.726824761318 11.7886827659921  L 406.590699106868 45.4287124766753  C 433.360024638128 57.1924038478958  480.837696335079 54.7158372434283  480.837696335079 54.7158372434283  C 498.515552817986 54.7158372434283  527.810286418232 49.5563234841211  538.164459501078 45.4287124766753  L 544.983061287342 42.7457653218355  C 555.337234370188 38.6181543143898  572.0049276255 36.1415877099223  589.430243301509 37  L 611.401293501694 37  C 630.089313212196 36.1415877099223  647.514628888204 33.4586405550825  657.616261164152 28.7118878965199  L 699.79057591623 9.51849671189695  C 709.892208192177 4.97812460370659  727.317523868186 2.08879689849453  746.005543578688 2  L 820 2  L 820 88  L 0 88  Z " fill-rule="nonzero" fill="url(#LinearGradient1)" stroke="none" transform="matrix(1 0 0 1 -70 602 )" />
  </g>
</svg>