<?xml version="1.0" encoding="utf-8"?>
<svg version="1.1" xmlns:xlink="http://www.w3.org/1999/xlink" width="821px" height="57px" xmlns="http://www.w3.org/2000/svg">
  <g transform="matrix(1 0 0 1 70 -602 )">
    <path d="M 0 49.5  L 37.6285802279027 49.5  C 56.5691407453034 49.7951115715206  74.2469972282106 46.9854691043481  84.3486295041577 42.5703166559341  L 110.360332614721 30.7296805442786  C 120.461964890668 26.1138393482095  138.139821373576 23.5048856286922  157.080381890976 23.5048856286922  C 173.49553433939 23.5048856286922  188.900523560209 21.4979981521404  199.254696643055 17.8856006943472  L 219.710502001848 10.861494526416  C 230.317215891592 7.24909706862279  245.722205112411 5.242209592071  261.884816753927 5.242209592071  L 276.53218355405 5.242209592071  C 293.957499230059 5.242209592071  310.372651678472 7.65047456393314  320.726824761318 11.4635607693815  L 406.590699106868 44.1758266371756  C 433.360024638128 55.6150852535207  480.837696335079 53.2068202816586  480.837696335079 53.2068202816586  C 498.515552817986 53.2068202816586  527.810286418232 48.1896015902791  538.164459501078 44.1758266371756  L 544.983061287342 41.5668729176583  C 555.337234370188 37.5530979645547  572.0049276255 35.1448329926926  589.430243301509 35.5  L 611.401293501694 35.5  C 630.089313212196 35.1448329926926  647.514628888204 32.5358792731752  657.616261164152 27.9200380771061  L 699.79057591623 9.25598454517456  C 709.892208192177 4.84083209676064  727.317523868186 2.03118962958815  746.005543578688 2.5  L 820 2.5  " stroke-width="1" stroke="#4285f4" fill="none" transform="matrix(1 0 0 1 -70 602 )" />
  </g>
</svg>