<?xml version="1.0" encoding="utf-8"?>
<svg version="1.1" xmlns:xlink="http://www.w3.org/1999/xlink" width="88px" height="78px" xmlns="http://www.w3.org/2000/svg">
  <g transform="matrix(1 0 0 1 -283 -292 )">
    <path d="M 88 7.24899274778404  L 85.2083633741889 7.24899274778404  C 72.6459985580389 7.24899274778404  60.083633741889 9.09266720386784  48.451814467676 13.2409347300564  C 47.521268925739 10.9363416599516  46.1254506128335 8.63174858984689  44.2643595289594 7.24899274778404  C 42.4032684450853 5.40531829170023  40.0769045902427 4.02256244963738  37.7505407354001 3.10072522159547  C 35.4241768805576 1.25705076551167  32.6325402547465 0.796132151490721  29.8409036289354 0.796132151490721  C 27.0492670031243 0.796132151490721  24.2576303773131 1.25705076551167  21.9312665224706 2.17888799355357  C 19.604902667628 3.10072522159547  17.2785388127854 4.48348106365833  15.4174477289113 6.32715551974213  C 13.5563566450373 8.63174858984689  12.1605383321317 10.4754230459307  10.7647200192261 13.2409347300564  C 9.83417447728911 15.5455278001611  9.3689017063206 18.3110394842869  9.3689017063206 21.0765511684126  C 9.3689017063206 23.8420628525383  9.83417447728911 26.607574536664  10.7647200192261 28.9121676067687  C 11.2299927901947 29.8340048348106  11.6952655611632 30.7558420628525  12.1605383321317 31.6776792908944  C 8.90362893535208 33.9822723609992  5.64671953857246 36.7477840451249  2.85508291276136 39.9742143432715  L 2 40.8960515713135  L 2 77  L 88 77  L 88 7.24899274778404  Z M 17.2785388127854 27.9903303787268  C 16.8132660418169 27.5294117647059  16.8132660418169 27.0684931506849  16.3479932708484 26.607574536664  C 15.4174477289113 24.7639000805802  14.9521749579428 22.9202256244964  14.9521749579428 21.0765511684126  C 14.9521749579428 19.2328767123288  15.4174477289113 17.389202256245  16.3479932708484 15.5455278001612  C 17.2785388127854 13.7018533440774  18.2090843547224 12.3190975020145  19.604902667628 10.9363416599516  C 21.0007209805335 9.5535858178888  22.3965392934391 8.63174858984689  24.2576303773131 7.70991136180499  C 26.1187214611872 6.78807413376309  27.9798125450613 6.32715551974214  29.8409036289353 6.32715551974214  C 31.7019947128094 6.32715551974214  33.5630857966835 6.78807413376309  35.4241768805575 7.70991136180499  C 37.2852679644316 8.63174858984689  38.6810862773372 9.5535858178888  40.0769045902427 10.9363416599516  C 41.0074501321798 11.8581788879935  41.9379956741168 13.2409347300564  42.8685412160538 14.6236905721193  C 34.028358567652 17.8501208702659  25.1881759192502 22.4593070104754  17.2785388127854 27.9903303787268  Z M 7.50781062244653 72  L 8 71.7775987107171  L 8 43.2006446414182  C 10.2994472482576 40.8960515713135  13.0910838740687 38.5914585012087  15.8827204998798 36.2868654311039  C 17.2785388127854 34.9041095890411  19.1396298966595 33.9822723609992  20.535448209565 32.5995165189363  C 27.9798125450613 27.5294117647059  35.4241768805576 23.3811442385173  43.7990867579909 20.6156325543916  C 45.6601778418649 19.6937953263497  47.521268925739 19.2328767123288  49.3823600096131 18.7719580983078  C 56.8267243451093 16.4673650282031  64.2710886806056 14.6236905721192  71.7154530161019 14.1627719580983  C 49.3823600096131 27.5294117647059  32.1672674837779 47.8098307816277  22.3965392934391 72  L 7.50781062244653 72  Z M 55.4309060322038 71  L 29.3756308579668 71  C 38.6810862773372 49.6535052377115  54.5003604902668 31.2167606768735  74.9723624128815 18.7719580983078  C 64.2710886806056 34.4431909750201  57.7572698870464 52.4190169218372  55.4309060322038 71  Z M 82 18.3110394842869  L 82 71  L 61.4794520547945 71  C 63.8058159096371 52.4190169218372  70.7849074741649 33.9822723609992  82 18.3110394842869  Z " fill-rule="nonzero" fill="#168d4b" stroke="none" transform="matrix(1 0 0 1 283 292 )" />
  </g>
</svg>