<?xml version="1.0" encoding="utf-8"?>
<svg version="1.1" xmlns:xlink="http://www.w3.org/1999/xlink" width="20px" height="20px" xmlns="http://www.w3.org/2000/svg">
  <g transform="matrix(1 0 0 1 -250 -140 )">
    <path d="M 19.8 18.9  C 19.9 19.1  20 19.3  20 19.3  C 20 19.5  19.9 19.6  19.8 19.8  C 19.7 19.9  19.5 20  19.3 20  C 19.1 20  19 19.9  18.9 19.8  L 11.2 12.1  C 10.6 12.6  9.9 13  9.1 13.3  C 8.4 13.6  7.6 13.7  6.8 13.7  C 6.2 13.7  5.6 13.6  5 13.5  C 4.4 13.3  3.9 13.1  3.4 12.8  C 2.9 12.5  2.4 12.1  2 11.7  C 1.6 11.3  1.2 10.8  0.900000000000003 10.3  C 0.6 9.8  0.4 9.3  0.2 8.7  C 0.1 8.1  0 7.5  0 6.9  C 0 6.2  0.1 5.6  0.2 5  C 0.4 4.4  0.6 3.9  0.9 3.4  C 1.2 2.9  1.6 2.4  2 2  C 2.4 1.6  2.9 1.2  3.4 0.9  C 3.9 0.6  4.5 0.4  5 0.2  C 5.6 0.1  6.2 0  6.9 0  C 7.5 0  8.1 0.1  8.7 0.2  C 9.3 0.4  9.8 0.6  10.3 0.9  C 10.8 1.2  11.3 1.6  11.7 2  C 12.1 2.4  12.5 2.9  12.8 3.4  C 13.1 3.9  13.3 4.5  13.5 5  C 13.7 5.6  13.7 6.2  13.7 6.8  C 13.7 7.6  13.6 8.4  13.3 9.1  C 13 9.8  12.6 10.5  12.1 11.2  C 12.2 11.3  12.4 11.5  12.7 11.8  C 13 12.1  13.3 12.4  13.7 12.8  C 14.1 13.2  14.5 13.6  15 14  C 15.5 14.5  15.9 14.9  16.4 15.4  C 16.9 15.9  17.3 16.3  17.8 16.8  C 18.2 17.2  18.6 17.6  19 18  C 19.3 18.4  19.6 18.7  19.8 18.9  Z M 4.7 12.1  C 5.4 12.4  6.1 12.5  6.9 12.5  C 7.7 12.5  8.4 12.4  9.1 12.1  C 9.8 11.8  10.4 11.4  10.9 10.9  C 11.4 10.4  11.8 9.8  12.1 9.1  C 12.4 8.4  12.5 7.7  12.5 6.9  C 12.5 6.1  12.4 5.4  12.1 4.7  C 11.8 4  11.4 3.4  10.9 2.9  C 10.4 2.4  9.7 2  9.1 1.7  C 8.4 1.4  7.6 1.3  6.9 1.3  C 6.1 1.3  5.4 1.4  4.7 1.7  C 4 2  3.4 2.4  2.9 2.9  C 2.4 3.4  2 4  1.7 4.7  C 1.4 5.4  1.3 6.1  1.3 6.9  C 1.3 7.7  1.4 8.4  1.7 9.1  C 2 9.8  2.4 10.4  2.9 10.9  C 3.4 11.4  4 11.8  4.7 12.1  Z " fill-rule="nonzero" fill="#adadac" stroke="none" transform="matrix(1 0 0 1 250 140 )" />
  </g>
</svg>