<?xml version="1.0" encoding="utf-8"?>
<svg version="1.1" xmlns:xlink="http://www.w3.org/1999/xlink" width="220px" height="24px" xmlns="http://www.w3.org/2000/svg">
  <defs>
    <linearGradient gradientUnits="userSpaceOnUse" x1="55" y1="21.734693877551" x2="55" y2="-4.67071491173141" id="LinearGradient10">
      <stop id="Stop11" stop-color="#f3f2f1" offset="0" />
      <stop id="Stop12" stop-color="#c6d9fd" offset="1" />
    </linearGradient>
  </defs>
  <g transform="matrix(1 0 0 1 -20 -595 )">
    <path d="M 0 24  L 0 13.8087284189931  L 10.0954727440715 13.8087284189931  C 15.1770865414229 13.8087284189931  19.9199260856175 13.029583869273  22.6301201108716 11.80521386257  L 29.6088697259008 8.52167611732096  C 32.3190637511549 7.24165292849508  37.0619032953496 6.51816156089784  42.143517092701 6.51816156089784  C 46.5475823837388 6.51816156089784  50.6806282722513 5.9616297396692  53.4585771481367 4.95987246145763  L 58.9467200492763 3.01201108715738  C 61.792423775793 2.01025380894581  65.9254696643055 1.45372198771717  70.261780104712 1.45372198771717  L 74.1915614413305 1.45372198771717  C 78.8666461348937 1.45372198771717  83.2707114259316 2.12156017319154  86.0486603018171 3.17897063352597  L 109.085309516477 12.2504393195529  C 116.2673236834 15.4226707005562  129.005235602094 14.7548325150818  129.005235602094 14.7548325150818  C 133.748075146289 14.7548325150818  141.607637819526 13.3635029620102  144.385586695411 12.2504393195529  L 146.214967662458 11.5269479519557  C 148.992916538343 10.4138843094984  153.464736680012 9.74604612402399  158.139821373576 9.74604612402399  L 164.034493378503 9.74604612402399  C 169.048352325223 9.74604612402399  173.723437018787 9.02255475642675  176.433631044041 7.74253156760086  L 187.748691099476 2.56678563017446  C 190.458885124731 1.34241562347144  195.133969818294 0.563271073751335  200.147828765014 1  L 220 1  L 220 24  L 0 24  Z " fill-rule="nonzero" fill="url(#LinearGradient10)" stroke="none" transform="matrix(1 0 0 1 20 595 )" />
  </g>
</svg>