<?xml version="1.0" encoding="utf-8"?>
<svg version="1.1" xmlns:xlink="http://www.w3.org/1999/xlink" width="221px" height="16px" xmlns="http://www.w3.org/2000/svg">
  <g transform="matrix(1 0 0 1 -20 -595 )">
    <path d="M 0 13.5  L 10.0954727440715 13.5  C 15.1770865414229 13.3379763138001  19.9199260856175 12.5853935100932  22.6301201108716 11.4027633899824  L 29.6088697259008 8.2311644315032  C 32.3190637511549 6.99477839684184  37.0619032953496 6.29595150768542  42.143517092701 6.29595150768542  C 46.5475823837388 6.29595150768542  50.6806282722513 5.75839236218047  53.4585771481367 4.79078590027158  L 58.9467200492763 2.90932889100428  C 61.792423775793 1.94172242909539  65.9254696643055 1.40416328359045  70.261780104712 1.40416328359045  L 74.1915614413305 1.40416328359045  C 78.8666461348937 1.40416328359045  83.2707114259316 2.04923425819638  86.0486603018171 3.07059663465577  L 109.085309516477 11.8328107063863  C 116.2673236834 14.8968978357645  129.005235602094 14.2518268611586  129.005235602094 14.2518268611586  C 133.748075146289 14.2518268611586  141.607637819526 12.9079289973962  144.385586695411 11.8328107063863  L 146.214967662458 11.1339838172299  C 148.992916538343 10.05886552622  153.464736680012 9.41379455161408  158.139821373576 9.41379455161408  L 164.034493378503 9.41379455161408  C 169.048352325223 9.41379455161408  173.723437018787 8.71496766245765  176.433631044041 7.47858162779629  L 187.748691099476 2.47928157460033  C 190.458885124731 1.29665145448946  195.133969818294 0.54406865078254  200.147828765014 0.54406865078254  L 220 0.54406865078254  " stroke-width="1" stroke="#4285f4" fill="none" transform="matrix(1 0 0 1 20 595 )" />
  </g>
</svg>