<?xml version="1.0" encoding="utf-8"?>
<svg version="1.1" xmlns:xlink="http://www.w3.org/1999/xlink" width="20px" height="21px" xmlns="http://www.w3.org/2000/svg">
  <g transform="matrix(1 0 0 1 -10 -10 )">
    <path d="M 17.3684210526316 10.185  L 17.2631578947368 10.185  C 17.6842105263158 10.5  18 10.815  18.3157894736842 11.13  C 18.6315789473684 11.445  18.9473684210526 11.865  19.1578947368421 12.285  C 19.3684210526316 12.705  19.5789473684211 13.125  19.6842105263158 13.65  C 19.7894736842105 14.175  19.8947368421053 14.595  19.8947368421053 15.12  C 19.8947368421053 15.96  19.7894736842105 16.695  19.4736842105263 17.43  C 19.1578947368421 18.165  18.7368421052632 18.795  18.2105263157895 19.32  C 17.6842105263158 19.845  17.0526315789474 20.265  16.3157894736842 20.58  C 15.5789473684211 20.895  14.7368421052632 21  13.8947368421053 21  C 13.2631578947368 21  12.6315789473684 20.895  12.1052631578947 20.685  C 11.5789473684211 20.475  10.9473684210526 20.265  10.5263157894737 19.845  C 10.1052631578947 19.425  9.57894736842105 19.11  9.15789473684211 18.69  C 8.73684210526316 18.27  8.52631578947369 17.64  8.31578947368421 17.115  L 0.105263157894738 17.115  L 0.105263157894738 1.365  L 2.73684210526316 1.365  L 2.73684210526316 0  L 4.10526315789474 0  L 4.10526315789474 1.365  L 13.3684210526316 1.365  L 13.3684210526316 0  L 14.7368421052632 0  L 14.7368421052632 1.365  L 17.3684210526316 1.365  L 17.3684210526316 10.185  Z M 2.73684210526316 2.625  L 1.47368421052632 2.625  L 1.47368421052632 5.25  L 15.8947368421053 5.25  L 15.8947368421053 2.625  L 14.5263157894737 2.625  L 14.5263157894737 3.99  L 13.1578947368421 3.99  L 13.1578947368421 2.625  L 4.10526315789474 2.625  L 4.10526315789474 3.99  L 2.73684210526316 3.99  L 2.73684210526316 2.625  Z M 1.47368421052632 15.75  L 8 15.75  C 8 15.54  8 15.33  8 15.12  C 8 14.49  8.10526315789474 13.965  8.21052631578947 13.44  C 8.31578947368421 12.915  8.63157894736842 12.39  8.94736842105263 11.865  L 8 11.865  L 8 10.5  L 9.36842105263158 10.5  L 9.36842105263158 11.34  C 9.57894736842105 11.025  9.89473684210527 10.71  10.2105263157895 10.5  C 10.5263157894737 10.29  10.9473684210526 9.975  11.3684210526316 9.765  C 11.7894736842105 9.555  12.2105263157895 9.45  12.6315789473684 9.345  C 13.0526315789474 9.24  13.4736842105263 9.24  14 9.24  C 14.7368421052632 9.24  15.3684210526316 9.345  16 9.555  L 16 7  L 1.47368421052632 7  L 1.47368421052632 15.75  Z M 2.73684210526316 11.865  L 2.73684210526316 10.5  L 4.10526315789474 10.5  L 4.10526315789474 11.865  L 2.73684210526316 11.865  Z M 2.73684210526316 14.49  L 2.73684210526316 13.125  L 4.10526315789474 13.125  L 4.10526315789474 14.49  L 2.73684210526316 14.49  Z M 5.36842105263158 9.24  L 5.36842105263158 7.875  L 6.73684210526316 7.875  L 6.73684210526316 9.24  L 5.36842105263158 9.24  Z M 5.36842105263158 11.865  L 5.36842105263158 10.5  L 6.73684210526316 10.5  L 6.73684210526316 11.865  L 5.36842105263158 11.865  Z M 5.36842105263158 14.49  L 5.36842105263158 13.125  L 6.73684210526316 13.125  L 6.73684210526316 14.49  L 5.36842105263158 14.49  Z M 9.36842105263158 7.875  L 9.36842105263158 9.24  L 8 9.24  L 8 7.875  L 9.36842105263158 7.875  Z M 12.1052631578947 19.215  C 12.6315789473684 19.425  13.2631578947368 19.74  13.8947368421053 19.74  C 14.5263157894737 19.74  15.1578947368421 19.635  15.6842105263158 19.425  C 16.2105263157895 19.215  16.7368421052632 18.9  17.1578947368421 18.48  C 17.5789473684211 18.06  17.8947368421053 17.535  18.1052631578947 17.01  C 18.3157894736842 16.485  18.4210526315789 15.855  18.4210526315789 15.225  C 18.4210526315789 14.595  18.3157894736842 13.965  18.1052631578947 13.44  C 17.8947368421053 12.915  17.5789473684211 12.39  17.1578947368421 11.97  C 16.7368421052632 11.55  16.2105263157895 11.235  15.6842105263158 11.025  C 15.1578947368421 10.815  14.5263157894737 10.5  13.8947368421053 10.5  C 13.2631578947368 10.5  12.6315789473684 10.605  12.1052631578947 10.815  C 11.5789473684211 11.025  11.0526315789474 11.34  10.6315789473684 11.76  C 10.2105263157895 12.18  9.89473684210527 12.705  9.68421052631579 13.23  C 9.47368421052632 13.755  9.36842105263158 14.385  9.36842105263158 15.015  C 9.36842105263158 15.645  9.47368421052632 16.275  9.68421052631579 16.8  C 9.89473684210527 17.325  10.2105263157895 17.85  10.6315789473684 18.27  C 11.0526315789474 18.69  11.5789473684211 19.005  12.1052631578947 19.215  Z M 12 7.875  L 12 9.24  L 10.6315789473684 9.24  L 10.6315789473684 7.875  L 12 7.875  Z M 14.6315789473684 7.875  L 14.6315789473684 9.24  L 13.2631578947368 9.24  L 13.2631578947368 7.875  L 14.6315789473684 7.875  Z M 14.7368421052632 14.49  L 14.6315789473684 14.49  L 16.6315789473684 14.49  L 16.6315789473684 15.75  L 13.3684210526316 15.75  L 13.3684210526316 11.76  L 14.7368421052632 11.76  L 14.7368421052632 14.49  Z " fill-rule="nonzero" fill="#ffffff" stroke="none" transform="matrix(1 0 0 1 10 10 )" />
  </g>
</svg>