<?xml version="1.0" encoding="utf-8"?>
<svg version="1.1" xmlns:xlink="http://www.w3.org/1999/xlink" width="8px" height="11px" xmlns="http://www.w3.org/2000/svg">
  <g transform="matrix(1 0 0 1 -21 -136 )">
    <path d="M 7.85 7.4  C 7.95 7.2  7.75 7  7.45 7  C 7.15 7  6.95 7.3  7.05 7.5  C 7.05 8  6.95 8.3  6.75 8.6  C 6.75 8.6  6.75 8.6  6.65 8.7  L 6.05 7.5  C 6.15 7.4  6.35 7.2  6.45 7.1  C 6.75 6.6  6.95 6  6.95 5.3  C 6.95 5  6.65 4.8  6.45 4.9  C 6.15 4.9  5.95 5.2  6.05 5.4  C 6.05 5.9  5.95 6.2  5.75 6.5  C 5.75 6.5  5.75 6.5  5.65 6.6  L 5.05 5.4  C 5.15 5.3  5.35 5.1  5.45 5  C 5.75 4.5  5.95 3.9  5.95 3.2  C 5.95 2.9  5.65 2.7  5.45 2.8  C 5.15 2.8  4.95 3.1  5.05 3.3  C 5.05 3.8  4.95 4.1  4.75 4.4  C 4.75 4.4  4.75 4.4  4.65 4.5  L 4.05 3.3  C 4.15 3.2  4.25 3.1  4.35 2.9  C 4.65 2.4  4.85 1.8  4.85 1.1  C 4.85 0.800000000000001  4.55 0.600000000000001  4.35 0.7  C 4.05 0.7  3.85 1  3.85 1.2  C 3.85 1.7  3.75 2  3.55 2.3  C 3.55 2.3  3.55 2.3  3.45 2.4  L 2.45 0.5  C 2.45 0.3  2.25 0.2  1.95 0.3  C 1.75 0.4  1.65 0.7  1.75 0.9  L 2.75 2.9  C 2.65 2.9  2.45 2.9  2.35 2.9  C 2.05 2.9  1.85 2.7  1.65 2.4  C 1.45 2.3  1.15 2.2  0.949999999999999 2.4  C 0.749999999999999 2.6  0.649999999999999 2.9  0.849999999999999 3.1  C 1.25 3.5  1.65 3.8  2.15 3.9  C 2.45 4  2.85 3.9  3.15 3.8  L 3.75 5  C 3.65 5  3.45 5  3.35 5  C 3.05 5  2.85 4.8  2.65 4.5  C 2.45 4.3  2.15 4.3  1.95 4.4  C 1.75 4.6  1.75 4.9  1.85 5.1  C 2.25 5.6  2.75 5.9  3.25 6  C 3.55 6.1  3.95 6  4.25 5.9  L 4.85 7.1  C 4.75 7.1  4.55 7.1  4.45 7.1  C 4.15 7.1  3.95 6.9  3.75 6.6  C 3.55 6.4  3.25 6.4  3.05 6.5  C 2.85 6.7  2.85 7  2.95 7.2  C 3.35 7.7  3.75 8  4.25 8.1  C 4.55 8.2  4.95 8.1  5.25 8  L 5.85 9.2  C 5.75 9.2  5.55 9.2  5.45 9.2  C 5.15 9.2  4.95 9  4.75 8.7  C 4.55 8.5  4.25 8.5  4.05 8.6  C 3.85 8.8  3.85 9.1  3.95 9.3  C 4.35 9.8  4.75 10  5.25 10.1  C 5.55 10.2  5.95 10.1  6.25 10  L 6.35 10.3  C 6.45 10.5  6.75 10.6  6.95 10.5  C 7.15 10.4  7.25 10.1  7.15 9.9  L 6.95 9.6  C 7.05 9.5  7.25 9.3  7.35 9.2  C 7.65 8.7  7.85 8.1  7.85 7.4  Z " fill-rule="nonzero" fill="#168d4b" stroke="none" transform="matrix(1 0 0 1 21 136 )" />
  </g>
</svg>