<?xml version="1.0" encoding="utf-8"?>
<svg version="1.1" xmlns:xlink="http://www.w3.org/1999/xlink" width="20px" height="14px" xmlns="http://www.w3.org/2000/svg">
  <g transform="matrix(1 0 0 1 -10 -13 )">
    <path d="M 0 1.4  L 0 0.0999999999999989  L 1.3 0.0999999999999989  L 1.3 1.4  L 0 1.4  Z M 0 3.9  L 0 2.6  L 1.3 2.6  L 1.3 3.9  L 0 3.9  Z M 0 6.4  L 0 5.1  L 1.3 5.1  L 1.3 6.4  L 0 6.4  Z M 0 8.9  L 0 7.6  L 1.3 7.6  L 1.3 8.9  L 0 8.9  Z M 0 11.4  L 0 10.1  L 1.3 10.1  L 1.3 11.4  L 0 11.4  Z M 0 13.9  L 0 12.6  L 1.3 12.6  L 1.3 13.9  L 0 13.9  Z M 2.5 1.4  L 2.5 0.0999999999999989  L 3.8 0.0999999999999989  L 3.8 1.4  L 2.5 1.4  Z M 2.5 13.9  L 2.5 12.6  L 3.8 12.6  L 3.8 13.9  L 2.5 13.9  Z M 5 14  L 5 0  L 15 0  L 15 14  L 5 14  Z M 6.3 1.4  L 6.3 12.6  L 13.8 12.6  L 13.8 1.4  L 6.3 1.4  Z M 16.3 1.4  L 16.3 0.0999999999999989  L 17.6 0.0999999999999989  L 17.6 1.4  L 16.3 1.4  Z M 16.3 13.9  L 16.3 12.6  L 17.6 12.6  L 17.6 13.9  L 16.3 13.9  Z M 18.7 0.0999999999999989  L 20 0.0999999999999989  L 20 1.4  L 18.7 1.4  L 18.7 0.0999999999999989  Z M 18.7 2.6  L 18.8 2.6  L 20 2.6  L 20 3.9  L 18.7 3.9  L 18.7 2.6  Z M 18.7 5.1  L 18.8 5.1  L 20 5.1  L 20 6.4  L 18.7 6.4  L 18.7 5.1  Z M 18.7 7.6  L 18.8 7.6  L 20 7.6  L 20 8.9  L 18.7 8.9  L 18.7 7.6  Z M 18.7 10.1  L 18.8 10.1  L 20 10.1  L 20 11.4  L 18.7 11.4  L 18.7 10.1  Z M 18.7 12.6  L 18.8 12.6  L 20 12.6  L 20 13.9  L 18.7 13.9  L 18.7 12.6  Z " fill-rule="nonzero" fill="#ffffff" stroke="none" transform="matrix(1 0 0 1 10 13 )" />
  </g>
</svg>