<?xml version="1.0" encoding="utf-8"?>
<svg version="1.1" xmlns:xlink="http://www.w3.org/1999/xlink" width="13px" height="15px" xmlns="http://www.w3.org/2000/svg">
  <g transform="matrix(1 0 0 1 -21 -25 )">
    <path d="M 6.38917089678511 14.6835871404399  C 5.79018612521151 14.8832487309645  5.1912013536379 14.9830795262267  4.5922165820643 14.9830795262267  C 3.69373942470389 14.9830795262267  2.89509306260575 14.8832487309645  2.19627749576988 14.5837563451777  C 1.49746192893401 14.2842639593909  0.998307952622673 13.7851099830795  0.598984771573604 13.1861252115059  C 0.199661590524535 12.5871404399323  0 11.7884940778342  0 10.8900169204738  C 0 10.0913705583756  0.0998307952622673 9.49238578680203  0.399323181049069 8.89340101522843  C 0.698815566835871 8.39424703891709  0.998307952622673 7.89509306260575  1.49746192893401 7.59560067681895  C 1.99661590524535 7.29610829103215  2.49576988155668 6.99661590524535  3.09475465313029 6.79695431472081  C 3.69373942470389 6.59729272419628  4.39255499153976 6.49746192893401  5.09137055837563 6.49746192893401  C 5.89001692047377 6.39763113367174  6.48900169204738 6.39763113367174  6.98815566835871 6.29780033840948  C 7.48730964467005 6.19796954314721  7.78680203045685 6.09813874788494  8.08629441624365 5.89847715736041  C 8.28595600676819 5.69881556683587  8.38578680203046 5.49915397631134  8.38578680203046 5.19966159052453  C 8.38578680203046 4.7005076142132  8.18612521150592 4.4010152284264  7.88663282571912 4.10152284263959  C 7.68697123519459 3.90186125211506  7.18781725888325 3.80203045685279  6.68866328257191 3.80203045685279  C 6.08967851099831 3.80203045685279  5.59052453468697 3.90186125211506  5.29103214890017 4.20135363790186  C 4.8917089678511 4.50084602368866  4.69204737732657 4.80033840947547  4.5922165820643 5.19966159052454  L 0.499153976311338 5.09983079526227  C 0.598984771573605 4.30118443316413  0.898477157360407 3.50253807106599  1.39763113367174 2.80372250423012  C 1.99661590524535 2.10490693739425  2.59560067681895 1.60575296108291  3.49407783417936 1.20642978003384  C 4.39255499153976 0.807106598984772  5.39086294416244 0.607445008460238  6.68866328257191 0.607445008460238  C 7.58714043993232 0.607445008460238  8.38578680203046 0.707275803722505  9.18443316412859 0.90693739424704  C 9.88324873096446 1.10659898477157  10.5820642978003 1.40609137055838  11.1810490693739 1.80541455160745  C 11.7800338409475 2.20473773265652  12.1793570219966 2.70389170896785  12.4788494077834 3.30287648054146  C 12.7783417935702 3.90186125211506  12.9780033840948 4.50084602368866  12.9780033840948 5.2994923857868  L 12.9780033840948 14.6835871404399  L 8.68527918781726 14.6835871404399  L 8.68527918781726 12.7868020304569  L 8.58544839255499 12.7868020304569  C 8.38578680203046 13.2859560067682  7.98646362098139 13.6852791878173  7.68697123519459 13.9847715736041  C 7.28764805414552 14.2842639593909  6.88832487309645 14.5837563451777  6.38917089678511 14.6835871404399  Z M 4.69204737732656 11.5888324873096  C 4.99153976311337 11.9881556683587  5.39086294416244 12.087986463621  5.89001692047377 12.087986463621  C 6.38917089678511 12.087986463621  6.78849407783418 11.9881556683587  7.18781725888325 11.7884940778342  C 7.58714043993232 11.5888324873096  7.88663282571912 11.2893401015228  8.08629441624365 10.989847715736  C 8.28595600676819 10.6903553299492  8.38578680203046 10.2910321489002  8.38578680203046 9.79187817258883  L 8.38578680203046 8.49407783417936  C 8.28595600676819 8.59390862944162  8.08629441624365 8.59390862944162  7.88663282571912 8.69373942470389  C 7.68697123519459 8.79357021996616  7.48730964467005 8.79357021996616  7.28764805414552 8.89340101522843  C 7.08798646362098 8.89340101522843  6.88832487309645 8.99323181049069  6.58883248730965 8.99323181049069  C 6.58883248730964 8.99323181049069  6.38917089678511 8.99323181049069  6.18950930626058 8.99323181049069  C 5.79018612521151 9.09306260575296  5.39086294416244 9.19289340101523  5.09137055837563 9.2927241962775  C 4.79187817258883 9.39255499153976  4.5922165820643 9.5922165820643  4.39255499153976 9.79187817258883  C 4.19289340101523 9.99153976311337  4.19289340101523 10.2910321489002  4.19289340101523 10.590524534687  C 4.19289340101523 11.0896785109983  4.39255499153976 11.3891708967851  4.69204737732656 11.5888324873096  Z " fill-rule="nonzero" fill="#ffffff" stroke="none" transform="matrix(1 0 0 1 21 25 )" />
  </g>
</svg>