<?xml version="1.0" encoding="utf-8"?>
<svg version="1.1" xmlns:xlink="http://www.w3.org/1999/xlink" width="6px" height="20px" xmlns="http://www.w3.org/2000/svg">
  <g transform="matrix(1 0 0 1 -35 -20 )">
    <path d="M 4.86802030456853 3.61082910321489  C 4.36886632825719 4.01015228426396  3.86971235194585 4.20981387478849  3.17089678510998 4.20981387478849  C 2.57191201353638 4.20981387478849  1.97292724196277 4.01015228426396  1.5736040609137 3.61082910321489  C 1.17428087986463 3.21150592216582  0.974619289340101 2.71235194585448  0.974619289340101 2.11336717428088  C 0.974619289340101 1.51438240270728  1.17428087986463 1.01522842639594  1.67343485617597 0.615905245346871  C 2.07275803722504 0.216582064297801  2.67174280879864 0.0169204737732664  3.27072758037225 0.0169204737732664  C 3.86971235194585 0.0169204737732664  4.46869712351946 0.216582064297801  4.86802030456853 0.615905245346871  C 5.2673434856176 1.01522842639594  5.5668358714044 1.51438240270728  5.5668358714044 2.11336717428088  C 5.5668358714044 2.71235194585448  5.36717428087987 3.21150592216582  4.86802030456853 3.61082910321489  Z M 5.36717428087986 19.6835871404399  L 1 19.6835871404399  L 1 5.80710659898477  L 5.36717428087986 5.80710659898477  L 5.36717428087986 19.6835871404399  Z " fill-rule="nonzero" fill="#ffffff" stroke="none" transform="matrix(1 0 0 1 35 20 )" />
  </g>
</svg>