<?xml version="1.0" encoding="utf-8"?>
<svg version="1.1" xmlns:xlink="http://www.w3.org/1999/xlink" width="10px" height="15px" xmlns="http://www.w3.org/2000/svg">
  <g transform="matrix(1 0 0 1 -42 -25 )">
    <path d="M 0.763113367174281 14.4839255499154  L 0.763113367174281 14.6835871404399  L 0.763113367174281 0.807106598984772  L 5.05583756345177 0.807106598984772  L 5.05583756345177 3.30287648054146  L 5.15566835871405 3.30287648054146  C 5.45516074450085 2.40439932318105  5.85448392554991 1.70558375634518  6.35363790186125 1.30626057529611  C 6.95262267343486 0.90693739424704  7.55160744500846 0.607445008460238  8.3502538071066 0.607445008460238  C 8.54991539763113 0.607445008460238  8.74957698815567 0.607445008460238  8.94923857868021 0.607445008460238  C 9.14890016920474 0.607445008460238  9.34856175972927 0.707275803722505  9.54822335025381 0.707275803722505  L 9.54822335025381 4.50084602368866  C 9.34856175972928 4.4010152284264  9.04906937394247 4.4010152284264  8.74957698815567 4.30118443316413  C 8.45008460236887 4.30118443316413  8.15059221658207 4.20135363790186  7.85109983079527 4.20135363790186  C 7.35194585448393 4.20135363790186  6.85279187817259 4.30118443316413  6.45346869712353 4.50084602368866  C 6.05414551607446 4.7005076142132  5.75465313028765 5.09983079526227  5.45516074450085 5.49915397631134  C 5.25549915397632 5.89847715736041  5.05583756345178 6.39763113367174  5.05583756345178 6.99661590524535  L 5.05583756345178 14.4839255499154  L 0.763113367174281 14.4839255499154  Z " fill-rule="nonzero" fill="#ffffff" stroke="none" transform="matrix(1 0 0 1 42 25 )" />
  </g>
</svg>