<?xml version="1.0" encoding="utf-8"?>
<svg version="1.1" xmlns:xlink="http://www.w3.org/1999/xlink" width="14px" height="15px" xmlns="http://www.w3.org/2000/svg">
  <g transform="matrix(1 0 0 1 -52 -25 )">
    <path d="M 13.824027072758 8.79357021996616  L 13.824027072758 8.89340101522843  L 13.824027072758 7.79526226734349  C 13.824027072758 6.69712351945855  13.6243654822335 5.59898477157361  13.3248730964467 4.80033840947547  C 12.9255499153976 3.80203045685279  12.5262267343486 3.10321489001692  11.927241962775 2.50423011844332  C 11.3282571912014 1.90524534686971  10.6294416243655 1.40609137055838  9.83079526226734 1.10659898477157  C 9.0321489001692 0.807106598984772  8.13367174280879 0.607445008460237  7.13536379018612 0.607445008460237  C 5.73773265651437 0.607445008460237  4.53976311336717 0.906937394247039  3.54145516074449 1.50592216582064  C 2.54314720812182 2.10490693739425  1.74450084602368 2.90355329949239  1.14551607445008 4.00169204737733  C 0.546531302876474 5.09983079526227  0.247038917089672 6.29780033840948  0.247038917089672 7.79526226734349  C 0.247038917089672 9.2927241962775  0.546531302876478 10.590524534687  1.04568527918781 11.5888324873096  C 1.64467005076141 12.6869712351946  2.44331641285955 13.4856175972927  3.44162436548223 14.0846023688663  C 4.53976311336717 14.6835871404399  5.73773265651437 14.9830795262267  7.23519458544838 14.9830795262267  C 8.43316412859559 14.9830795262267  9.53130287648052 14.7834179357022  10.4297800338409 14.3840947546531  C 11.3282571912013 13.9847715736041  12.1269035532995 13.4856175972927  12.6260575296108 12.7868020304568  C 13.2250423011844 12.087986463621  13.5245346869712 11.2893401015228  13.7241962774958 10.3908629441624  L 9.6311336717428 10.2910321489002  C 9.53130287648053 10.590524534687  9.331641285956 10.8900169204738  9.13197969543146 11.0896785109983  C 8.93231810490693 11.2893401015228  8.63282571912013 11.4890016920474  8.33333333333333 11.5888324873096  C 8.03384094754653 11.6886632825719  7.63451776649745 11.7884940778342  7.23519458544839 11.7884940778342  C 6.63620981387478 11.7884940778342  6.13705583756344 11.6886632825719  5.73773265651437 11.3891708967851  C 5.33840947546531 11.1895093062606  5.0389170896785 10.7901861252115  4.83925549915397 10.3908629441624  C 4.63959390862944 9.99153976311337  4.53976311336717 9.49238578680203  4.53976311336717 8.89340101522843  L 4.53976311336717 8.79357021996616  L 13.824027072758 8.79357021996616  Z M 4.93908629441623 5.19966159052454  C 5.13874788494078 4.7005076142132  5.43824027072758 4.4010152284264  5.83756345177665 4.20135363790186  C 6.23688663282572 4.00169204737733  6.63620981387478 3.90186125211506  7.13536379018612 3.90186125211506  C 7.63451776649745 3.90186125211506  8.03384094754652 4.00169204737733  8.43316412859559 4.20135363790186  C 8.83248730964466 4.4010152284264  9.13197969543146 4.7005076142132  9.331641285956 5.09983079526227  C 9.53130287648053 5.49915397631134  9.63113367174279 5.89847715736041  9.63113367174279 6.39763113367174  L 4.53976311336716 6.39763113367174  C 4.53976311336716 5.99830795262267  4.63959390862943 5.5989847715736  4.93908629441623 5.19966159052454  Z " fill-rule="nonzero" fill="#ffffff" stroke="none" transform="matrix(1 0 0 1 52 25 )" />
  </g>
</svg>