<?xml version="1.0" encoding="utf-8"?>
<svg version="1.1" xmlns:xlink="http://www.w3.org/1999/xlink" width="10px" height="4px" xmlns="http://www.w3.org/2000/svg">
  <g transform="matrix(1 0 0 1 -54 -21 )">
    <path d="M 3.63790186125211 2.61082910321489  C 3.33840947546531 2.91032148900169  3.23857868020304 3.30964467005076  3.23857868020304 3.70896785109983  L 0.343485617597288 3.70896785109983  C 0.343485617597288 2.61082910321489  0.742808798646358 1.71235194585448  1.64128595600676 1.01353637901861  C 2.43993231810489 0.314720812182742  3.63790186125211 0.0152284263959399  5.03553299492385 0.0152284263959399  C 6.43316412859559 0.0152284263959399  7.6311336717428 0.314720812182742  8.42978003384093 1.01353637901861  C 9.22842639593907 1.71235194585448  9.72758037225041 2.61082910321489  9.72758037225041 3.70896785109983  L 6.83248730964466 3.70896785109983  C 6.83248730964466 3.30964467005076  6.73265651438239 2.91032148900169  6.43316412859559 2.61082910321489  C 6.13367174280879 2.31133671742809  5.73434856175972 2.11167512690355  5.03553299492385 2.11167512690355  C 4.43654822335024 2.11167512690355  3.93739424703891 2.31133671742809  3.63790186125211 2.61082910321489  Z " fill-rule="nonzero" fill="#e5db24" stroke="none" transform="matrix(1 0 0 1 54 21 )" />
  </g>
</svg>