<?xml version="1.0" encoding="utf-8"?>
<svg version="1.1" xmlns:xlink="http://www.w3.org/1999/xlink" width="14px" height="15px" xmlns="http://www.w3.org/2000/svg">
  <g transform="matrix(1 0 0 1 -66 -25 )">
    <path d="M 11.9035532994924 1.90524534686972  C 12.901861252115 2.60406091370558  13.5008460236887 3.70219966159052  13.6006768189509 5.09983079526227  L 9.50761421319796 5.19966159052453  C 9.50761421319796 4.90016920473773  9.30795262267342 4.7005076142132  9.20812182741116 4.4010152284264  C 9.00846023688662 4.20135363790186  8.80879864636209 4.00169204737733  8.50930626057529 3.90186125211506  C 8.20981387478849 3.80203045685279  7.91032148900169 3.70219966159052  7.51099830795262 3.70219966159052  C 7.01184433164128 3.70219966159052  6.61252115059221 3.80203045685279  6.21319796954314 4.00169204737733  C 5.81387478849408 4.20135363790186  5.71404399323181 4.50084602368866  5.71404399323181 4.80033840947547  C 5.71404399323181 5.09983079526227  5.81387478849408 5.2994923857868  6.01353637901861 5.49915397631134  C 6.21319796954313 5.69881556683587  6.61252115059221 5.89847715736041  7.21150592216582 5.99830795262267  L 9.90693739424704 6.49746192893401  C 11.3045685279188 6.79695431472081  12.3028764805414 7.19627749576988  13.0016920473773 7.79526226734349  C 13.7005076142132 8.39424703891709  14 9.19289340101523  14 10.1912013536379  C 14 11.1895093062606  13.7005076142132 11.9881556683587  13.2013536379019 12.6869712351946  C 12.6023688663283 13.3857868020305  11.9035532994924 13.9847715736041  10.9052453468697 14.2842639593909  C 9.90693739424705 14.6835871404399  8.8087986463621 14.8832487309645  7.6108291032149 14.8832487309645  C 5.61421319796955 14.8832487309645  4.11675126903554 14.4839255499154  2.91878172588834 13.6852791878173  C 1.82064297800339 12.8866328257191  1.12182741116752 11.7884940778342  0.922165820642987 10.3908629441624  L 5.31472081218275 10.2910321489002  C 5.41455160744502 10.7901861252115  5.61421319796955 11.1895093062606  6.11336717428089 11.4890016920474  C 6.51269035532995 11.7884940778342  7.01184433164129 11.8883248730965  7.61082910321489 11.8883248730965  C 8.2098138747885 11.8883248730965  8.60913705583757 11.7884940778342  9.00846023688663 11.5888324873096  C 9.4077834179357 11.3891708967851  9.50761421319797 11.0896785109983  9.50761421319797 10.7901861252115  C 9.50761421319797 10.4906937394247  9.4077834179357 10.1912013536379  9.1082910321489 9.99153976311337  C 8.8087986463621 9.79187817258884  8.40947546531303 9.69204737732657  7.81049069373943 9.5922165820643  L 5.41455160744502 9.09306260575296  C 4.01692047377327 8.79357021996616  3.0186125211506 8.39424703891709  2.31979695431473 7.69543147208122  C 1.62098138747886 6.99661590524535  1.32148900169206 6.09813874788494  1.32148900169206 5.09983079526227  C 1.32148900169206 4.20135363790186  1.52115059221659 3.40270727580373  2.02030456852793 2.70389170896785  C 2.51945854483927 2.00507614213198  3.21827411167514 1.50592216582065  4.11675126903554 1.20642978003384  C 5.01522842639595 0.906937394247042  6.11336717428089 0.707275803722507  7.41116751269036 0.707275803722507  C 9.30795262267344 0.707275803722507  10.8054145516075 1.10659898477158  11.9035532994924 1.90524534686972  Z " fill-rule="nonzero" fill="#ffffff" stroke="none" transform="matrix(1 0 0 1 66 25 )" />
  </g>
</svg>