<?xml version="1.0" encoding="utf-8"?>
<svg version="1.1" xmlns:xlink="http://www.w3.org/1999/xlink" width="20px" height="20px" xmlns="http://www.w3.org/2000/svg">
  <g transform="matrix(1 0 0 1 -956 -490 )">
    <path d="M 12.6595744680851 19.468085106383  C 11.8085106382979 19.7872340425532  10.8510638297872 20  10 20  C 9.04255319148936 20  8.19148936170213 19.8936170212766  7.3404255319149 19.6808510638298  C 6.48936170212766 19.468085106383  5.74468085106383 19.1489361702128  5 18.7234042553191  C 4.25531914893617 18.2978723404255  3.61702127659574 17.7659574468085  2.97872340425532 17.1276595744681  C 2.34042553191489 16.4893617021277  1.80851063829787 15.8510638297872  1.38297872340426 15.1063829787234  C 0.957446808510639 14.3617021276596  0.638297872340426 13.6170212765957  0.425531914893617 12.7659574468085  C 0.106382978723404 11.8085106382979  0 10.8510638297872  0 10  C 0 9.04255319148936  0.106382978723404 8.19148936170212  0.319148936170213 7.34042553191489  C 0.531914893617021 6.48936170212766  0.851063829787234 5.74468085106383  1.27659574468085 5  C 1.70212765957447 4.25531914893617  2.23404255319149 3.61702127659574  2.87234042553191 2.97872340425532  C 3.51063829787234 2.34042553191489  4.14893617021277 1.80851063829787  4.8936170212766 1.38297872340426  C 5.63829787234043 0.957446808510638  6.38297872340426 0.638297872340426  7.23404255319149 0.425531914893617  C 8.19148936170213 0.106382978723404  9.04255319148936 0  10 0  C 10.9574468085106 0  11.8085106382979 0.106382978723404  12.6595744680851 0.319148936170213  C 13.5106382978723 0.531914893617021  14.2553191489362 0.851063829787234  15 1.27659574468085  C 15.7446808510638 1.70212765957447  16.3829787234043 2.23404255319149  17.0212765957447 2.87234042553191  C 17.6595744680851 3.51063829787234  18.1914893617021 4.14893617021277  18.6170212765957 4.89361702127659  C 19.0425531914894 5.63829787234042  19.3617021276596 6.38297872340425  19.5744680851064 7.23404255319149  C 19.7872340425532 8.08510638297872  19.8936170212766 8.93617021276595  19.8936170212766 9.89361702127659  C 19.8936170212766 10.8510638297872  19.7872340425532 11.7021276595745  19.5744680851064 12.5531914893617  C 19.3617021276596 13.4042553191489  19.0425531914894 14.1489361702128  18.6170212765957 14.8936170212766  C 18.1914893617021 15.6382978723404  17.6595744680851 16.2765957446808  17.0212765957447 16.9148936170213  C 16.3829787234043 17.5531914893617  15.7446808510638 18.0851063829787  15 18.5106382978723  C 14.2553191489362 18.936170212766  13.5106382978723 19.2553191489362  12.6595744680851 19.468085106383  Z M 12.3404255319149 1.70212765957447  C 11.7021276595745 1.48936170212766  10.7446808510638 1.38297872340426  10 1.38297872340426  C 9.25531914893617 1.38297872340426  8.40425531914894 1.48936170212766  7.65957446808511 1.70212765957447  C 6.91489361702128 1.91489361702128  6.27659574468085 2.12765957446808  5.63829787234043 2.5531914893617  C 5 2.97872340425532  4.36170212765957 3.29787234042553  3.82978723404255 3.82978723404255  C 3.29787234042553 4.36170212765957  2.87234042553191 4.89361702127659  2.4468085106383 5.53191489361702  C 2.12765957446809 6.27659574468085  1.80851063829787 6.91489361702128  1.59574468085106 7.6595744680851  C 1.38297872340426 8.40425531914893  1.38297872340426 9.14893617021276  1.38297872340426 10  C 1.38297872340426 10.8510638297872  1.48936170212766 11.5957446808511  1.70212765957447 12.3404255319149  C 1.91489361702128 13.0851063829787  2.23404255319149 13.7234042553191  2.5531914893617 14.3617021276596  C 2.97872340425532 15  3.40425531914894 15.6382978723404  3.93617021276596 16.063829787234  C 4.46808510638298 16.5957446808511  5 17.0212765957447  5.63829787234043 17.4468085106383  C 6.27659574468085 17.8723404255319  6.91489361702128 18.0851063829787  7.65957446808511 18.2978723404255  C 8.40425531914894 18.5106382978723  9.14893617021277 18.6170212765957  10 18.6170212765957  C 10.7446808510638 18.6170212765957  11.5957446808511 18.5106382978723  12.3404255319149 18.2978723404255  C 13.0851063829787 18.0851063829787  13.7234042553192 17.7659574468085  14.3617021276596 17.4468085106383  C 15 17.1276595744681  15.6382978723404 16.5957446808511  16.063829787234 16.063829787234  C 16.5957446808511 15.531914893617  17.0212765957447 15  17.4468085106383 14.3617021276596  C 17.8723404255319 13.7234042553191  18.0851063829787 13.0851063829787  18.2978723404255 12.3404255319149  C 18.5106382978723 11.5957446808511  18.6170212765958 10.8510638297872  18.6170212765958 10  C 18.6170212765958 9.25531914893617  18.5106382978723 8.40425531914894  18.2978723404255 7.65957446808511  C 18.0851063829787 6.91489361702128  17.7659574468085 6.27659574468085  17.4468085106383 5.63829787234043  C 17.0212765957447 5  16.5957446808511 4.36170212765958  16.063829787234 3.93617021276596  C 15.531914893617 3.40425531914894  15 2.97872340425532  14.3617021276596 2.5531914893617  C 13.7234042553192 2.12765957446809  12.9787234042553 1.91489361702128  12.3404255319149 1.70212765957447  Z M 9.36170212765958 6.70212765957447  L 9.36170212765958 5.31914893617021  L 10.6382978723404 5.31914893617021  L 10.6382978723404 6.70212765957447  L 9.36170212765958 6.70212765957447  Z M 9.36170212765958 14.6808510638298  L 9.36170212765958 7.97872340425532  L 10.6382978723404 7.97872340425532  L 10.6382978723404 14.6808510638298  L 9.36170212765958 14.6808510638298  Z " fill-rule="nonzero" fill="#168d4b" stroke="none" transform="matrix(1 0 0 1 956 490 )" />
  </g>
</svg>