<?xml version="1.0" encoding="utf-8"?>
<svg version="1.1" xmlns:xlink="http://www.w3.org/1999/xlink" width="20px" height="20px" xmlns="http://www.w3.org/2000/svg">
  <g transform="matrix(1 0 0 1 -10 -10 )">
    <path d="M 12.5714285714286 19.6571428571429  C 11.7714285714286 19.8857142857143  10.9714285714286 20  10.0571428571429 20  C 9.14285714285714 20  8.22857142857143 19.8857142857143  7.42857142857143 19.6571428571429  C 6.51428571428571 19.4285714285714  5.71428571428571 19.0857142857143  4.91428571428571 18.6285714285714  C 4.11428571428571 18.1714285714286  3.54285714285714 17.7142857142857  2.85714285714286 17.0285714285714  C 2.28571428571429 16.4571428571429  1.71428571428571 15.7714285714286  1.25714285714286 14.9714285714286  C 0.8 14.2857142857143  0.457142857142857 13.4857142857143  0.228571428571429 12.5714285714286  C 0.114285714285714 11.7714285714286  0 10.9714285714286  0 10.0571428571429  C 0 9.14285714285714  0.114285714285714 8.22857142857143  0.342857142857143 7.42857142857143  C 0.571428571428571 6.51428571428571  0.914285714285714 5.71428571428571  1.37142857142857 4.91428571428571  C 1.82857142857143 4.22857142857143  2.28571428571429 3.54285714285714  2.97142857142857 2.97142857142857  C 3.54285714285714 2.4  4.22857142857143 1.82857142857143  5.02857142857143 1.37142857142857  C 5.82857142857143 0.914285714285715  6.51428571428571 0.571428571428572  7.42857142857143 0.342857142857143  C 8.22857142857143 0.114285714285714  9.02857142857143 0  10.0571428571429 0  C 11.0857142857143 0  11.8857142857143 0.114285714285714  12.6857142857143 0.342857142857143  C 13.4857142857143 0.571428571428571  14.2857142857143 0.914285714285714  15.0857142857143 1.37142857142857  C 15.8857142857143 1.82857142857143  16.4571428571429 2.28571428571429  17.1428571428571 2.97142857142857  C 17.7142857142857 3.54285714285714  18.2857142857143 4.22857142857143  18.7428571428571 5.02857142857143  C 19.0857142857143 5.71428571428571  19.4285714285714 6.51428571428571  19.6571428571429 7.31428571428571  C 19.8857142857143 8.11428571428571  20 9.02857142857143  20 9.94285714285714  C 20 10.8571428571429  19.8857142857143 11.7714285714286  19.6571428571429 12.5714285714286  C 19.4285714285714 13.3714285714286  19.0857142857143 14.1714285714286  18.6285714285714 14.9714285714286  C 18.1714285714286 15.6571428571429  17.7142857142857 16.3428571428571  17.0285714285714 17.0285714285714  C 16.4571428571429 17.6  15.7714285714286 18.1714285714286  14.9714285714286 18.6285714285714  C 14.1714285714286 19.0857142857143  13.4857142857143 19.4285714285714  12.5714285714286 19.6571428571429  Z M 13.2571428571429 2.17142857142857  C 12.3428571428571 1.6  11.2 1.48571428571429  10.0571428571429 1.48571428571429  C 8.91428571428571 1.48571428571429  7.77142857142857 1.71428571428571  6.74285714285714 2.17142857142857  C 5.6 2.51428571428571  4.68571428571429 3.2  4 4  C 3.2 4.68571428571429  2.51428571428571 5.6  2.05714285714286 6.62857142857143  C 1.6 7.65714285714286  1.48571428571429 8.8  1.48571428571429 10.0571428571429  C 1.48571428571429 11.3142857142857  1.71428571428571 12.3428571428571  2.17142857142857 13.3714285714286  C 2.62857142857143 14.4  3.2 15.3142857142857  4 16.1142857142857  C 4.8 16.9142857142857  5.71428571428571 17.4857142857143  6.74285714285714 17.9428571428571  C 7.77142857142857 18.4  8.91428571428571 18.6285714285714  10.0571428571429 18.6285714285714  C 11.2 18.6285714285714  12.3428571428571 18.4  13.3714285714286 17.9428571428571  C 14.4 17.4857142857143  15.3142857142857 16.9142857142857  16.1142857142857 16.1142857142857  C 16.9142857142857 15.3142857142857  17.4857142857143 14.4  17.9428571428571 13.3714285714286  C 18.4 12.3428571428571  18.6285714285714 11.2  18.6285714285714 10.0571428571429  C 18.6285714285714 8.91428571428571  18.4 7.77142857142857  17.9428571428571 6.74285714285714  C 17.4857142857143 5.71428571428571  16.8 4.68571428571429  16 4  C 15.2 3.2  14.2857142857143 2.62857142857143  13.2571428571429 2.17142857142857  Z M 14.2857142857143 10.0571428571429  L 10.0571428571429 10.0571428571429  L 10.0571428571429 4.34285714285714  L 8.57142857142857 4.34285714285714  L 8.57142857142857 11.4285714285714  L 14.2857142857143 11.4285714285714  L 14.2857142857143 10.0571428571429  Z " fill-rule="nonzero" fill="#ffffff" stroke="none" transform="matrix(1 0 0 1 10 10 )" />
  </g>
</svg>