<?xml version="1.0" encoding="utf-8"?>
<svg version="1.1" xmlns:xlink="http://www.w3.org/1999/xlink" width="20px" height="19px" xmlns="http://www.w3.org/2000/svg">
  <g transform="matrix(1 0 0 1 -10 -11 )">
    <path d="M 3.8 3.9  L 0 3.9  L 0 0.100000000000001  L 3.8 0.100000000000001  L 3.8 3.9  Z M 3.8 8.9  L 0 8.9  L 0 5.1  L 3.8 5.1  L 3.8 8.9  Z M 3.8 13.9  L 0 13.9  L 0 10.1  L 3.8 10.1  L 3.8 13.9  Z M 3.8 18.9  L 0 18.9  L 0 15.1  L 3.8 15.1  L 3.8 18.9  Z M 2.6 1.4  L 1.3 1.4  L 1.3 2.7  L 2.6 2.7  L 2.6 1.4  Z M 2.6 6.4  L 1.3 6.4  L 1.3 7.7  L 2.6 7.7  L 2.6 6.4  Z M 2.6 11.4  L 1.3 11.4  L 1.3 12.7  L 2.6 12.7  L 2.6 11.4  Z M 2.6 16.4  L 1.3 16.4  L 1.3 17.7  L 2.6 17.7  L 2.6 16.4  Z M 6.3 3  L 6.3 1.4  L 20 1.4  L 20 3  L 6.3 3  Z M 6.3 8  L 6.3 7.6  L 6.3 6.4  L 17.6 6.4  L 17.6 8  L 6.3 8  Z M 6.3 11.4  L 15 11.4  L 15 12.7  L 6.3 12.7  L 6.3 11.4  Z M 17.6 17.6  L 6.3 17.6  L 6.3 16  L 17.6 16  L 17.6 17.6  Z " fill-rule="nonzero" fill="#ffffff" stroke="none" transform="matrix(1 0 0 1 10 11 )" />
  </g>
</svg>